<svg xmlns="http://www.w3.org/2000/svg" viewBox="0 0 283.5 354.375"><path d="M61.1 271.1c0 2.4 2 4.4 4.4 4.4h138.3c2.4 0 4.4-2 4.4-4.4 0-2.4-2-4.4-4.4-4.4h-59.6l23.4-76.1 90.2 27.2c.4.1.9.2 1.3.2 1 0 2-.3 2.7-1 1.1-.9 1.8-2.3 1.7-3.7-1.3-22.2-9.2-43.2-22.9-60.8-12.1-15.6-27.9-27.4-46.1-34.6-1.5-.6-3.6-1.4-4.5-1.7l1.2-3.9c.7-2.3-.6-4.8-3-5.5-2.3-.7-4.8.6-5.5 3l-1.2 3.9c-.9-.2-3.7-.8-4.7-1.1-7.5-1.6-15-2.4-22.6-2.4-34.2 0-67 16.4-87.5 43.8-.9 1.2-1.1 2.7-.7 4 .5 1.4 1.5 2.4 2.9 2.9l90.2 27.2-24.1 78.5H65.5c-2.4 0-4.4 2-4.4 4.5zM153.2 119c-10.8 5.1-20.5 13.1-28.7 23.6-6.7 8.7-10.8 17-12.9 21.8l-33.8-10.2c18.8-21.9 46.5-34.9 75.4-35.2zm67.2 78.2c.9-5.2 2.1-14.4 1.3-25.3-1-13.2-4.7-25.1-10.8-35.4 23.6 16.1 39.7 41.9 43.3 70.9l-33.8-10.2zM120.2 167c2-4.5 5.7-11.8 11.5-19.2 12-15.4 27.1-24.2 44.7-26.3 2.3.5 4.6 1.1 6.9 1.8 2.3.7 4.6 1.5 6.8 2.3 13.5 11.5 21.1 27.1 22.7 46.6.7 9.4-.2 17.5-1 22.4L120.2 167z"/><circle cx="39.5" cy="98.5" r="4.6"/><circle cx="108.8" cy="29.4" r="4.6"/><path d="M121.3 68.8H100c-2.4 0-4.4-2-4.4-4.4 0-2.4 2-4.4 4.4-4.4h21.3c2.4 0 4.4 2 4.4 4.4 0 2.4-2 4.4-4.4 4.4zM27.3 60h21.3c2.4 0 4.4 2 4.4 4.4 0 2.4-2 4.4-4.4 4.4H27.3c-2.4 0-4.4-2-4.4-4.4-.1-2.5 1.9-4.4 4.4-4.4zM45.4 87l7.3-7.3c1.7-1.7 4.5-1.7 6.3 0 1.7 1.7 1.7 4.5 0 6.3l-7.3 7.3c-.9.9-2 1.3-3.1 1.3s-2.3-.4-3.1-1.3c-1.8-1.8-1.8-4.6-.1-6.3zM78.7 91.2v20.2c0 2.4-2 4.4-4.4 4.4-2.4 0-4.4-2-4.4-4.4V91.2c0-2.4 2-4.4 4.4-4.4 2.4 0 4.4 2 4.4 4.4zM100 94.6c-1.1 0-2.3-.4-3.1-1.3L89.6 86c-1.7-1.7-1.7-4.5 0-6.3 1.7-1.7 4.5-1.7 6.3 0l7.3 7.3c1.7 1.7 1.7 4.5 0 6.3-.9.8-2 1.3-3.2 1.3zM90.1 64.4c0-8.7-7.1-15.9-15.9-15.9-8.7 0-15.9 7.1-15.9 15.9s7.1 15.9 15.9 15.9c8.8-.1 15.9-7.2 15.9-15.9zm-8.8 0c0 3.9-3.1 7-7 7s-7-3.1-7-7 3.1-7 7-7c3.8 0 7 3.1 7 7zM103.2 41.8L95.9 49c-.9.9-2 1.3-3.1 1.3s-2.3-.4-3.1-1.3c-1.7-1.7-1.7-4.5 0-6.3l7.3-7.3c1.7-1.7 4.5-1.7 6.3 0 1.6 1.8 1.6 4.7-.1 6.4zM74.3 42c-2.4 0-4.4-2-4.4-4.4V17.4c0-2.4 2-4.4 4.4-4.4 2.4 0 4.4 2 4.4 4.4v20.2c0 2.4-2 4.4-4.4 4.4zM55.8 50.3c-1.1 0-2.3-.4-3.1-1.3l-7.3-7.3c-1.7-1.7-1.7-4.5 0-6.3 1.7-1.7 4.5-1.7 6.3 0l7.3 7.3c1.7 1.7 1.7 4.5 0 6.3-.9.9-2.1 1.3-3.2 1.3z"/><circle cx="39.8" cy="29.1" r="4.6"/><circle cx="108.5" cy="98.8" r="4.6"/><circle cx="133.5" cy="163.8" r="4.6"/><path d="M137.6 152.4c10.2-13.1 22.7-21.8 36.9-25.8 2.1-.6 4.2.6 4.8 2.7.6 2.1-.6 4.2-2.7 4.8-12.6 3.5-23.7 11.3-32.9 23-.8 1-1.9 1.5-3.1 1.5-.8 0-1.7-.3-2.4-.8-1.6-1.2-1.9-3.7-.6-5.4z"/></svg>