<svg width="440" height="125" xmlns="http://www.w3.org/2000/svg"><path stroke="#484948" d="M35.975 31.414C11.94 48.604-20.94 109.802 51.663 105.9c29.31-1.045 74.334-11.17 116.422 4.518 42.088 15.688 68.572 8.945 80.477-2.582 11.904-11.528-2.467-38.576-15.34-66.306-5.445-11.866-3.263-35.28 12.442-36.716 17.775-.372 10.873 18.47 5.523 26.923-9.438 15.315-20.048 23.66-30.457 31.658-15.563 12.294-19.176 30.412 4.557 35.847 24.19 5.05 27.716-12.205 37.888-30.647 10.172-18.442 24.72-33.604 73.19-39.72 48.473-6.117 103.635 6.3 94.803 38.28" opacity=".7" stroke-linecap="round" stroke-width="2" stroke-dasharray="5,5" stroke-opacity="null" fill="none"/><path d="M38.338 13.682c4.537-11.138 22.314 0 0 14.32-22.314-14.32-4.537-25.458 0-14.32z" fill="#FFB2A8"/><path d="M422.752 95.51c.22.06.446.016.664-.12.217-.135.428-.357.634-.65.413-.59.812-1.465 1.2-2.54.386-1.075.76-2.347 1.114-3.72 3.08-.47 9.338-1.47 9.944-1.915.808-.595.863-1.522.79-2.17l-9.678-.52c.565-2.73 1.042-5.458 1.39-7.603.973-.037 2.794-.138 3.237-.394.61-.354 1.055-1.927 1.055-1.927l-3.818-.717c.105-.703.162-1.114.162-1.114l.004-.038-.03-.008-.067-.02-.03-.008-.015.034s-.167.38-.447 1.034l-3.628-1.39s-.445 1.573-.11 2.194c.242.45 1.742 1.493 2.55 2.033a186.025 186.025 0 0 0-2.79 7.182l-8.416-4.574c-.402.512-.842 1.33-.466 2.26.28.69 4.97 4.724 7.375 6.764-.424 1.374-.778 2.67-1.014 3.8v.002c-.233 1.118-.352 2.073-.308 2.79.02.358.083.658.197.887.114.23.282.386.502.45z" fill="#88C9B3"/></svg>