<svg xmlns="http://www.w3.org/2000/svg" viewBox="0 0 283.5 354.375"><path d="M176.2 54.8c0-.1 0-.1 0 0 0-.1 0-.1 0 0zM110 54.9c-.4.4-.7.8-1.1 1.2 0-.1.1-.1.1-.2.4-.3.7-.7 1-1zM106.9 58.8s-.1.1-.1.2c.1-.1.1-.1.1-.2zM173.1 51.9c-.1-.1-.2-.2-.3-.2.1.1.2.2.3.2zM255.9 79.1c.4.2.9.4 1.3.6-.4-.3-.8-.4-1.3-.6zM258.3 80.3l1.8 1.2c-.6-.5-1.2-.9-1.8-1.2z"/><path d="M258.3 80.3l1.8 1.2c-.6-.5-1.2-.9-1.8-1.2zM260.9 82.2c-.2-.1-.3-.3-.5-.4M255.9 79.1c.4.2.9.4 1.3.6M257.4 79.7c.3.1.5.3.8.4M251.2 77.9h.4M263.3 84.6c.2.3.4.6.7.9M262.2 83.4zM114.1 51.2l-1.2.9 1.2-.9zM112.9 52.2zM176.2 54.7c-.3-.3-.5-.5-.7-.8.2.4.5.6.7.8 0 .1 0 .1 0 0zM109.1 55.9c0 .1-.1.1-.1.2 0-.1 0-.1.1-.2zM110 54.9c-.3.3-.6.7-.9 1.1.3-.4.6-.8.9-1.1zM108.6 56.5l-.1.1c-.2.2-.4.5-.5.7.1-.2.3-.5.6-.8zM108.8 56.2c-.1.1-.2.2-.3.4.2-.2.2-.3.3-.4zM111.5 53.4zM111.3 53.6c-.4.3-.7.7-1.1 1.1.4-.4.7-.8 1.1-1.1zM106.4 59.8c-.1.2-.3.4-.4.7.1-.3.2-.5.4-.7zM104.4 64c-.1.3-.2.7-.3 1 .1-.3.2-.6.3-1zM103.8 65.9c-.1.3-.1.5-.2.8-.1.3-.1.5-.2.8.1-.5.2-1 .4-1.6zM105.8 60.7c-.1.2-.2.5-.3.7.1-.2.2-.4.3-.7zM105.5 61.4s0 .1 0 0c-.1.3-.3.5-.4.7.2-.2.3-.4.4-.7zM115.6 50.3c-.4.3-.8.5-1.2.8.3-.3.8-.6 1.2-.8zM105 62.5c0 .1-.1.2-.1.3 0 .1-.1.1-.1.2.1-.2.1-.4.2-.5zM104.5 63.9l.3-.9-.3.9zM106.8 59c0-.1.1-.1.1-.2 0 .1 0 .1-.1.2zM107 58.8c-.1 0-.1 0 0 0-.1 0 0 0 0 0zM113.6 65c.1-.3.2-.6.3-.8-.3.3-.3.5-.3.8zM176.9 55.6s0-.1 0 0c0-.1 0-.1 0 0-.2-.2-.4-.4-.5-.6.2.2.4.4.5.6.1 0 .1 0 0 0zM118.8 48.6c-.5.2-.9.4-1.3.6.4-.2.9-.4 1.3-.6zM120.3 48c-.2.1-.3.1-.5.2.3-.1.5-.2.8-.3-.2 0-.2 0-.3.1zM117.2 49.3c-.4.2-.7.4-1.1.6-.1.1-.2.1-.3.2.5-.2.9-.5 1.4-.8zM173.7 52.4c-.1-.1-.2-.2-.3-.2.4.3.8.6 1.2 1-.3-.3-.6-.5-.9-.8z"/><path d="M173.4 52.2c-.1-.1-.2-.2-.3-.2.1 0 .2.1.3.2zM173.1 51.9c-.1-.1-.2-.2-.3-.2-.3-.2-.5-.4-.8-.6l-.1-.1 1.2.9zM70.1 90.9c-2.4 0-4.4 2-4.4 4.4v136.6c0 2.4 2 4.4 4.4 4.4 2.4 0 4.4-2 4.4-4.4V95.3c0-2.4-2-4.4-4.4-4.4zM216.2 90.9c-2.4 0-4.4 2-4.4 4.4v136.6c0 2.4 2 4.4 4.4 4.4 2.4 0 4.4-2 4.4-4.4V95.3c0-2.4-2-4.4-4.4-4.4zM161.3 179.6c-.4-2.4-2.6-4.1-5-3.7l-62.2 9.3c-2.4.4-4.1 2.6-3.7 5l4.6 31.1c.2 1.2.8 2.2 1.7 2.9.8.6 1.7.9 2.6.9h.6l62.3-9.3c1.2-.2 2.2-.8 2.9-1.7.7-.9 1-2.1.8-3.3l-4.6-31.2zm-58.2 36l-3.3-22.4 21.6-3.2 3.3 22.4-21.6 3.2zm30.2-4.5l-3.3-22.4 23.2-3.5 3.3 22.4-23.2 3.5zM203.9 123l-56.6-19.5c-1.1-.4-2.3-.3-3.4.2-1 .5-1.9 1.4-2.2 2.5l-11.2 32.6c-.4 1.1-.3 2.3.2 3.4.5 1 1.4 1.9 2.5 2.2l56.6 19.5c.5.2 1 .2 1.4.2 1.8 0 3.5-1.1 4.2-3l11.2-32.6c.8-2.2-.4-4.7-2.7-5.5zm-63.6 14.6h-.1l2.7-7.7 5.7-16.6 10.6 3.7-.3.7-8.8 23.4-9.8-3.5zm48.2 16.6l-30-10.3 9-24.1 29.3 10.1-8.3 24.3z"/><path d="M249.4 69H192c-2.1-17.7-17.2-31.6-35.4-31.6h-27c-18.3 0-33.4 13.8-35.4 31.6H36.9c-14.5 0-26.3 11.8-26.3 26.3v136.6c0 14.5 11.8 26.3 26.3 26.3h212.6c14.5 0 26.3-11.8 26.3-26.3V95.3c-.1-14.5-11.9-26.3-26.4-26.3zm-146-1.4s0-.1 0 0c.1-.3.1-.5.2-.8.1-.3.1-.5.2-.8 0-.1.1-.2.1-.4.1-.2.1-.3.2-.5.1-.3.2-.7.3-1 0-.1.1-.1.1-.2.1-.4.3-.7.4-1.1 0-.1.1-.2.1-.3 0-.1.1-.2.1-.3.1-.2.2-.5.3-.7.1-.2.2-.5.4-.7 0-.1.1-.2.1-.3.1-.2.3-.4.4-.7l.3-.6c0-.1.1-.2.1-.2 0-.1.1-.1.1-.2.2-.4.5-.8.8-1.1.1-.1.1-.2.2-.3.2-.2.4-.5.5-.7.1-.2.3-.3.4-.5l.1-.1c.3-.4.7-.8 1.1-1.2l.3-.3c.3-.4.7-.7 1.1-1.1 0 0 0-.1.1-.1l.1-.1c.4-.3.7-.7 1.1-1 .1-.1.2-.2.3-.2.4-.3.8-.7 1.3-1 .1-.1.1-.1.2-.1.4-.3.8-.5 1.2-.8.1-.1.2-.1.3-.2.1-.1.2-.1.3-.2.4-.2.7-.4 1.1-.6.1-.1.2-.1.3-.2.4-.2.9-.4 1.3-.6.1 0 .1-.1.2-.1.2-.1.5-.2.8-.3.2-.1.3-.1.5-.2.1 0 .2-.1.2-.1.1 0 .1 0 .2-.1l1.8-.6 1.2-.3c.8-.2 1.6-.3 2.4-.4 1.2-.2 2.4-.3 3.7-.3h28.9c.4 0 .8.1 1.1.1h.4c.5.1 1 .1 1.5.2h.1c.4.1.9.2 1.3.3.1 0 .2.1.4.1.4.1.8.2 1.1.3.1 0 .2.1.3.1.5.2.9.3 1.4.5h.1c.4.2.9.3 1.3.5.1 0 .2.1.3.1l1.2.6h.1c.5.2.9.5 1.3.8.4.3.8.5 1.2.8l.1.1.1.1c.3.2.5.4.8.6.1.1.2.2.3.2.1.1.2.2.3.2.1.1.2.2.3.2.3.2.6.5.9.7.3.3.6.5.8.8l.7.7.2.2c.1.2.3.3.4.5v.2c.1.1.2.2.2.3.2.2.3.4.5.6.1.1.2.2.2.3.2.2.3.4.5.6l.1.1c.7 1 1.3 2 1.9 3 0 .1.1.1.1.2.1.2.2.4.3.7.1.1.1.2.2.3l.3.6c.1.1.1.3.2.4.1.2.2.4.2.6.1.2.1.3.2.5s.1.4.2.5c.1.2.1.4.2.5.1.2.1.3.2.5s.1.4.2.6c0 .2.1.3.1.5.1.2.1.5.2.7 0 .1.1.3.1.4.1.4.2.7.2 1.1h-9.6l-.3-1.8c-.1-.6-.3-1.1-.4-1.6v-.1c-.2-.5-.3-1-.5-1.5v-.1c-.2-.5-.4-1-.6-1.4v-.1c-.2-.5-.4-.9-.7-1.3v-.1c-.2-.4-.5-.8-.8-1.2 0 0 0-.1-.1-.1-.3-.4-.6-.8-.9-1.1l-.1-.1c-.3-.4-.6-.7-1-1l-.1-.1c-.3-.3-.7-.6-1.1-.9h-.1c-.4-.3-.8-.6-1.2-.8-.4-.3-.8-.5-1.2-.7-.4-.2-.9-.4-1.3-.6-.5-.2-.9-.4-1.4-.5-.5-.1-1-.3-1.5-.4-.5-.1-1-.2-1.6-.2-.5-.1-1.1-.1-1.7-.1h-28.6c-.4 0-.8.1-1.2.1h-.2c-.4.1-.8.1-1.2.2l-1.2.3c-.1 0-.1 0-.2.1-.4.1-.7.2-1.1.4-.1 0-.1 0-.2.1-.7.3-1.4.7-2.1 1.1 0 0-.1 0-.1.1-.3.2-.6.4-1 .6l-.1.1c-.6.5-1.3 1-1.8 1.6l-.1.1c-.3.3-.6.6-.8.9 0 0 0 .1-.1.1-.5.6-1 1.3-1.5 2.1-.2.4-.4.8-.6 1.1v.1c-.4.8-.8 1.7-1.1 2.6-.1.2-.2.5-.2.8v.1c-.4 1.2-.6 2.4-.8 3.7h-9.6c.1 0 .2-.4.3-.8zm61.3 1.4h-43.1c.7-3.8 2.8-7.7 8.3-7.7h26.5c5.5 0 7.6 3.9 8.3 7.7zM19.4 95.3c0-9.6 7.8-17.5 17.5-17.5h5l-22.5 22.5v-5zm247.5 68.2l-23 3.2c-1.1.2-2.1.7-2.8 1.6s-1 2-.8 3.1l3.6 24c.2 1.1.8 2.1 1.7 2.8.7.5 1.6.8 2.5.8.2 0 .4 0 .7-.1L267 196v35.7c0 9.6-7.8 17.5-17.5 17.5H36.9c-9.6 0-17.5-7.8-17.5-17.5V114.3l36.8-36.8h174.2l36.5 36.5v49.5zm-.8 24.3l-14.5 2.3-2.3-15.6 16.7-2.3.1 15.6zm.8-87.8l-22.2-22.2H251.9c.7.1 1.4.2 2.1.4.1 0 .2 0 .3.1.3.1.5.2.8.2.1 0 .2.1.2.1.2.1.4.2.7.3.4.2.9.4 1.3.6.1 0 .1.1.2.1.3.1.5.3.8.4l.1.1 1.8 1.2s.1 0 .1.1c.1.1.2.1.3.2.2.1.4.3.5.4h.1l1.2 1.2c.1.1.2.2.3.4.2.3.5.6.7.8.2.3.4.6.7.9l.6.9c1.5 2.6 2.4 5.6 2.4 8.8v5z"/></svg>