<svg xmlns="http://www.w3.org/2000/svg" xmlns:xlink="http://www.w3.org/1999/xlink" version="1.1" x="0px" y="0px" viewBox="0 0 283.5 354.375" enable-background="new 0 0 283.5 283.5" xml:space="preserve"><g><path d="M61.1,271.1c0,2.4,2,4.4,4.4,4.4h138.3c2.4,0,4.4-2,4.4-4.4c0-2.4-2-4.4-4.4-4.4h-59.6l23.4-76.1l90.2,27.2   c0.4,0.1,0.9,0.2,1.3,0.2c1,0,2-0.3,2.7-1c1.1-0.9,1.8-2.3,1.7-3.7c-1.3-22.2-9.2-43.2-22.9-60.8c-12.1-15.6-27.9-27.4-46.1-34.6   c-1.5-0.6-3.6-1.4-4.5-1.7l1.2-3.9c0.7-2.3-0.6-4.8-3-5.5c-2.3-0.7-4.8,0.6-5.5,3l-1.2,3.9c-0.9-0.2-3.7-0.8-4.7-1.1   c-7.5-1.6-15-2.4-22.6-2.4c-34.2,0-67,16.4-87.5,43.8c-0.9,1.2-1.1,2.7-0.7,4c0.5,1.4,1.5,2.4,2.9,2.9l90.2,27.2L135,266.6H65.5   C63.1,266.6,61.1,268.6,61.1,271.1z M153.2,119c-10.8,5.1-20.5,13.1-28.7,23.6c-6.7,8.7-10.8,17-12.9,21.8l-33.8-10.2   C96.6,132.3,124.3,119.3,153.2,119z M220.4,197.2c0.9-5.2,2.1-14.4,1.3-25.3c-1-13.2-4.7-25.1-10.8-35.4   c23.6,16.1,39.7,41.9,43.3,70.9L220.4,197.2z M120.2,167c2-4.5,5.7-11.8,11.5-19.2c12-15.4,27.1-24.2,44.7-26.3   c2.3,0.5,4.6,1.1,6.9,1.8h0h0l0,0c2.3,0.7,4.6,1.5,6.8,2.3c13.5,11.5,21.1,27.1,22.7,46.6c0.7,9.4-0.2,17.5-1,22.4L120.2,167z"/><circle cx="39.5" cy="98.5" r="4.6"/><circle cx="108.8" cy="29.4" r="4.6"/><path d="M121.3,68.8H100c-2.4,0-4.4-2-4.4-4.4c0-2.4,2-4.4,4.4-4.4h21.3c2.4,0,4.4,2,4.4,4.4C125.7,66.8,123.7,68.8,121.3,68.8z"/><path d="M27.3,60h21.3c2.4,0,4.4,2,4.4,4.4c0,2.4-2,4.4-4.4,4.4H27.3c-2.4,0-4.4-2-4.4-4.4C22.8,61.9,24.8,60,27.3,60z"/><path d="M45.4,87l7.3-7.3c1.7-1.7,4.5-1.7,6.3,0c1.7,1.7,1.7,4.5,0,6.3l-7.3,7.3c-0.9,0.9-2,1.3-3.1,1.3c-1.1,0-2.3-0.4-3.1-1.3   C43.7,91.5,43.7,88.7,45.4,87z"/><path d="M78.7,91.2v20.2c0,2.4-2,4.4-4.4,4.4c-2.4,0-4.4-2-4.4-4.4V91.2c0-2.4,2-4.4,4.4-4.4C76.7,86.8,78.7,88.8,78.7,91.2z"/><path d="M100,94.6c-1.1,0-2.3-0.4-3.1-1.3L89.6,86c-1.7-1.7-1.7-4.5,0-6.3c1.7-1.7,4.5-1.7,6.3,0l7.3,7.3c1.7,1.7,1.7,4.5,0,6.3   C102.3,94.1,101.2,94.6,100,94.6z"/><path d="M90.1,64.4c0-8.7-7.1-15.9-15.9-15.9c-8.7,0-15.9,7.1-15.9,15.9s7.1,15.9,15.9,15.9C83,80.2,90.1,73.1,90.1,64.4z    M81.3,64.4c0,3.9-3.1,7-7,7c-3.9,0-7-3.1-7-7c0-3.9,3.1-7,7-7C78.1,57.4,81.3,60.5,81.3,64.4z"/><path d="M103.2,41.8L95.9,49c-0.9,0.9-2,1.3-3.1,1.3c-1.1,0-2.3-0.4-3.1-1.3c-1.7-1.7-1.7-4.5,0-6.3l7.3-7.3c1.7-1.7,4.5-1.7,6.3,0   C104.9,37.2,104.9,40.1,103.2,41.8z"/><path d="M74.3,42c-2.4,0-4.4-2-4.4-4.4V17.4c0-2.4,2-4.4,4.4-4.4c2.4,0,4.4,2,4.4,4.4v20.2C78.7,40,76.7,42,74.3,42z"/><path d="M55.8,50.3c-1.1,0-2.3-0.4-3.1-1.3l-7.3-7.3c-1.7-1.7-1.7-4.5,0-6.3c1.7-1.7,4.5-1.7,6.3,0l7.3,7.3c1.7,1.7,1.7,4.5,0,6.3   C58.1,49.9,56.9,50.3,55.8,50.3z"/><circle cx="39.8" cy="29.1" r="4.6"/><circle cx="108.5" cy="98.8" r="4.6"/><circle cx="133.5" cy="163.8" r="4.6"/><path d="M137.6,152.4c10.2-13.1,22.7-21.8,36.9-25.8c2.1-0.6,4.2,0.6,4.8,2.7c0.6,2.1-0.6,4.2-2.7,4.8c-12.6,3.5-23.7,11.3-32.9,23   c-0.8,1-1.9,1.5-3.1,1.5c-0.8,0-1.7-0.3-2.4-0.8C136.6,156.6,136.3,154.1,137.6,152.4z"/></g></svg>