<svg xmlns="http://www.w3.org/2000/svg" xmlns:xlink="http://www.w3.org/1999/xlink" version="1.1" x="0px" y="0px" viewBox="0 0 283.5 354.375" enable-background="new 0 0 283.5 283.5" xml:space="preserve"><g><path d="M271.9,220.9c-0.7-1.6-2.2-2.6-3.9-2.6h-67.6c-0.1-0.1-0.2-0.2-0.2-0.2l-14.5-11.9c-0.8-0.6-1.7-1-2.7-1h-56.1v-5.8h103.3   c1.5,0,3-0.8,3.7-2.2c0.7-1.4,0.7-3-0.2-4.3c-0.4-0.7-44.6-68.8-106.9-144V43c0-0.1,0-0.2,0-0.3l0-23.6c0-1.3-0.6-2.6-1.7-3.4   c-0.5-0.4-1-0.6-1.6-0.7c0,0-0.1,0-0.1,0c-0.1,0-0.2,0-0.2,0c-0.1,0-0.1,0-0.2,0c-0.1,0-0.1,0-0.2,0c0,0-0.1,0-0.1,0   c0,0-0.1,0-0.1,0c-0.1,0-0.1,0-0.1,0c-0.1,0-0.3,0-0.4,0c0,0,0,0,0,0c-0.2,0-0.4,0.1-0.6,0.2L82,26.8c-1.8,0.5-3,2.2-3,4.1   c0,1.9,1.2,3.5,3,4.1l36.4,10.9V57L46.6,193.2c-0.7,1.3-0.6,2.9,0.1,4.2c0.8,1.3,2.1,2,3.6,2h50.5v0c2.3,0,4.1-1.9,4.1-4.2   c0-2.3-1.8-4.2-4.1-4.2v0H57.4l61.1-115.9v102V191v8.5v3.3v2.4H61.8c-1.2,0-2.3,0.5-3.2,1.4l-8.8,9.8c-0.5,0.5-0.8,1.2-1,1.9H17   c-1.5,0-2.9,0.8-3.7,2.2c-0.7,1.3-0.7,3,0.1,4.3l19.4,32c0.8,1.3,2.1,2,3.6,2h199.7c1.1,0,2.2-0.4,3-1.2l31.9-32   C272.2,224.3,272.6,222.5,271.9,220.9z M222.4,191h-89.7c3-5,5.4-10.6,7.2-16.8c0.1,0,0.3,0,0.4,0H211   C215.9,181.3,219.7,187,222.4,191z M205.1,165.7h-63.2c3.2-16.2,3-36-0.6-59.3c-2.1-13.6-5-26.1-7.7-35.9   C163.7,107.8,188.7,142.2,205.1,165.7z M126.9,78.2c7.3,29.1,15.4,76.4,0,105.7V78.2z M98,30.8l20.5-6.1V37L98,30.8z M63.7,213.7   h117.8l5.6,4.6H59.5L63.7,213.7z M248.4,236.2h-69.5c-2,0-3.6,1.6-3.6,3.6c0,2,1.6,3.6,3.6,3.6h62.4l-7,7H38.8l-14.3-23.6h233.3   L248.4,236.2z"/><circle cx="153.1" cy="239.8" r="4.2"/><circle cx="166.9" cy="239.8" r="4.2"/></g></svg>