<svg width="440" height="125" xmlns="http://www.w3.org/2000/svg">
 <g>
  <path stroke="#484948" id="svg_4" d="m35.97488,31.414145c-24.033506,17.188788 -56.916042,78.387852 15.688339,74.485563c29.30979,-1.044534 74.333901,-11.170062 116.421714,4.517972c42.087813,15.688034 68.571922,8.945673 80.476622,-2.581764c11.904699,-11.527437 -2.466474,-38.576185 -15.338607,-66.305776c-5.446149,-11.866229 -3.263592,-35.280228 12.440618,-36.716217c17.774972,-0.37157 10.873554,18.46978 5.523564,26.92334c-9.438186,15.315046 -20.048617,23.660317 -30.456971,31.657681c-15.563448,12.293962 -19.175677,30.412041 4.5571,35.84731c24.191233,5.049171 27.716037,-12.205185 37.887877,-30.647136c10.17184,-18.441951 24.718604,-33.604071 73.19068,-39.720796c48.472076,-6.116725 103.633748,6.299717 94.802358,38.280193" fill-opacity="null" opacity="0.7" stroke-linecap="round" stroke-width="2" stroke-dasharray="5,5" stroke-opacity="null" fill="none"/>
  <path id="svg_5" d="m171.391832,126.032214" opacity="0.5" fill-opacity="null" stroke-opacity="null" stroke-width="1.5" stroke="#000" fill="none"/>
  <path stroke="#000" id="svg_10" d="m38.338006,13.681555c4.537168,-11.137225 22.31394,0 0,14.319289c-22.31394,-14.319289 -4.537168,-25.456514 0,-14.319289z" stroke-opacity="null" stroke-width="0" fill="#FFB2A8"/>
  <path transform="rotate(-164.20103454589844 426.2215270996093,83.8293685913086) " id="svg_11" d="m426.379674,71.646632c-0.229517,0 -0.433716,0.104523 -0.606007,0.294119c-0.172146,0.18944 -0.314535,0.460893 -0.433022,0.799908c-0.236941,0.677935 -0.382693,1.63028 -0.462418,2.770801c-0.079569,1.138327 -0.092978,2.463803 -0.059921,3.8827c-2.8351,1.290304 -8.58521,3.954435 -9.047122,4.549279c-0.614983,0.791967 -0.416283,1.699607 -0.168461,2.302135l9.453008,-2.13446c0.199815,2.781566 0.483924,5.53656 0.731502,7.69531c-0.924447,0.300151 -2.650089,0.89281 -3.006283,1.260327c-0.490687,0.506284 -0.490684,2.141318 -0.490684,2.141318l3.86894,-0.349093c0.091122,0.704781 0.148108,1.116016 0.148108,1.116016l0.005654,0.037109l0.030527,0l0.071227,0l0.030527,0l0.005654,-0.037109c0,0 0.056878,-0.411243 0.148107,-1.116016l3.870071,0.349093c0,0 0.000004,-1.635034 -0.490684,-2.141318c-0.356327,-0.367659 -2.083229,-0.961662 -3.007414,-1.26171c0.247066,-2.152124 0.530674,-4.896577 0.730372,-7.669182l9.342213,2.109714c0.247819,-0.602528 0.447655,-1.510167 -0.167329,-2.302135c-0.456198,-0.587482 -6.067363,-3.192359 -8.937453,-4.499805c0.034292,-1.437287 0.021687,-2.780826 -0.058792,-3.932174l0,-0.002749c-0.079766,-1.139263 -0.225673,-2.090681 -0.462416,-2.768052c-0.118453,-0.338921 -0.259684,-0.610401 -0.431891,-0.799908c-0.172293,-0.189596 -0.37649,-0.294119 -0.606005,-0.294119l-0.000004,0.000001z" stroke-opacity="null" stroke-width="0" stroke="#000" fill="#88C9B3"/>
 </g>
</svg>