<svg xmlns="http://www.w3.org/2000/svg" xmlns:xlink="http://www.w3.org/1999/xlink" version="1.1" x="0px" y="0px" viewBox="0 0 283.5 354.375" enable-background="new 0 0 283.5 283.5" xml:space="preserve"><path stroke="#4E2353" stroke-width="10" stroke-linecap="round" stroke-linejoin="round" stroke-miterlimit="10" d="M263.3,70.8" fill="#000000"/><path stroke="#4E2353" stroke-width="10" stroke-linecap="round" stroke-linejoin="round" stroke-miterlimit="10" d="M260.9,70.4" fill="#000000"/><path d="M176.2,54.8C176.2,54.8,176.2,54.8,176.2,54.8C176.2,54.7,176.2,54.7,176.2,54.8C176.2,54.7,176.2,54.7,176.2,54.8  C176.2,54.8,176.2,54.8,176.2,54.8z"/><path d="M110,54.9c-0.4,0.4-0.7,0.8-1.1,1.2c0,0,0,0,0,0c0-0.1,0.1-0.1,0.1-0.2C109.4,55.6,109.7,55.2,110,54.9z"/><path d="M106.9,58.8C106.9,58.8,106.9,58.8,106.9,58.8c0,0-0.1,0.1-0.1,0.2c0,0,0,0,0,0l0,0C106.9,58.9,106.9,58.9,106.9,58.8z"/><path d="M173.1,51.9c-0.1-0.1-0.2-0.2-0.3-0.2C172.9,51.8,173,51.9,173.1,51.9C173.1,51.9,173.1,51.9,173.1,51.9z"/><path d="M255.9,79.1c0.4,0.2,0.9,0.4,1.3,0.6C256.8,79.4,256.4,79.3,255.9,79.1z"/><path d="M258.3,80.3c0.6,0.4,1.2,0.8,1.8,1.2C259.5,81,258.9,80.6,258.3,80.3z"/><path d="M258.3,80.3c0.6,0.4,1.2,0.8,1.8,1.2C259.5,81,258.9,80.6,258.3,80.3z"/><path stroke="#FDBD1D" stroke-width="0" stroke-linecap="round" stroke-linejoin="round" d="M260.9,82.2c-0.2-0.1-0.3-0.3-0.5-0.4" fill="#000000"/><path stroke="#FDBD1D" stroke-width="0" stroke-linecap="round" stroke-linejoin="round" d="M255.9,79.1c0.4,0.2,0.9,0.4,1.3,0.6" fill="#000000"/><path stroke="#FDBD1D" stroke-width="0" stroke-linecap="round" stroke-linejoin="round" d="M257.4,79.7c0.3,0.1,0.5,0.3,0.8,0.4" fill="#000000"/><path stroke="#FDBD1D" stroke-width="0" stroke-linecap="round" stroke-linejoin="round" d="M251.2,77.9c0.1,0,0.3,0,0.4,0" fill="#000000"/><path stroke="#FDBD1D" stroke-width="0" stroke-linecap="round" stroke-linejoin="round" d="M263.3,84.6c0.2,0.3,0.4,0.6,0.7,0.9" fill="#000000"/><path d="M262.2,83.4C262.2,83.4,262.2,83.4,262.2,83.4c0.1,0.1,0.2,0.2,0.3,0.4C262.4,83.6,262.3,83.5,262.2,83.4z"/><path d="M114.1,51.2c-0.4,0.3-0.8,0.6-1.2,0.9C113.3,51.8,113.7,51.5,114.1,51.2L114.1,51.2z"/><path d="M112.9,52.2C112.9,52.2,112.9,52.2,112.9,52.2L112.9,52.2L112.9,52.2C112.9,52.2,112.9,52.2,112.9,52.2z"/><path d="M176.2,54.7C176.2,54.7,176.2,54.7,176.2,54.7C176.2,54.7,176.2,54.7,176.2,54.7c-0.3-0.3-0.5-0.5-0.7-0.8  C175.7,54.3,176,54.5,176.2,54.7C176.2,54.8,176.2,54.8,176.2,54.7z"/><path d="M109.1,55.9c0,0.1-0.1,0.1-0.1,0.2l0,0l0,0C109,56,109,56,109.1,55.9z"/><path d="M110,54.9C110,54.9,110,54.9,110,54.9c-0.3,0.3-0.6,0.7-0.9,1.1C109.4,55.6,109.7,55.2,110,54.9z"/><path d="M108.6,56.5c0,0-0.1,0.1-0.1,0.1c-0.2,0.2-0.4,0.5-0.5,0.7l0,0l0,0C108.1,57.1,108.3,56.8,108.6,56.5z"/><path d="M108.8,56.2c-0.1,0.1-0.2,0.2-0.3,0.4C108.7,56.4,108.7,56.3,108.8,56.2C108.8,56.2,108.8,56.2,108.8,56.2z"/><path d="M111.5,53.4C111.5,53.4,111.5,53.4,111.5,53.4C111.5,53.4,111.5,53.4,111.5,53.4C111.5,53.4,111.5,53.4,111.5,53.4z"/><path d="M111.3,53.6c-0.4,0.3-0.7,0.7-1.1,1.1c0,0,0,0,0,0C110.6,54.3,110.9,53.9,111.3,53.6z"/><path d="M106.4,59.8c-0.1,0.2-0.3,0.4-0.4,0.7l0,0c0,0,0,0,0,0C106.1,60.2,106.2,60,106.4,59.8z"/><path d="M104.4,64c-0.1,0.3-0.2,0.7-0.3,1C104.2,64.7,104.3,64.4,104.4,64L104.4,64z"/><path d="M103.8,65.9c-0.1,0.3-0.1,0.5-0.2,0.8c-0.1,0.3-0.1,0.5-0.2,0.8C103.5,67,103.6,66.5,103.8,65.9L103.8,65.9z"/><path d="M105.8,60.7c-0.1,0.2-0.2,0.5-0.3,0.7C105.6,61.2,105.7,61,105.8,60.7L105.8,60.7z"/><path d="M105.5,61.4C105.5,61.4,105.5,61.5,105.5,61.4c-0.1,0.3-0.3,0.5-0.4,0.7l0,0l0,0C105.3,61.9,105.4,61.7,105.5,61.4z"/><path d="M115.6,50.3L115.6,50.3c-0.4,0.3-0.8,0.5-1.2,0.8l0,0C114.7,50.8,115.2,50.5,115.6,50.3z"/><path d="M105,62.5L105,62.5L105,62.5c0,0.1-0.1,0.2-0.1,0.3c0,0.1-0.1,0.1-0.1,0.2C104.9,62.8,104.9,62.6,105,62.5z"/><path d="M104.5,63.9c0.1-0.3,0.2-0.6,0.3-0.9C104.7,63.3,104.6,63.6,104.5,63.9L104.5,63.9z"/><path d="M106.8,59L106.8,59L106.8,59c0-0.1,0.1-0.1,0.1-0.2C106.9,58.9,106.9,58.9,106.8,59z"/><path d="M107,58.8C107,58.8,107,58.8,107,58.8C106.9,58.8,106.9,58.8,107,58.8C106.9,58.8,107,58.8,107,58.8z"/><path d="M113.6,65C113.6,65,113.6,65,113.6,65C113.6,65,113.6,65,113.6,65c0.1-0.3,0.2-0.6,0.3-0.8C113.6,64.5,113.6,64.7,113.6,65z  "/><path d="M176.9,55.6C176.9,55.6,176.9,55.5,176.9,55.6C176.9,55.5,176.9,55.5,176.9,55.6c-0.2-0.2-0.4-0.4-0.5-0.6  C176.6,55.2,176.8,55.4,176.9,55.6C177,55.6,177,55.6,176.9,55.6z"/><path d="M118.8,48.6c-0.5,0.2-0.9,0.4-1.3,0.6l0,0C117.9,49,118.4,48.8,118.8,48.6L118.8,48.6z"/><path d="M120.3,48c-0.2,0.1-0.3,0.1-0.5,0.2c0.3-0.1,0.5-0.2,0.8-0.3C120.4,47.9,120.4,47.9,120.3,48z"/><path d="M117.2,49.3L117.2,49.3c-0.4,0.2-0.7,0.4-1.1,0.6c-0.1,0.1-0.2,0.1-0.3,0.2c0,0,0,0,0,0l0,0  C116.3,49.9,116.7,49.6,117.2,49.3z"/><path d="M173.7,52.4C173.7,52.4,173.7,52.4,173.7,52.4c-0.1-0.1-0.2-0.2-0.3-0.2c0.4,0.3,0.8,0.6,1.2,1  C174.3,52.9,174,52.7,173.7,52.4z"/><path d="M173.4,52.2L173.4,52.2c-0.1-0.1-0.2-0.2-0.3-0.2c0,0,0,0,0,0C173.2,52,173.3,52.1,173.4,52.2z"/><path d="M173.1,51.9c-0.1-0.1-0.2-0.2-0.3-0.2c0,0,0,0,0,0c-0.3-0.2-0.5-0.4-0.8-0.6c0,0-0.1-0.1-0.1-0.1  C172.3,51.3,172.7,51.6,173.1,51.9z"/><path d="M70.1,90.9c-2.4,0-4.4,2-4.4,4.4v136.6c0,2.4,2,4.4,4.4,4.4c2.4,0,4.4-2,4.4-4.4V95.3C74.5,92.9,72.5,90.9,70.1,90.9z"/><path d="M216.2,90.9c-2.4,0-4.4,2-4.4,4.4v136.6c0,2.4,2,4.4,4.4,4.4c2.4,0,4.4-2,4.4-4.4V95.3C220.6,92.9,218.6,90.9,216.2,90.9z"/><path d="M161.3,179.6c-0.4-2.4-2.6-4.1-5-3.7l-62.2,9.3c-2.4,0.4-4.1,2.6-3.7,5l4.6,31.1c0.2,1.2,0.8,2.2,1.7,2.9  c0.8,0.6,1.7,0.9,2.6,0.9c0.2,0,0.4,0,0.6,0l62.3-9.3c1.2-0.2,2.2-0.8,2.9-1.7c0.7-0.9,1-2.1,0.8-3.3L161.3,179.6z M103.1,215.6  l-3.3-22.4l21.6-3.2l3.3,22.4L103.1,215.6z M133.3,211.1l-3.3-22.4l23.2-3.5l3.3,22.4L133.3,211.1z"/><path d="M203.9,123l-56.6-19.5c-1.1-0.4-2.3-0.3-3.4,0.2c-1,0.5-1.9,1.4-2.2,2.5l-11.2,32.6c-0.4,1.1-0.3,2.3,0.2,3.4  c0.5,1,1.4,1.9,2.5,2.2l56.6,19.5c0.5,0.2,1,0.2,1.4,0.2c1.8,0,3.5-1.1,4.2-3l11.2-32.6C207.4,126.3,206.2,123.8,203.9,123z   M140.3,137.6l-0.1,0l2.7-7.7l5.7-16.6l0,0l10.6,3.7l-0.3,0.7l-8.8,23.4L140.3,137.6z M188.5,154.2l-30-10.3l9-24.1l0,0l29.3,10.1  L188.5,154.2z"/><path d="M249.4,69h-57.4c-2.1-17.7-17.2-31.6-35.4-31.6h-27c-18.3,0-33.4,13.8-35.4,31.6H36.9c-14.5,0-26.3,11.8-26.3,26.3v136.6  c0,14.5,11.8,26.3,26.3,26.3h212.6c14.5,0,26.3-11.8,26.3-26.3V95.3C275.7,80.8,263.9,69,249.4,69z M103.4,67.6  C103.4,67.6,103.4,67.5,103.4,67.6c0.1-0.3,0.1-0.5,0.2-0.8c0.1-0.3,0.1-0.5,0.2-0.8c0-0.1,0.1-0.2,0.1-0.4c0.1-0.2,0.1-0.3,0.2-0.5  c0.1-0.3,0.2-0.7,0.3-1c0-0.1,0.1-0.1,0.1-0.2c0.1-0.4,0.3-0.7,0.4-1.1c0-0.1,0.1-0.2,0.1-0.3l0,0c0-0.1,0.1-0.2,0.1-0.3l0,0  c0.1-0.2,0.2-0.5,0.3-0.7c0.1-0.2,0.2-0.5,0.4-0.7c0-0.1,0.1-0.2,0.1-0.3l0,0c0.1-0.2,0.3-0.4,0.4-0.7c0.1-0.2,0.2-0.4,0.3-0.6  c0-0.1,0.1-0.2,0.1-0.2l0,0c0,0,0,0,0,0c0-0.1,0.1-0.1,0.1-0.2c0,0,0,0,0,0c0.2-0.4,0.5-0.8,0.8-1.1c0.1-0.1,0.1-0.2,0.2-0.3l0,0  c0.2-0.2,0.4-0.5,0.5-0.7c0.1-0.2,0.3-0.3,0.4-0.5c0,0,0.1-0.1,0.1-0.1l0,0c0,0,0,0,0,0c0.3-0.4,0.7-0.8,1.1-1.2  c0.1-0.1,0.2-0.2,0.3-0.3c0.3-0.4,0.7-0.7,1.1-1.1c0,0,0-0.1,0.1-0.1c0,0,0.1-0.1,0.1-0.1c0,0,0,0,0,0c0,0,0,0,0,0  c0.4-0.3,0.7-0.7,1.1-1c0.1-0.1,0.2-0.2,0.3-0.2h0l0,0c0.4-0.3,0.8-0.7,1.3-1c0.1-0.1,0.1-0.1,0.2-0.1c0.4-0.3,0.8-0.5,1.2-0.8  c0.1-0.1,0.2-0.1,0.3-0.2c0,0,0,0,0,0c0.1-0.1,0.2-0.1,0.3-0.2c0.4-0.2,0.7-0.4,1.1-0.6c0.1-0.1,0.2-0.1,0.3-0.2  c0.4-0.2,0.9-0.4,1.3-0.6c0.1,0,0.1-0.1,0.2-0.1c0.2-0.1,0.5-0.2,0.8-0.3c0.2-0.1,0.3-0.1,0.5-0.2c0.1,0,0.2-0.1,0.2-0.1  c0.1,0,0.1,0,0.2-0.1c0.6-0.2,1.2-0.4,1.8-0.6c0.4-0.1,0.8-0.2,1.2-0.3c0.8-0.2,1.6-0.3,2.4-0.4c1.2-0.2,2.4-0.3,3.7-0.3h27  c0.5,0,1,0,1.5,0c0.1,0,0.3,0,0.4,0c0.4,0,0.8,0.1,1.1,0.1c0.1,0,0.3,0,0.4,0c0.5,0.1,1,0.1,1.5,0.2c0,0,0.1,0,0.1,0  c0.4,0.1,0.9,0.2,1.3,0.3c0.1,0,0.2,0.1,0.4,0.1c0.4,0.1,0.8,0.2,1.1,0.3c0.1,0,0.2,0.1,0.3,0.1c0.5,0.2,0.9,0.3,1.4,0.5  c0,0,0.1,0,0.1,0c0.4,0.2,0.9,0.3,1.3,0.5c0.1,0,0.2,0.1,0.3,0.1c0.4,0.2,0.8,0.4,1.2,0.6c0,0,0.1,0,0.1,0c0.5,0.2,0.9,0.5,1.3,0.8  c0,0,0,0,0,0c0.4,0.3,0.8,0.5,1.2,0.8c0,0,0.1,0.1,0.1,0.1c0,0,0.1,0.1,0.1,0.1c0.3,0.2,0.5,0.4,0.8,0.6c0,0,0,0,0,0  c0.1,0.1,0.2,0.2,0.3,0.2c0.1,0.1,0.2,0.2,0.3,0.2c0.1,0.1,0.2,0.2,0.3,0.2c0,0,0,0,0,0c0.3,0.2,0.6,0.5,0.9,0.7l0,0  c0.3,0.3,0.6,0.5,0.8,0.8c0,0,0,0,0,0c0.2,0.2,0.5,0.5,0.7,0.7c0,0,0,0,0,0c0,0,0,0,0,0c0,0,0,0,0,0c0.1,0.1,0.1,0.1,0.2,0.2  c0.1,0.2,0.3,0.3,0.4,0.5c0,0,0,0,0,0c0,0,0,0,0,0.1c0,0,0,0,0,0.1c0.1,0.1,0.2,0.2,0.2,0.3c0.2,0.2,0.3,0.4,0.5,0.6  c0.1,0.1,0.2,0.2,0.2,0.3c0.2,0.2,0.3,0.4,0.5,0.6c0,0,0.1,0.1,0.1,0.1c0.7,1,1.3,2,1.9,3c0,0.1,0.1,0.1,0.1,0.2  c0.1,0.2,0.2,0.4,0.3,0.7c0.1,0.1,0.1,0.2,0.2,0.3c0.1,0.2,0.2,0.4,0.3,0.6c0.1,0.1,0.1,0.3,0.2,0.4c0.1,0.2,0.2,0.4,0.2,0.6  c0.1,0.2,0.1,0.3,0.2,0.5c0.1,0.2,0.1,0.4,0.2,0.5c0.1,0.2,0.1,0.4,0.2,0.5c0.1,0.2,0.1,0.3,0.2,0.5c0.1,0.2,0.1,0.4,0.2,0.6  c0,0.2,0.1,0.3,0.1,0.5c0.1,0.2,0.1,0.5,0.2,0.7c0,0.1,0.1,0.3,0.1,0.4c0.1,0.4,0.2,0.7,0.2,1.1h-9.6c-0.1-0.6-0.2-1.2-0.3-1.8  c0,0,0,0,0,0c-0.1-0.6-0.3-1.1-0.4-1.6c0,0,0,0,0-0.1c-0.2-0.5-0.3-1-0.5-1.5c0,0,0-0.1,0-0.1c-0.2-0.5-0.4-1-0.6-1.4  c0,0,0-0.1,0-0.1c-0.2-0.5-0.4-0.9-0.7-1.3c0,0,0-0.1,0-0.1c-0.2-0.4-0.5-0.8-0.8-1.2c0,0,0-0.1-0.1-0.1c-0.3-0.4-0.6-0.8-0.9-1.1  c0,0,0,0-0.1-0.1c-0.3-0.4-0.6-0.7-1-1c0,0,0,0-0.1-0.1c-0.3-0.3-0.7-0.6-1.1-0.9c0,0,0,0-0.1,0c-0.4-0.3-0.8-0.6-1.2-0.8  c0,0,0,0,0,0c-0.4-0.3-0.8-0.5-1.2-0.7c0,0,0,0,0,0c-0.4-0.2-0.9-0.4-1.3-0.6c0,0,0,0,0,0c-0.5-0.2-0.9-0.4-1.4-0.5c0,0,0,0,0,0  c-0.5-0.1-1-0.3-1.5-0.4c0,0,0,0,0,0c-0.5-0.1-1-0.2-1.6-0.2c0,0,0,0,0,0c-0.5-0.1-1.1-0.1-1.7-0.1c-0.2,0-0.4,0-0.6,0h-26.5  c-0.4,0-0.9,0-1.3,0c-0.1,0-0.2,0-0.2,0c-0.4,0-0.8,0.1-1.2,0.1c-0.1,0-0.1,0-0.2,0c-0.4,0.1-0.8,0.1-1.2,0.2c0,0,0,0,0,0  c-0.4,0.1-0.8,0.2-1.2,0.3c-0.1,0-0.1,0-0.2,0.1c-0.4,0.1-0.7,0.2-1.1,0.4c-0.1,0-0.1,0-0.2,0.1c-0.7,0.3-1.4,0.7-2.1,1.1  c0,0-0.1,0-0.1,0.1c-0.3,0.2-0.6,0.4-1,0.6c0,0-0.1,0.1-0.1,0.1c-0.6,0.5-1.3,1-1.8,1.6c0,0,0,0-0.1,0.1c-0.3,0.3-0.6,0.6-0.8,0.9  c0,0,0,0.1-0.1,0.1c-0.5,0.6-1,1.3-1.5,2.1c0,0,0,0,0,0c-0.2,0.4-0.4,0.8-0.6,1.1c0,0,0,0,0,0.1c-0.4,0.8-0.8,1.7-1.1,2.6  c-0.1,0.2-0.2,0.5-0.2,0.8c0,0,0,0,0,0.1c0,0,0,0,0,0c-0.4,1.2-0.6,2.4-0.8,3.7h-9.6C103.2,68.4,103.3,68,103.4,67.6z M164.7,69  h-43.1c0.7-3.8,2.8-7.7,8.3-7.7h26.5C161.9,61.3,164,65.2,164.7,69z M19.4,95.3c0-9.6,7.8-17.5,17.5-17.5h5l-22.5,22.5V95.3z   M266.9,163.5l-23,3.2c-1.1,0.2-2.1,0.7-2.8,1.6s-1,2-0.8,3.1l3.6,24c0.2,1.1,0.8,2.1,1.7,2.8c0.7,0.5,1.6,0.8,2.5,0.8  c0.2,0,0.4,0,0.7-0.1l18.2-2.9v35.7c0,9.6-7.8,17.5-17.5,17.5H43.2h-6.3c-9.6,0-17.5-7.8-17.5-17.5v-7.8v-9.3v-30.8v-69.5l36.8-36.8  h174.2l36.5,36.5V163.5z M266.1,187.8l-14.5,2.3l-2.3-15.6l16.7-2.3L266.1,187.8z M266.9,100l-22.2-22.2h4.7c0.4,0,0.7,0,1.1,0  c0.1,0,0.2,0,0.3,0c0.1,0,0.3,0,0.4,0c0.1,0,0.3,0,0.4,0c0.1,0,0.2,0,0.3,0c0.7,0.1,1.4,0.2,2.1,0.4c0.1,0,0.2,0,0.3,0.1  c0.3,0.1,0.5,0.2,0.8,0.2c0.1,0,0.2,0.1,0.2,0.1c0.2,0.1,0.4,0.2,0.7,0.3c0.4,0.2,0.9,0.4,1.3,0.6c0.1,0,0.1,0.1,0.2,0.1  c0.3,0.1,0.5,0.3,0.8,0.4c0,0,0.1,0.1,0.1,0.1c0.6,0.4,1.2,0.8,1.8,1.2c0,0,0.1,0,0.1,0.1c0.1,0.1,0.2,0.1,0.3,0.2  c0.2,0.1,0.4,0.3,0.5,0.4c0,0,0,0,0.1,0c0.4,0.4,0.8,0.8,1.2,1.2c0,0,0,0,0,0c0.1,0.1,0.2,0.2,0.3,0.4c0,0,0,0,0,0  c0.2,0.3,0.5,0.6,0.7,0.8c0,0,0,0,0,0c0.2,0.3,0.4,0.6,0.7,0.9c0.2,0.3,0.4,0.6,0.6,0.9l0,0c1.5,2.6,2.4,5.6,2.4,8.8V100z"/></svg>