<?xml version="1.0" standalone="no"?>
<!DOCTYPE svg PUBLIC "-//W3C//DTD SVG 1.1//EN" "http://www.w3.org/Graphics/SVG/1.1/DTD/svg11.dtd" >
<svg>
<metadata>
Created by FontForge 20090914 at Tue Mar 15 10:34:56 2016
 By www-data
Copyright (c) 2007 by Blue Vinyl Fonts. All rights reserved.
</metadata>
<defs>
<font id="LearningCurve" horiz-adv-x="316" >
  <font-face 
    font-family="Learning Curve"
    font-weight="400"
    font-stretch="normal"
    units-per-em="1000"
    panose-1="2 0 0 0 0 0 0 0 0 0"
    ascent="750"
    descent="-250"
    x-height="297.004"
    cap-height="603"
    bbox="-198.338 -256.497 952.114 739.148"
    underline-thickness="50"
    underline-position="-50"
    unicode-range="U+0020-U+FB02"
  />
<missing-glyph horiz-adv-x="437" 
d="M24 632h390v-624h-390v624zM372 32l-23.5 39l-36 61.5l-45 77.5l-50.5 87l-155 -265h310zM386 586l-26 -45.5l-36.5 -62l-43.5 -74l-47 -79.5l153 -267v528zM200 325l-44.999 76.5l-41.5 71l-35.5 61c-10.667 18.333 -19.334 33.833 -26.001 46.5v-515zM71.001 609
l146 -255l146 255h-292z" />
    <glyph glyph-name="fi" unicode="fi" horiz-adv-x="360" 
d="M428 178c4 -3.33301 5.16406 -6.83203 3.49707 -10.499s-3.5 -7.16699 -5.5 -10.5l-18 -20l-26 -30c-8.66699 -10 -17.667 -19.667 -27 -29c-7.33301 -7.33301 -14.666 -14.166 -21.999 -20.499s-15.333 -12.166 -24 -17.499c-6 -3.33301 -12.833 -6.33301 -20.5 -9
s-14.834 -2.33398 -21.501 0.999023c-5.33301 2.66699 -9 6.5 -11 11.5s-3.33301 10.167 -4 15.5c-1.33301 11.333 -0.666016 22.333 2.00098 33s5.66699 21 9 31c5.33301 15.333 11.166 30.333 17.499 45s13.166 29.667 20.499 45l-45 -53l-5 -4c-10 -12 -20 -23 -30 -33
c-9.33301 -9.33301 -19.333 -18.166 -30 -26.499s-22 -15.5 -34 -21.5c-21.333 -12 -43 -18.333 -65 -19c-3.33301 -0.666992 -6.33301 -1 -9 -1h-9c-4 0 -7 0.333008 -9 1c-0.666992 -0.666992 -1 -2 -1 -4c-1.33301 -5.33301 -1.66602 -11 -0.999023 -17
s1.33398 -11.667 2.00098 -17c2 -15.333 4.16699 -31 6.5 -47s4 -32 5 -48s1 -31.833 0 -47.5s-3.83301 -31.167 -8.5 -46.5c-6 -19.333 -16 -37 -30 -53s-31.667 -24.333 -53 -25c-12.667 0 -23.667 3.5 -33 10.5s-15.666 16.5 -18.999 28.5
c-2 9.33301 -2.16699 18.833 -0.5 28.5s3.5 19.167 5.5 28.5c6 25.333 13.833 50.333 23.5 75l29.5 74l71 163c-5.33301 -0.666992 -9 1.33301 -11 6s-1.33301 9 2 13l10 11l12 12c1.33301 2.66699 3.16602 5 5.49902 7s4.16602 4.66699 5.49902 8c4 8 8.33301 17.333 13 28
l15 36l41 100.5l42 100.5l16 37.5l16 37.5c5.33301 11.333 12 21.666 20 30.999s18.333 15.666 31 18.999c9.33301 3.33301 18.833 3.66602 28.5 0.999023s17.834 -8 24.501 -16c8 -9.33301 12 -20.333 12 -33s-1.66699 -24.667 -5 -36
c-6.66699 -19.333 -15.5 -37.833 -26.5 -55.5s-22.5 -34.834 -34.5 -51.501c-14.667 -20.667 -29.834 -41 -45.501 -61l-47.5 -60l-46 -53l-21 -24l-9 -10c-4 -4.66699 -6.66699 -9 -8 -13l-27.5 -63l-27.5 -63c2 4.66699 5.33301 7.33398 10 8.00098s9.33398 1 14.001 1h12
c4 0 8.33301 0.333008 13 1c15.333 2 31 6.66699 47 14c19.333 9.33301 36.833 21.833 52.5 37.5s30.167 31.5 43.5 47.5c2 2 3.33301 3 4 3l11 13l68 78l22 26c3.33301 4.66699 7.33301 6.66699 12 6c3.33301 -1.33301 5.83301 -3.33301 7.5 -6
s1.83398 -5.66699 0.500977 -9c-0.666992 -2 -1.5 -4 -2.5 -6s-2.16699 -4 -3.5 -6l-32.5 -64c-10.333 -21.333 -20.166 -43.333 -29.499 -66c-4 -9.33301 -7.66699 -18.833 -11 -28.5s-6.33301 -19.5 -9 -29.5c-2 -8.66699 -2.66699 -16.667 -2 -24
c0 -1.33301 0.166992 -3.66602 0.5 -6.99902s1.5 -5 3.5 -5c2.66699 -0.666992 5.5 -0.333984 8.5 0.999023s5.5 2.66602 7.5 3.99902c8 4.66699 16 10.334 24 17.001c8 7.33301 15.5 14.666 22.5 21.999l21.5 22c13.333 14.667 26 29.334 38 44.001
c3.33301 3.33301 7.5 8 12.5 14s10.167 6.66699 15.5 2zM132.997 267.001l55.499 66.4961c18.333 22.333 36.166 45.166 53.499 68.499l23.5 32.5l22.5 33.5l15.5 27.5c5 9 9.5 18.5 13.5 28.5c2 4.66699 3.66699 9.83398 5 15.501s1.83301 11.5 1.5 17.5
s-1.66602 11.333 -3.99902 16s-6.5 8.33398 -12.5 11.001c-10 4.66699 -19.667 3.66699 -29 -3s-16.666 -14 -21.999 -22c-3.33301 -5.33301 -6.33301 -11.166 -9 -17.499l-8 -18.5l-16 -38c-6.66699 -15.333 -13 -30.666 -19 -45.999s-12.333 -30.666 -19 -45.999z
M53.9961 -112.003c0.666992 15.333 0.166992 30.6689 -1.5 46.002s-3.5 30.666 -5.5 45.999c-1.33301 7.33301 -2.33301 14.5 -3 21.5l-2 21.5c-2 11.333 -2 23 0 35l-25.5 -58.5c-8.33301 -19.667 -16.166 -39.5 -23.499 -59.5l-17.5 -46
c-5.66699 -15.333 -10.5 -30.666 -14.5 -45.999c-1.33301 -4.66699 -2.33301 -9.33398 -3 -14.001s-1.33398 -9.66699 -2.00098 -15c-1.33301 -5.33301 -2 -10.5 -2 -15.5s1.33301 -10.167 4 -15.5c4 -8 10.333 -12.5 19 -13.5s16.667 0.166992 24 3.5
c10 4 18.5 10.167 25.5 18.5s12.5 17.666 16.5 27.999s6.83301 21 8.5 32s2.5 21.5 2.5 31.5zM403.996 437c-5.33301 2.66699 -8.33301 7 -9 13s0.333008 11.5 3 16.5s6.5 8.83301 11.5 11.5s10.167 2.66699 15.5 0c5.33301 -3.33301 8.33301 -7.83301 9 -13.5
s-0.333008 -11 -3 -16s-6.5 -8.83301 -11.5 -11.5s-10.167 -2.66699 -15.5 0z" />
    <glyph glyph-name="fl" unicode="fl" horiz-adv-x="386" 
d="M516 603c11.333 -5.33301 17.334 -14.8311 18.001 -28.498s-1 -25.5 -5 -35.5c-3.33301 -8.66699 -7.16602 -17 -11.499 -25s-8.83301 -15.667 -13.5 -23c-11.333 -19.333 -23.5 -38 -36.5 -56l-39.5 -54l-50 -67l-51 -66c-2.66699 -2.66699 -5 -6 -7 -10l-4 -12l-9 -24
c-6 -16.667 -11 -32 -15 -46c-4 -13.333 -7 -26.333 -9 -39c-1.33301 -7.33301 -2 -14.833 -2 -22.5s1.66699 -15.167 5 -22.5c4.66699 -11.333 12.334 -15.5 23.001 -12.5s21.834 9.16699 33.501 18.5s22.5 19.333 32.5 30s16.667 18 20 22l31 34
c2 2 4.16699 4.66699 6.5 8s5 6.16602 8 8.49902s6 3.83301 9 4.5s5.83301 -0.666016 8.5 -3.99902s3.33398 -6.5 2.00098 -9.5s-3 -5.83301 -5 -8.5c-3.33301 -3.33301 -6.33301 -6.66602 -9 -9.99902l-8 -10l-33 -35l-26.5 -27.5c-9 -9 -18.5 -17.167 -28.5 -24.5
c-7.33301 -5.33301 -14.666 -10 -21.999 -14s-15.666 -5.66699 -24.999 -5c-15.333 0 -26.333 6 -33 18s-10.334 24.667 -11.001 38c-0.666992 16 1.16602 32 5.49902 48s9.16602 31.667 14.499 47c-3.33301 -4 -6.5 -8 -9.5 -12s-6.16699 -8 -9.5 -12
c-1.33301 -1.33301 -3.33301 -2.66602 -6 -3.99902c-5.33301 -6.66699 -10.833 -13.167 -16.5 -19.5s-11.167 -12.166 -16.5 -17.499c-9.33301 -9.33301 -19.333 -18.166 -30 -26.499s-22 -15.5 -34 -21.5c-21.333 -12 -43 -18.333 -65 -19
c-3.33301 -0.666992 -6.33301 -1 -9 -1h-9c-4 0 -7 0.333008 -9 1c-0.666992 -0.666992 -1 -2 -1 -4c-1.33301 -5.33301 -1.66602 -11 -0.999023 -17s1.33398 -11.667 2.00098 -17c2 -15.333 4.16699 -31 6.5 -47s4 -32 5 -48s1 -31.833 0 -47.5
s-3.83301 -31.167 -8.5 -46.5c-6 -19.333 -16 -37 -30 -53s-31.667 -24.333 -53 -25c-12.667 0 -23.667 3.5 -33 10.5s-15.666 16.5 -18.999 28.5c-2 9.33301 -2.16699 18.833 -0.5 28.5s3.5 19.167 5.5 28.5c6 25.333 13.833 50.333 23.5 75l29.5 74l71 163
c-5.33301 -0.666992 -9 1.33301 -11 6s-1.33301 9 2 13l10 11l12 12c1.33301 2.66699 3.16602 5 5.49902 7s4.16602 4.66699 5.49902 8c4 8 8.33301 17.333 13 28l15 36l41 100.5l42 100.5l16 37.5l16 37.5c5.33301 11.333 12 21.666 20 30.999s18.333 15.666 31 18.999
c9.33301 3.33301 18.833 3.66602 28.5 0.999023s17.834 -8 24.501 -16c8 -9.33301 12 -20.333 12 -33s-1.66699 -24.667 -5 -36c-6.66699 -19.333 -15.5 -37.833 -26.5 -55.5s-22.5 -34.834 -34.5 -51.501c-14.667 -20.667 -29.834 -41 -45.501 -61l-47.5 -60l-46 -53
l-21 -24l-9 -10c-4 -4.66699 -6.66699 -9 -8 -13l-27.5 -63l-27.5 -63c2 4.66699 5.33301 7.33398 10 8.00098s9.33398 1 14.001 1h12c4 0 8.33301 0.333008 13 1c15.333 2 31 6.66699 47 14c19.333 9.33301 36.833 21.833 52.5 37.5s30.167 31.5 43.5 47.5l3 3
c2 2.66699 4.33301 5.16699 7 7.5s4.66699 4.5 6 6.5l24 31c3.33301 3.33301 6.16602 6.66602 8.49902 9.99902s5.16602 6.66602 8.49902 9.99902c1.33301 1.33301 2.66602 3 3.99902 5s2.33301 4 3 6c1.33301 1.33301 2.16602 3 2.49902 5s1.16602 4 2.49902 6l13.5 35.5
c4.33301 11.667 9.16602 23.167 14.499 34.5l21.5 54c7 18 14.5 35.667 22.5 53c5.33301 12 11 24 17 36l18 36c5.33301 10.667 11.166 21.167 17.499 31.5s13.5 20.166 21.5 29.499c6.66699 8.66699 15.834 16.667 27.501 24s23.167 8 34.5 2zM133.001 267.002
l55.499 66.4961c18.333 22.333 36.166 45.166 53.499 68.499l23.5 32.5l22.5 33.5l15.5 27.5c5 9 9.5 18.5 13.5 28.5c2 4.66699 3.66699 9.83398 5 15.501s1.83301 11.5 1.5 17.5s-1.66602 11.333 -3.99902 16s-6.5 8.33398 -12.5 11.001
c-10 4.66699 -19.667 3.66699 -29 -3s-16.666 -14 -21.999 -22c-3.33301 -5.33301 -6.33301 -11.166 -9 -17.499l-8 -18.5l-16 -38c-6.66699 -15.333 -13 -30.666 -19 -45.999s-12.333 -30.666 -19 -45.999zM54 -112.002c0.666992 15.333 0.166992 30.6689 -1.5 46.002
s-3.5 30.666 -5.5 45.999c-1.33301 7.33301 -2.33301 14.5 -3 21.5l-2 21.5c-2 11.333 -2 23 0 35l-25.5 -58.5c-8.33301 -19.667 -16.166 -39.5 -23.499 -59.5l-17.5 -46c-5.66699 -15.333 -10.5 -30.666 -14.5 -45.999c-1.33301 -4.66699 -2.33301 -9.33398 -3 -14.001
s-1.33398 -9.66699 -2.00098 -15c-1.33301 -5.33301 -2 -10.5 -2 -15.5s1.33301 -10.167 4 -15.5c4 -8 10.333 -12.5 19 -13.5s16.667 0.166992 24 3.5c10 4 18.5 10.167 25.5 18.5s12.5 17.666 16.5 27.999s6.83301 21 8.5 32s2.5 21.5 2.5 31.5zM505 539.001
c2.66699 5.33301 4.99902 12.334 6.99902 21.001s0.666992 15.667 -4 21c-1.33301 2 -3.33301 3 -6 3s-5 -0.333008 -7 -1c-9.33301 -4 -17.333 -10.5 -24 -19.5s-12.667 -17.833 -18 -26.5c-6 -9.33301 -11.5 -18.833 -16.5 -28.5s-9.83301 -19.5 -14.5 -29.5l-21 -43.5
c-6.66699 -14.333 -13 -28.833 -19 -43.5l-30 -75l46 61.5l45 61.5l33 48.5c10.667 16.333 20.334 33.166 29.001 50.499z" />
    <glyph glyph-name=".notdef" horiz-adv-x="437" 
d="M24 632h390v-624h-390v624zM372 32l-23.5 39l-36 61.5l-45 77.5l-50.5 87l-155 -265h310zM386 586l-26 -45.5l-36.5 -62l-43.5 -74l-47 -79.5l153 -267v528zM200 325l-44.999 76.5l-41.5 71l-35.5 61c-10.667 18.333 -19.334 33.833 -26.001 46.5v-515zM71.001 609
l146 -255l146 255h-292z" />
    <glyph glyph-name="space" unicode=" " horiz-adv-x="266" 
 />
    <glyph glyph-name="exclam" unicode="!" horiz-adv-x="500" 
d="M367 598c6 -2.66699 8.16504 -6.66797 6.49805 -12.001s-3.5 -10 -5.5 -14l-8 -19.5c-2.66699 -6.33301 -5.66699 -12.833 -9 -19.5l-81 -191l-57 -131c-1.33301 -4 -3.66602 -6.33301 -6.99902 -7c-4.66699 -2 -8.66699 -1.16699 -12 2.5s-4 7.83398 -2 12.501l5 11
l27 64l84 196l33 76l9 21c1.33301 3.33301 3.33301 6.5 6 9.5s6.33398 3.5 11.001 1.5zM161.998 61.999c0 -5.33301 -1.66699 -9.66602 -5 -12.999s-7.66602 -5 -12.999 -5s-9.83301 1.66699 -13.5 5s-5.5 7.66602 -5.5 12.999c0 12.667 6.33301 19 19 19
c5.33301 0 9.66602 -1.83301 12.999 -5.5s5 -8.16699 5 -13.5z" />
    <glyph glyph-name="quotedbl" unicode="&#x22;" horiz-adv-x="210" 
d="M277 619c3.33301 -1.33301 5.33105 -3.5 5.99805 -6.5s0.333984 -5.83301 -0.999023 -8.5c0 -1.33301 -0.333008 -2.33301 -1 -3l-11 -24c-3.33301 -5.33301 -6.16602 -11 -8.49902 -17s-5.16602 -12 -8.49902 -18l-14 -30l-4 -8l-1 -1
c-0.666992 -3.33301 -3.33398 -5.66602 -8.00098 -6.99902c-5.33301 0 -9.33301 2 -12 6c-2 3.33301 -2 6.66602 0 9.99902l2 5l12 26l17 35l14 29l3 6c1.33301 2 2.33301 3.33301 3 4c3.33301 3.33301 7.33301 4 12 2zM339.998 619
c2.66699 -1.33301 4.50293 -3.50098 5.50293 -6.50098s0.833008 -5.83301 -0.5 -8.5c-0.666992 -0.666992 -1 -1.66699 -1 -3l-12 -24l-16 -35l-19 -38v-1c-2 -3.33301 -4.66699 -5.66602 -8 -6.99902c-6 0 -10 2 -12 6c-2 2.66699 -2.33301 6 -1 10l3 5l12 26
c3.33301 6 6.16602 12 8.49902 18s5.16602 11.667 8.49902 17l13 29l3 6l3 4c3.33301 3.33301 7.66602 4 12.999 2z" />
    <glyph glyph-name="numbersign" unicode="#" horiz-adv-x="483" 
d="M438 479c4 0 7.16309 -1.66992 9.49609 -5.00293s2.83301 -6.66602 1.5 -9.99902c-1.33301 -4 -4.33301 -6.66699 -9 -8h-89c-0.666992 0 -1 -0.333008 -1 -1v-1l-9 -21l-15 -33l-16 -36l-13 -29c-1.33301 -1.33301 -2.16602 -3 -2.49902 -5s-1.16602 -4 -2.49902 -6h79
c5.33301 -1.33301 8.33301 -4.33301 9 -9c1.33301 -3.33301 0.833008 -6.5 -1.5 -9.5s-5.5 -4.5 -9.5 -4.5h-87l-1 -1l-3 -7l-12 -27c-2.66699 -6 -5.16699 -12 -7.5 -18s-5.16602 -12 -8.49902 -18l-15 -33l-9 -22c-0.666992 -0.666992 -1 -1.33398 -1 -2.00098
s-0.666992 -1.66699 -2 -3c-4 -4 -8 -5 -12 -3c-4 1.33301 -6.66699 4.33301 -8 9c0 2.66699 0.666992 5.33398 2 8.00098l4 8l13 30l16 36c2 5.33301 4.16699 10.333 6.5 15l7.5 15c0.666992 3.33301 2.33398 7.66602 5.00098 12.999h-130l-1 -1l-3 -7l-12 -27
c-2.66699 -6 -5.16699 -12 -7.5 -18s-5.16602 -12 -8.49902 -18l-15 -33l-9 -22c-0.666992 -0.666992 -1 -1.33398 -1 -2.00098s-0.666992 -1.66699 -2 -3c-4 -4 -8 -5 -12 -3c-4 1.33301 -6.66699 4.33301 -8 9c0 2.66699 0.666992 5.33398 2 8.00098l4 8l13 30l16 36
c2 5.33301 4.16699 10.333 6.5 15l7.5 15c0.666992 3.33301 2.33398 7.66602 5.00098 12.999h-77c-4 0 -7.16699 1.5 -9.5 4.5s-2.83301 6.5 -1.5 10.5s4.33301 6.66699 9 8h89l1 1v1l9 21l15 33l16 36l13 28l5 12h-79c-4.66699 1.33301 -7.66699 4 -9 8
s-0.833008 7.5 1.5 10.5s5.5 4.5 9.5 4.5h87l1 1l3 7l12 27c2.66699 6 5.16699 12 7.5 18s5.16602 12 8.49902 18l15 33l9 21c0.666992 1.33301 1 2.33301 1 3s0.666992 1.66699 2 3c4 4 8 5 12 3c4 -1.33301 6.66699 -4.66602 8 -9.99902c0 -2 -0.666992 -4.33301 -2 -7
c-1.33301 -2 -2.66602 -5 -3.99902 -9l-13 -29l-16 -36c-2 -5.33301 -4.16699 -10.333 -6.5 -15l-7.5 -15c-0.666992 -3.33301 -2.33398 -7.66602 -5.00098 -12.999h130l1 1l3 7l12 27c2.66699 6 5.16699 12 7.5 18s5.16602 12 8.49902 18l15 33l9 21
c0.666992 1.33301 1 2.33301 1 3s0.666992 1.66699 2 3c4 4 8 5 12 3c4 -1.33301 6.66699 -4.66602 8 -9.99902c0 -2 -0.666992 -4.33301 -2 -7c-1.33301 -2 -2.66602 -5 -3.99902 -9l-13 -29l-16 -36l-14 -30c-0.666992 -3.33301 -2.33398 -7.66602 -5.00098 -12.999h77z
M266.996 323.997c0.666992 0.666992 0.998047 1.33301 0.998047 2l9 21l15 33l16 36l13 28l5 12h-130l-1 -2l-9 -21l-15 -33l-16 -36l-13 -29c-1.33301 -1.33301 -2.16602 -3 -2.49902 -5s-1.16602 -4 -2.49902 -6h130z" />
    <glyph glyph-name="dollar" unicode="$" horiz-adv-x="312" 
d="M240 551c14 -8 25.0068 -18.999 33.0068 -32.999c3.33301 -5.33301 6.16602 -11.166 8.49902 -17.499s4.16602 -13.166 5.49902 -20.499c1.33301 -4 1.66602 -7 0.999023 -9c-1.33301 -5.33301 -4.33301 -8 -9 -8c-4.66699 -0.666992 -8.66699 1 -12 5l-2 7
c0 1.33301 -0.166992 2.5 -0.5 3.5s-0.5 2.16699 -0.5 3.5c-1.33301 4.66699 -2.83301 9.16699 -4.5 13.5s-3.83398 8.83301 -6.50098 13.5c-5.33301 8 -12.333 15.333 -21 22c-0.666992 0 -1 -0.333008 -1 -1c-2.66699 -4.66699 -4.33398 -9.33398 -5.00098 -14.001
l-13 -29l-15 -37l-14 -34l-10 -24c-1.33301 -2.66699 -2 -4.66699 -2 -6c-0.666992 0 -0.666992 -0.333008 0 -1l12 -15c7.33301 -8 14.166 -16.333 20.499 -25s11.833 -17.667 16.5 -27c8.66699 -16 12 -31.667 10 -47c-0.666992 -8.66699 -3 -16.667 -7 -24l-6.5 -10.5
c-2.33301 -3.66699 -5.16602 -6.83398 -8.49902 -9.50098c-6.66699 -6 -14.167 -10.5 -22.5 -13.5s-16.833 -5.16699 -25.5 -6.5c-18.667 -3.33301 -37 -2.33301 -55 3c-1.33301 0 -3.33301 0.666992 -6 2c-0.666992 0 -1 -0.333008 -1 -1
c-1.33301 -2.66699 -2 -4.33398 -2 -5.00098l-8 -18c0 -1.33301 -0.666992 -3.33301 -2 -6l-3 -5c-3.33301 -4.66699 -7.33301 -5.66699 -12 -3c-4 1.33301 -6.66699 4.66602 -8 9.99902c0 1.33301 0.666992 3.33301 2 6s2 4.66699 2 6l8 18
c0 0.666992 0.666992 2.33398 2 5.00098v1l-7 4c-9.33301 6 -16.666 12 -21.999 18c-13.333 13.333 -20 29.666 -20 48.999c0 2.66699 0.333008 4.66699 1 6c1.33301 2.66699 2.66602 4.66699 3.99902 6c5.33301 2.66699 9.66602 2.66699 12.999 0
c1.33301 -0.666992 2.66602 -2.33398 3.99902 -5.00098c0.666992 -1.33301 1 -3.33301 1 -6c0 -6.66699 0.666992 -11.667 2 -15c2.66699 -8.66699 7 -15.834 13 -21.501s12.667 -10.5 20 -14.5c0 0.666992 0.333008 1.33398 1 2.00098l9 21l13 33l15 36l13 31l3.5 8.5
c1 2.33301 2.16699 4.83301 3.5 7.5c0 0.666992 -0.333008 1.33398 -1 2.00098l-12 14c-3.33301 3.33301 -6.66602 7 -9.99902 11s-6.33301 8.33301 -9 13c-12 17.333 -18.667 36.666 -20 57.999c0 20.667 6 39 18 55c6 7.33301 13.167 13.833 21.5 19.5
s17.166 9.83398 26.499 12.501c10 2 19.667 2.66699 29 2c6 0 12 -1 18 -3c1.33301 0 4 -0.666992 8 -2l6 -1c1.33301 4.66699 3 9.16699 5 13.5l6 13.5c2 4.66699 3.66699 9 5 13c1.33301 2.66699 2.66602 4.33398 3.99902 5.00098c4 2.66699 8.33301 3 13 1
c4.66699 -2.66699 6.33398 -6.33398 5.00098 -11.001c0 -1.33301 -0.166992 -2.16602 -0.5 -2.49902s-0.5 -0.833008 -0.5 -1.5l-6 -14zM200.007 251.001c4.66699 6.66699 7.33105 13.332 7.99805 19.999c1.33301 7.33301 1.16602 14.333 -0.500977 21s-4.16699 13 -7.5 19
c-2.66699 4 -5.16699 8 -7.5 12s-5.16602 7.66699 -8.49902 11c-3.33301 5.33301 -7 10.166 -11 14.499s-7.66699 8.83301 -11 13.5l-1 -1l-7 -18c-2.66699 -5.33301 -5 -10.666 -7 -15.999s-4.33301 -10.666 -7 -15.999l-15 -36l-12 -30l-5 -12
c14.667 -4.66699 30.334 -6 47.001 -4c4.66699 0.666992 9.33398 1.5 14.001 2.5s9 2.5 13 4.5c8 3.33301 14 8.33301 18 15zM155.004 403.999c0 0.666992 0.167969 1.16992 0.500977 1.50293s0.5 1.16602 0.5 2.49902l9 21l14 34l15 36l12 29l5 12
c-3.33301 1.33301 -6.5 2.16602 -9.5 2.49902s-6.16699 0.833008 -9.5 1.5s-6.5 1 -9.5 1h-9.5c-20.667 -2 -36.334 -12.333 -47.001 -31c-6 -9.33301 -9.33301 -18.333 -10 -27c-1.33301 -10 -0.333008 -19.667 3 -29c3.33301 -10.667 8.33301 -20.334 15 -29.001
c3.33301 -4.66699 6.83301 -9 10.5 -13z" />
    <glyph glyph-name="percent" unicode="%" horiz-adv-x="470" 
d="M406 603c-1.33301 -2 -2.67285 -4.32812 -4.00586 -6.99512l-6 -11l-9 -16l-12 -20l-13 -23l-15 -27c-3.33301 -4.66699 -6.16602 -9.33398 -8.49902 -14.001s-5.16602 -9.66699 -8.49902 -15s-6.33301 -10.5 -9 -15.5l-8 -15.5
c-3.33301 -5.33301 -6.5 -10.833 -9.5 -16.5s-6.16699 -11.167 -9.5 -16.5l-20 -33l-19 -35l-10 -17.5l-10 -17.5l-20 -34c-3.33301 -5.33301 -6.5 -10.833 -9.5 -16.5l-9.5 -17.5l-18 -32l-18 -30l-16 -29l-14 -25c-2.66699 -3.33301 -5 -7 -7 -11s-4 -7.66699 -6 -11
l-11 -19c-1.33301 -2.66699 -2.66602 -5 -3.99902 -7s-2.66602 -4.33301 -3.99902 -7l-5 -10l-3 -4c-2.66699 -4 -6 -6 -10 -6s-7.16699 2 -9.5 6s-2.16602 7.66699 0.500977 11l2 4l5 10l21 35l14 25l16 28c2.66699 5.33301 5.33398 10.333 8.00098 15l9 15
c3.33301 5.33301 6.5 10.833 9.5 16.5s6.16699 11.167 9.5 16.5s6.5 10.833 9.5 16.5l9.5 17.5l20 34l10 17.5l10 17.5l19 34l18 32l18 31l7.5 13.5c2.33301 4.33301 5.16602 8.83301 8.49902 13.5l13 24l12 20c1.33301 2.66699 2.66602 5.16699 3.99902 7.5
s2.66602 4.83301 3.99902 7.5l6 10l2 3c-7.33301 -4.66699 -14.833 -9 -22.5 -13s-15.5 -7.66699 -23.5 -11c-22 -8.66699 -43.667 -14.334 -65 -17.001h-2v-2c-0.666992 -1.33301 -1 -3 -1 -5c-1.33301 -4 -2 -7 -2 -9c-1.33301 -3.33301 -2.33301 -6.33301 -3 -9
s-1.33398 -5.66699 -2.00098 -9l-13 -31c-8 -17.333 -18.333 -34.666 -31 -51.999c-12 -15.333 -25 -27.666 -39 -36.999c-6 -3.33301 -12.333 -6.33301 -19 -9s-13.667 -4.33398 -21 -5.00098c-9.33301 0 -18.333 2.33301 -27 7c-8 5.33301 -14.667 12 -20 20
c-4.66699 7.33301 -8 15.5 -10 24.5s-3.33301 18.167 -4 27.5c-0.666992 22.667 2 45.667 8 69c3.33301 11.333 7 22.166 11 32.499s8.66699 20.166 14 29.499c8.66699 18 20 34.333 34 49c6 6 12.333 11.667 19 17s13.667 9.66602 21 12.999
c6.66699 3.33301 13.834 5.66602 21.501 6.99902s15.167 1 22.5 -1c9.33301 -2.66699 17.166 -7.66699 23.499 -15s11.166 -15.333 14.499 -24c4 -10.667 6.33301 -21.334 7 -32.001s0.333984 -21.667 -0.999023 -33c1.33301 0 2.33301 0.166992 3 0.5s1.66699 0.5 3 0.5
c18.667 3.33301 36.334 8.33301 53.001 15c18.667 8 35.334 18 50.001 30c7.33301 6 14.5 12.5 21.5 19.5s13.167 14.5 18.5 22.5l8 13c1.33301 1.33301 2 2.66602 2 3.99902c0.666992 0.666992 1 1.33398 1 2.00098l2 2c1.33301 1.33301 2.33301 2 3 2
c0.666992 0.666992 1.33398 1 2.00098 1c0.666992 0.666992 1.33398 1 2.00098 1h3l2 -1c1.33301 0 2.33301 -0.333008 3 -1l3 -3c0 -0.666992 0.166992 -1.16699 0.5 -1.5s0.5 -1.16602 0.5 -2.49902v-4c0 -2 -0.333008 -3.33301 -1 -4zM375.993 329.005
c8 0 15.6631 -1.99902 22.9961 -5.99902c8.66699 -4.66699 15.334 -10.834 20.001 -18.501s8.33398 -15.834 11.001 -24.501c2.66699 -10 4.16699 -20.167 4.5 -30.5s-0.166992 -20.833 -1.5 -31.5c-3.33301 -24.667 -9.33301 -47.667 -18 -69
c-4 -9.33301 -8.33301 -18.666 -13 -27.999s-10.334 -18.333 -17.001 -27c-10.667 -16 -23 -29.667 -37 -41c-13.333 -10 -26.666 -16.333 -39.999 -19c-8.66699 -1.33301 -16.667 -1 -24 1c-9.33301 2 -17.333 7 -24 15c-6.66699 6.66699 -11.5 14.167 -14.5 22.5
s-5.16699 17.166 -6.5 26.499c-1.33301 11.333 -1.66602 22.333 -0.999023 33s2.33398 21.667 5.00098 33c4 22 11.333 43.667 22 65c4.66699 9.33301 9.5 18.5 14.5 27.5s10.833 17.167 17.5 24.5c11.333 14.667 24.333 26.334 39 35.001c6 3.33301 12.333 6.33301 19 9
s13.667 3.66699 21 3zM402.989 183.006c3.33301 11.333 5.82812 22.8311 7.49512 34.498s2.16699 23.167 1.5 34.5c-0.666992 9.33301 -2.66699 18.666 -6 27.999c-1.33301 4 -3.16602 7.83301 -5.49902 11.5s-5.16602 6.83398 -8.49902 9.50098
c-6 5.33301 -12.833 7.33301 -20.5 6s-14.834 -3.66602 -21.501 -6.99902c-14 -9.33301 -26.333 -20.666 -37 -33.999c-14 -18 -24.667 -36 -32 -54c-4.66699 -11.333 -8.66699 -22.666 -12 -33.999s-5.66602 -23 -6.99902 -35
c-0.666992 -5.33301 -1.16699 -10.833 -1.5 -16.5s-0.166016 -11.167 0.500977 -16.5s1.33398 -10.166 2.00098 -14.499s1.66699 -8.83301 3 -13.5c2.66699 -7.33301 7.33398 -14.333 14.001 -21c6 -4.66699 14 -6.33398 24 -5.00098c7.33301 1.33301 14 3.83301 20 7.5
s11.667 8.16699 17 13.5c14 12.667 26 27.667 36 45c11.333 19.333 20 39.666 26 60.999zM199.984 483.004l-9.99414 0.000976562c-10.667 0.666992 -21.334 2.33398 -32.001 5.00098s-20.667 7 -30 13c-7.33301 6 -13.333 13 -18 21
c-4.66699 8.66699 -6.33398 17 -5.00098 25c-12 -14.667 -22 -31.334 -30 -50.001c-10.667 -22.667 -17.334 -46 -20.001 -70c-0.666992 -6 -1.16699 -11.833 -1.5 -17.5s-0.166016 -11.167 0.500977 -16.5c0 -8 1.66699 -17 5 -27
c1.33301 -4 3.16602 -7.83301 5.49902 -11.5s5.16602 -6.83398 8.49902 -9.50098c7.33301 -5.33301 15 -7.33301 23 -6c7.33301 1.33301 14.166 4 20.499 8s12.166 8.33301 17.499 13c7.33301 6.66699 13.833 13.834 19.5 21.501s11.167 15.5 16.5 23.5
c11.333 19.333 20 39.666 26 60.999zM202.99 505.005c2 10 2.33203 21.333 0.999023 34c-1.33301 10.667 -3.66602 20 -6.99902 28c-3.33301 9.33301 -9 16 -17 20c-4.66699 2.66699 -9.5 3.66699 -14.5 3s-9.83301 -1.66699 -14.5 -3l-8 -4l-5 -3l-2 -1
c0 -0.666992 -0.333008 -1 -1 -1v-1l-3 -7l-3 -8c-2.66699 -9.33301 -3 -17.333 -1 -24c2 -8 6.66699 -14 14 -18c6.66699 -6 15.667 -10 27 -12c10.667 -2 22 -3 34 -3z" />
    <glyph glyph-name="ampersand" unicode="&#x26;" horiz-adv-x="361" 
d="M434 261c-0.666992 -2.66699 -2.33008 -5.99805 -4.99707 -9.99805c-1.33301 -2 -2.83301 -4 -4.5 -6s-3.16699 -4 -4.5 -6c-5.33301 -7.33301 -11.166 -14 -17.499 -20l-18.5 -18l-50 -44l-27 -23c-2.66699 -1.33301 -5 -3 -7 -5s-4.33301 -4 -7 -6l-4 -3l-1 -1
c-0.666992 0 -1 -0.333008 -1 -1l3 -9l21 -55l6 -13c0 -1.33301 0.333008 -2.33301 1 -3c1.33301 -5.33301 -0.333984 -9.66602 -5.00098 -12.999c-4.66699 -2.66699 -9 -2.33398 -13 0.999023c-1.33301 1.33301 -2.66602 3.33301 -3.99902 6l-6 14
c-4 9.33301 -7.83301 18.833 -11.5 28.5l-10.5 28.5l-25 -18c-8 -6 -16.333 -11.667 -25 -17c-9.33301 -6.66699 -18.833 -12.5 -28.5 -17.5s-19.834 -9.83301 -30.501 -14.5c-10 -3.33301 -20.167 -6.33301 -30.5 -9s-20.833 -4.66699 -31.5 -6
c-9.33301 -1.33301 -18.5 -1.83301 -27.5 -1.5s-17.833 1.83301 -26.5 4.5c-16.667 4.66699 -29.667 12 -39 22c-6 7.33301 -10.167 15.333 -12.5 24s-3.16602 17.667 -2.49902 27c2 18.667 8.33301 37 19 55c5.33301 9.33301 10.833 18.166 16.5 26.499
s12.167 16.5 19.5 24.5c7.33301 8.66699 15.166 16.834 23.499 24.501s17.166 15.167 26.499 22.5l28.5 24c9.66699 8 19.5 15.667 29.5 23c5.33301 3.33301 10.333 7 15 11s9.66699 8 15 12c2.66699 1.33301 5.16699 3 7.5 5s4.83301 4 7.5 6l4 3
c1.33301 0 1.33301 0.666992 0 2v2l-2 10c-2 13.333 -3.66699 26.166 -5 38.499s-2 25.166 -2 38.499c-1.33301 24.667 0 47.334 4 68.001c1.33301 10 3.5 19.833 6.5 29.5s7.16699 18.834 12.5 27.501c2.66699 4.66699 5.5 8.83398 8.5 12.501l9.5 11.5
c3.33301 4 7.16602 7.66699 11.499 11l13.5 10c7.33301 5.33301 15.666 9.5 24.999 12.5s18.666 4.16699 27.999 3.5c18.667 0 35.667 -6.66699 51 -20c14.667 -12.667 25.334 -29.334 32.001 -50.001c2 -10 3 -20.333 3 -31c-1.33301 -10 -4 -20 -8 -30
c-3.33301 -8.66699 -7.66602 -16.667 -12.999 -24s-11 -14.333 -17 -21c-15.333 -16 -31.333 -31 -48 -45l-59 -47l-16 -11l-8 -6c0 -0.666992 -0.333008 -1 -1 -1c-0.666992 -0.666992 -0.666992 -1 0 -1v-3c0 -0.666992 0.166992 -1.33398 0.5 -2.00098
s0.5 -1.33398 0.5 -2.00098c1.33301 -6.66699 2.66602 -13 3.99902 -19s3 -12.333 5 -19c3.33301 -12 6.5 -24.167 9.5 -36.5s6.5 -24.5 10.5 -36.5l21 -66c19.333 15.333 37.666 30.666 54.999 45.999l48 43l17 18l11 13l3 5c0 0.666992 0.333008 1.33398 1 2.00098
c0 1.33301 0.333008 2.33301 1 3s1.33398 1.66699 2.00098 3c5.33301 2.66699 9.66602 2.66699 12.999 0c4.66699 -3.33301 6.33398 -7.33301 5.00098 -12zM192.004 78.002l22.502 15.0039l21.5 15l20 15c0.666992 0 1 0.166992 1 0.5s0.333008 0.5 1 0.5
c0 0.666992 0.333008 1 1 1s0.666992 0.333008 0 1l-2 7l-6 16c-2 5.33301 -3.66699 10.666 -5 15.999c-8 22.667 -15 45.667 -21 69l-9.5 37.5l-9.5 38.5c-0.666992 -1.33301 -2.33398 -2.66602 -5.00098 -3.99902l-31.5 -23.5
c-10.333 -7.66699 -20.5 -15.834 -30.5 -24.501l-28 -22.5c-9.33301 -7.66699 -18.666 -15.834 -27.999 -24.501l-22 -23c-7.33301 -8 -14 -16.333 -20 -25c-3.33301 -4.66699 -6.33301 -9.16699 -9 -13.5s-5.33398 -9.16602 -8.00098 -14.499
c-5.33301 -11.333 -9 -21.333 -11 -30c-2 -10 -2 -19.667 0 -29c3.33301 -8.66699 8.33301 -15.334 15 -20.001c5.33301 -4.66699 11.5 -7.83398 18.5 -9.50098s14.167 -2.83398 21.5 -3.50098c9.33301 -1.33301 19 -1.33301 29 0s19.667 3.33301 29 6
c11.333 3.33301 22.666 7.5 33.999 12.5s22 10.5 32 16.5zM240.006 547.006c-6 -8 -10.668 -16.6641 -14.001 -25.9971s-6 -18.666 -8 -27.999c-4 -20.667 -5.33301 -43.334 -4 -68.001c0.666992 -12.667 1.66699 -25.334 3 -38.001s3 -25.334 5 -38.001l44 33l27.5 22.5
l26.5 23.5c7.33301 6.66699 14.333 13.5 21 20.5s12.667 14.5 18 22.5l6 10c2 3.33301 3.66699 7 5 11c4 9.33301 5.33301 19.666 4 30.999c-2 21.333 -11.333 38.333 -28 51c-8 6.66699 -16.333 11 -25 13c-8 2 -16.667 2 -26 0c-10 -2 -19.167 -6.33301 -27.5 -13
s-16.166 -13.667 -23.499 -21z" />
    <glyph glyph-name="quotesingle" unicode="'" horiz-adv-x="215" 
d="M289 619c3.33301 -1.33301 5.33105 -3.5 5.99805 -6.5s0.333984 -5.83301 -0.999023 -8.5c0 -1.33301 -0.333008 -2.33301 -1 -3l-11 -24c-3.33301 -5.33301 -6.16602 -11 -8.49902 -17s-5.16602 -12 -8.49902 -18l-14 -30l-4 -8l-1 -1
c-0.666992 -3.33301 -3.33398 -5.66602 -8.00098 -6.99902c-5.33301 0 -9.33301 2 -12 6c-2 3.33301 -2 6.66602 0 9.99902l2 5l12 26l17 35l14 29l3 6c1.33301 2 2.33301 3.33301 3 4c3.33301 3.33301 7.33301 4 12 2z" />
    <glyph glyph-name="parenleft" unicode="(" horiz-adv-x="350" 
d="M447 616c-8 0 -15.335 -1.00488 -22.002 -3.00488c-5.33301 -2 -10.333 -4 -15 -6s-9.33398 -4.66699 -14.001 -8c-6 -3.33301 -11.5 -7 -16.5 -11l-15.5 -12c-6 -5.33301 -11.667 -10.666 -17 -15.999l-16 -16l-33.999 -40c-6 -7.33301 -11.833 -15 -17.5 -23l-16.5 -24
c-6 -8.66699 -11.667 -17.334 -17 -26.001l-16 -26c-6 -9.33301 -11.667 -19 -17 -29l-16 -29l-30 -62c-5.33301 -11.333 -10.166 -22.333 -14.499 -33l-13.5 -33c-4.66699 -11.333 -9 -23 -13 -35l-12 -36c-8 -24 -15 -48 -21 -72
c-3.33301 -11.333 -6.16602 -22.5 -8.49902 -33.5s-4.5 -22.167 -6.5 -33.5c-4 -22 -7 -42.667 -9 -62c-1.33301 -9.33301 -2 -18.333 -2 -27v-27c0 -17.333 1.33301 -32.666 4 -45.999c1.33301 -6 2.83301 -12.167 4.5 -18.5s3.83398 -12.166 6.50098 -17.499
c3.33301 -7.33301 7.5 -13.833 12.5 -19.5s11.167 -9.83398 18.5 -12.501c2.66699 -1.33301 5.16699 -2 7.5 -2s4.5 -0.333008 6.5 -1c3.33301 0 5.66602 -0.333008 6.99902 -1c2.66699 -1.33301 4.33398 -2.66602 5.00098 -3.99902c2 -4.66699 1.66699 -9 -1 -13
c-1.33301 -1.33301 -3.33301 -2.66602 -6 -3.99902h-7c-8.66699 0 -17.667 2.33301 -27 7c-8 4.66699 -15.667 11 -23 19c-4 4.66699 -7.33301 9.83398 -10 15.501l-8 17.5c-4 12 -7 25.333 -9 40c-1.33301 8 -2.16602 16.167 -2.49902 24.5s-0.5 16.5 -0.5 24.5
c0 18 1 36.667 3 56s5 40 9 62c2 11.333 4.16699 22.666 6.5 33.999s5.16602 22.666 8.49902 33.999l10.5 36c3.66699 12 7.5 23.667 11.5 35l12 36c4 12 8.66699 24 14 36c4 11.333 8.33301 22.333 13 33s9.66699 21.334 15 32.001c9.33301 22.667 19.333 43.334 30 62.001
c5.33301 9.33301 10.5 18.833 15.5 28.5s10.167 19.167 15.5 28.5l33 53c11.333 16.667 22.666 32 33.999 46c5.33301 7.33301 10.833 14.333 16.5 21l17.5 20l34 33c5.33301 4.66699 10.666 9 15.999 13l16 12c10.667 7.33301 21.334 13 32.001 17
c10 4.66699 19.667 7.33398 29 8.00098c3.33301 0.666992 6.5 1 9.5 1s5.83301 -1.33301 8.5 -4c3.33301 -3.33301 4 -7.33301 2 -12c-2.66699 -4.66699 -6 -7 -10 -7z" />
    <glyph glyph-name="parenright" unicode=")" horiz-adv-x="415" 
d="M292 635c16.667 0 31 -4.99805 43 -14.998c11.333 -9.33301 19.666 -21 24.999 -35c3.33301 -6.66699 5.83301 -13 7.5 -19s3.16699 -12.333 4.5 -19c1.33301 -8 2.33301 -15.833 3 -23.5s1 -15.5 1 -23.5c0.666992 -9.33301 0.833984 -18.333 0.500977 -27
s-0.833008 -17.667 -1.5 -27c-1.33301 -10.667 -2.5 -21 -3.5 -31s-2.5 -20 -4.5 -30l-6 -33c-2 -10.667 -4.66699 -21.667 -8 -33c-3.33301 -12 -6.5 -24 -9.5 -36s-6.5 -23.667 -10.5 -35c-3.33301 -12.667 -7.16602 -25 -11.499 -37l-13.5 -36c-8 -22 -17 -44 -27 -66
c-4.66699 -11.333 -9.5 -22 -14.5 -32l-15.5 -31l-31 -59c-10.667 -19.333 -21.667 -37 -33 -53c-5.33301 -8.66699 -10.833 -17 -16.5 -25l-16.5 -23c-5.33301 -7.33301 -10.833 -14.5 -16.5 -21.5s-11.5 -13.833 -17.5 -20.5
c-5.33301 -6.66699 -10.833 -12.834 -16.5 -18.501s-11.5 -11.167 -17.5 -16.5c-5.33301 -5.33301 -10.666 -10.166 -15.999 -14.499l-17 -13.5l-16 -10c-5.33301 -3.33301 -10.666 -6.33301 -15.999 -9c-8 -4.66699 -18 -8 -30 -10c-2.66699 -0.666992 -5 -1.16699 -7 -1.5
s-4.33301 -0.5 -7 -0.5c-4.66699 0 -8 1 -10 3c-4.66699 3.33301 -5.66699 7.33301 -3 12c1.33301 4 4.66602 6.66699 9.99902 8h7c4.66699 0 9 1 13 3c9.33301 2 19.333 6.33301 30 13c5.33301 3.33301 10.5 6.83301 15.5 10.5l15.5 11.5
c6 5.33301 11.667 10.666 17 15.999l16 16c6 6 11.833 12.333 17.5 19l16.5 20c6 7.33301 11.833 15 17.5 23l16.5 23l17.5 26c5.66699 8.66699 11.167 17.667 16.5 27l16 28.5l16 28.5l15.5 31c5 10 9.83301 20.333 14.5 31c5.33301 10.667 10.166 21.334 14.499 32.001
l13.5 33l13.5 35.5c4.33301 11.667 8.5 23.5 12.5 35.5c8 24 15 48 21 72c3.33301 11.333 6.16602 22.666 8.49902 33.999s4.83301 22.666 7.5 33.999c4 20 7 40.667 9 62c1.33301 9.33301 2.16602 18.5 2.49902 27.5s0.166016 18.167 -0.500977 27.5
c0 7.33301 -0.333008 15 -1 23s-1.66699 15.667 -3 23c-2 14 -5.33301 26.333 -10 37c-3.33301 6.66699 -7.16602 13 -11.499 19s-10.166 10.667 -17.499 14l-14 3h-7l-6 3c-3.33301 4.66699 -4 9 -2 13c2 4.66699 5.33301 7 10 7z" />
    <glyph glyph-name="asterisk" unicode="*" horiz-adv-x="411" 
d="M360 541c4 2 7.99512 1.99902 11.9951 -0.000976562c3.33301 -2 5.16602 -5 5.49902 -9s-1.16699 -7.33301 -4.5 -10l-21 -14l-29 -19l-33 -21l-31 -21l-23 -15l-9 -6l7 -8l25 -24l34 -34l2 -2c2 -1.33301 3 -3.66602 3 -6.99902
c1.33301 -4.66699 -0.666992 -8.33398 -6 -11.001c-5.33301 -2 -9.66602 -1.33301 -12.999 2c-0.666992 2 -2 3.33301 -4 4l-49 49c-2.66699 2 -5 4.16699 -7 6.5s-4 4.5 -6 6.5h-1l-7 -17c-2.66699 -5.33301 -5 -10.666 -7 -15.999s-4.33301 -10.666 -7 -15.999
c-2.66699 -6 -5.16699 -12 -7.5 -18s-5.16602 -12 -8.49902 -18l-10 -24c-1.33301 -1.33301 -2 -2.66602 -2 -3.99902c-2.66699 -4.66699 -6 -7 -10 -7c-5.33301 0 -9 2.33301 -11 7c-1.33301 2.66699 -1.33301 5.66699 0 9c0.666992 0.666992 1 1.33398 1 2.00098l4 9
c2.66699 5.33301 5.16699 10.666 7.5 15.999s4.5 10.666 6.5 15.999l15 34l7 16c-1.33301 -1.33301 -2.66602 -2.33301 -3.99902 -3l-4 -2c-4 -3.33301 -8 -6.16602 -12 -8.49902s-8 -4.83301 -12 -7.5l-33 -22l-31 -21l-23 -15l-6 -3c0 -0.666992 -0.333008 -1 -1 -1
c-4 -2.66699 -7.66699 -2.66699 -11 0c-4 1.33301 -6 4.16602 -6 8.49902s1.66699 7.83301 5 10.5l21 14l28 18c5.33301 4 10.833 7.83301 16.5 11.5l16.5 10.5l32 21l23 15l9 6l-8 8l-25 24c-4 4.66699 -8.16699 9 -12.5 13l-13.5 13l-9 9
c-1.33301 1.33301 -2.66602 4 -3.99902 8c0 4.66699 2.33301 8.33398 7 11.001c4.66699 2 8.66699 1.33301 12 -2l4 -4l23 -22l40 -40l7 16l15 33l15 35l11 25l2 4c0.666992 3.33301 3.66699 5.66602 9 6.99902c4.66699 0 8.33398 -2.33301 11.001 -7
c2 -3.33301 2 -6.33301 0 -9c0 -0.666992 -0.333008 -1.33398 -1 -2.00098c-1.33301 -4 -2.66602 -7 -3.99902 -9c-3.33301 -10 -8 -20.667 -14 -32l-15 -34c-2 -6.66699 -4.33301 -12 -7 -16l5 3l22 14l31 21l32 21l26 17c1.33301 1.33301 3 2.5 5 3.5
s3.66699 2.16699 5 3.5z" />
    <glyph glyph-name="plus" unicode="+" horiz-adv-x="384" 
d="M335 290c3.33301 0 6.16699 -1.16504 8.5 -3.49805s3.16602 -5.16602 2.49902 -8.49902c0 -7.33301 -3.66699 -11 -11 -11h-141h-2c-0.666992 -1.33301 -1 -2.33301 -1 -3s-0.333008 -1.33398 -1 -2.00098l-10 -26l-7.5 -17.5c-2.33301 -5.66699 -4.5 -11.5 -6.5 -17.5
l-14 -35l-10 -23c0 -0.666992 -0.166992 -1.16699 -0.5 -1.5s-0.5 -1.16602 -0.5 -2.49902c-2 -4 -5.33301 -6.33301 -10 -7c-5.33301 0 -9 2.33301 -11 7c-1.33301 2.66699 -1.33301 5.66699 0 9l1 1l3 8l12 29c2 6.66699 4.16699 13 6.5 19s4.83301 12 7.5 18l13 31
c0.666992 3.33301 2.33398 7.66602 5.00098 12.999h-129c-4 0 -7.16699 1.83301 -9.5 5.5s-2.83301 7.16699 -1.5 10.5c2 4.66699 5.66699 7 11 7h138l2 4l9 22l13 35l15 36l12 29c0.666992 3.33301 2.33398 7.66602 5.00098 12.999
c1.33301 3.33301 3.66602 5.66602 6.99902 6.99902c4.66699 0.666992 8.66699 -0.666016 12 -3.99902c2 -4.66699 2.66699 -8.33398 2 -11.001l-1 -1l-7 -19l-13 -32l-15 -37l-12 -30l-5 -12h134v0z" />
    <glyph glyph-name="comma" unicode="," horiz-adv-x="233" 
d="M167 53c-1.33301 -11.333 -4.99805 -21.9961 -10.998 -31.9961l-18 -29l-16 -23c-4.66699 -6 -10 -7.33301 -16 -4c-2.66699 1.33301 -4.33398 3.5 -5.00098 6.5s-0.333984 5.83301 0.999023 8.5c2 3.33301 4.33301 6.83301 7 10.5s5 7.16699 7 10.5
c4.66699 5.33301 9 11.666 13 18.999c1.33301 3.33301 3 6.5 5 9.5s3.66699 6.16699 5 9.5c0.666992 1.33301 0.666992 2.33301 0 3l-4 3c-2 1.33301 -3.66699 3.66602 -5 6.99902c-2.66699 6.66699 -1.83398 12.667 2.49902 18s9.83301 7.66602 16.5 6.99902
c6 -0.666992 10.333 -3.33398 13 -8.00098s4.33398 -8.66699 5.00098 -12v-4v0z" />
    <glyph glyph-name="hyphen" unicode="-" horiz-adv-x="436" 
d="M345 273c2.66699 0 5.66699 -1.00195 9 -3.00195c3.33301 -3.33301 4 -7.66602 2 -12.999c-2 -4 -5.66699 -6 -11 -6h-206c-2 0 -4 -0.166992 -6 -0.5s-3.66699 0.166992 -5 1.5c-4.66699 2 -7 5.33301 -7 10s2.33301 8.33398 7 11.001h217v0z" />
    <glyph glyph-name="period" unicode="." horiz-adv-x="139" 
d="M130 73c0 -6.66699 -2.16699 -12.167 -6.5 -16.5s-9.83301 -6.5 -16.5 -6.5c-6 0 -11.167 2.16699 -15.5 6.5s-6.5 9.83301 -6.5 16.5c0 6 2.16699 11.167 6.5 15.5s9.5 6.5 15.5 6.5c6.66699 0 12.167 -2.16699 16.5 -6.5s6.5 -9.5 6.5 -15.5z" />
    <glyph glyph-name="slash" unicode="/" horiz-adv-x="351" 
d="M-11 609h389.999c0.666992 0 1 -1.16699 1 -3.5v-8v-8v-3.5h-129c-1.33301 0 -4.16602 0.166992 -8.49902 0.5s-6.83301 0.166016 -7.5 -0.500977l-3 -9l-21 -52l-37 -90.5l-37 -91.5l-79 -193l-36 -90h331c0.666992 -4.66699 1 -8.66699 1 -12
c0 -7.33301 -0.333008 -11 -1 -11h-389c-1.33301 0 -1.83301 1.5 -1.5 4.5s0.5 4.83301 0.5 5.5v12c0 0.666992 1 1 3 1h24c0.666992 0 2 -0.166992 4 -0.5s3.33301 -0.166016 4 0.500977l3 10l21 51l37 90.5l37 91.5l79 193l36 90h-222v23z" />
    <glyph glyph-name="zero" unicode="0" horiz-adv-x="357" 
d="M282 596c16 0 29.499 -4.00098 40.499 -12.001s20 -18 27 -30s12.167 -25.167 15.5 -39.5s5.66602 -28.166 6.99902 -41.499c2 -32 0.166992 -64 -5.5 -96s-13.5 -63 -23.5 -93c-9.33301 -28.667 -20.666 -56.667 -33.999 -84s-29 -53.333 -47 -78
c-13.333 -18 -28.166 -35.5 -44.499 -52.5s-35.166 -30.5 -56.499 -40.5c-8.66699 -3.33301 -17.5 -6.16602 -26.5 -8.49902s-18.167 -2.83301 -27.5 -1.5c-13.333 2 -25 7 -35 15s-18.333 17.667 -25 29c-12.667 23.333 -19.667 48.833 -21 76.5s-0.333008 54.167 3 79.5
c4 33.333 11 65.666 21 96.999s22 62 36 92c12 25.333 25.667 49.5 41 72.5s32.666 44.167 51.999 63.5c13.333 13.333 28.833 25.333 46.5 36s36.5 16 56.5 16zM339.999 356.999c3.33301 15.333 5.83398 30.9961 7.50098 46.9961s2.5 32 2.5 48
c0 12.667 -0.833008 25.334 -2.5 38.001s-4.83398 25 -9.50098 37c-4.66699 11.333 -11 21.5 -19 30.5s-18.333 14.167 -31 15.5c-9.33301 1.33301 -18.166 0.666016 -26.499 -2.00098s-16.5 -6.33398 -24.5 -11.001c-21.333 -12 -39.833 -27.5 -55.5 -46.5
s-30.167 -38.5 -43.5 -58.5c-17.333 -26.667 -32.166 -54.667 -44.499 -84s-22.166 -59.333 -29.499 -90c-4 -16 -7.33301 -32.167 -10 -48.5s-4.33398 -33.166 -5.00098 -50.499c-1.33301 -13.333 -1.33301 -26.666 0 -39.999s3.66602 -26.666 6.99902 -39.999
c3.33301 -10.667 7.66602 -21.167 12.999 -31.5s13.333 -18.166 24 -23.499c9.33301 -5.33301 18.833 -7.33301 28.5 -6s19.167 4 28.5 8c21.333 9.33301 40 22.833 56 40.5s30.667 35.834 44 54.501c17.333 25.333 32.333 52 45 80s23.667 57 33 87z" />
    <glyph glyph-name="one" unicode="1" horiz-adv-x="258" 
d="M232 532l-72 -178.998l-42 -103.5l-42 -104.5l-22 -54l-22 -54c0 -0.666992 -0.333008 -1.33398 -1 -2.00098c-2.66699 -6 -7.16699 -8.16699 -13.5 -6.5s-9.16602 5.5 -8.49902 11.5c1.33301 4 2.66602 7 3.99902 9l18 47l39.5 95l38.5 95l78 194l37 92
c-6 -3.33301 -12.167 -6.5 -18.5 -9.5s-12.5 -6.16699 -18.5 -9.5c-4.66699 -2 -9.16699 -1.66699 -13.5 1s-5.5 6.66699 -3.5 12c1.33301 2.66699 3 4.66699 5 6s4.33301 2.66602 7 3.99902l45 22l13 7c4.66699 2 9 1.5 13 -1.5s5 -7.16699 3 -12.5z" />
    <glyph glyph-name="two" unicode="2" horiz-adv-x="422" 
d="M331 598c24 -14 41.167 -33.6689 51.5 -59.002s14.833 -51.333 13.5 -78c-0.666992 -15.333 -2.66699 -30.666 -6 -45.999s-7.33301 -30.666 -12 -45.999c-4 -13.333 -8.66699 -26.333 -14 -39s-11 -25.334 -17 -38.001c-22.667 -43.333 -50.167 -81.166 -82.5 -113.499
s-69.166 -61.166 -110.499 -86.499c19.333 -6 38.666 -12.333 57.999 -19s39.666 -10.334 60.999 -11.001c9.33301 -0.666992 18.666 0 27.999 2s18.333 5.66699 27 11c4 2 8 5 12 9s7.66699 5.66699 11 5c6.66699 0 10 -3 10 -9c0.666992 -4 -1 -8 -5 -12
c-10 -10 -21.167 -17.167 -33.5 -21.5s-25 -6.66602 -38 -6.99902s-26.167 0.666992 -39.5 3s-26 5.16602 -38 8.49902c-11.333 3.33301 -22.833 7 -34.5 11l-34.5 12c-1.33301 0 -4 0.666992 -8 2c-1.33301 0.666992 -2.33301 0.833984 -3 0.500977l-3 -1.5l-11 -6l-22 -11
l-18.5 -8c-6.33301 -2.66699 -12.833 -5 -19.5 -7c-10 -3.33301 -20.833 -6 -32.5 -8s-22.167 0.666992 -31.5 8s-12.5 16.333 -9.5 27s8.5 19 16.5 25c8.66699 7.33301 18.334 12.333 29.001 15s21.5 4 32.5 4s22 -1.16699 33 -3.5s21.5 -5.16602 31.5 -8.49902
c2 -0.666992 3.5 -0.833984 4.5 -0.500977s2.5 1.16602 4.5 2.49902c2.66699 1.33301 4.66699 2.66602 6 3.99902c5.33301 2.66699 9.33301 5 12 7l26 17l27 21.5l26 21.5c18.667 17.333 34.834 34.5 48.501 51.5s27.167 36.167 40.5 57.5c14 25.333 26 51.833 36 79.5
s16.667 55.834 20 84.501c1.33301 13.333 1.16602 26.833 -0.500977 40.5s-5.16699 26.834 -10.5 39.501s-12.5 24 -21.5 34s-20.167 17.667 -33.5 23c-14 5.33301 -28.333 7.5 -43 6.5s-28.834 -4.33301 -42.501 -10s-26.5 -13.167 -38.5 -22.5s-22.333 -19.333 -31 -30
c-7.33301 -8.66699 -13.833 -18.5 -19.5 -29.5s-8.16699 -22.167 -7.5 -33.5c0 -5.33301 0.666992 -9.33301 2 -12c1.33301 -2 2.33301 -4 3 -6s0.333984 -4.66699 -0.999023 -8s-3.66602 -5.33301 -6.99902 -6s-6.33301 0 -9 2c-2 1.33301 -3.5 3.16602 -4.5 5.49902
s-2.16699 4.5 -3.5 6.5c-3.33301 10.667 -3.83301 21.667 -1.5 33s5.83301 21.666 10.5 30.999c6.66699 13.333 14.834 25.333 24.501 36s20.167 20.334 31.5 29.001s23.666 16 36.999 22s27 10.167 41 12.5s28 2.5 42 0.5s27.667 -6.66699 41 -14zM35 60.998
c10.667 3.33301 21.167 7.00098 31.5 11.001s20.5 8.66699 30.5 14c-13.333 3.33301 -27.166 5.16602 -41.499 5.49902s-27.833 -3.16699 -40.5 -10.5c-2 -1.33301 -5.5 -4 -10.5 -8s-5.83301 -7.66699 -2.5 -11c3.33301 -4 8.66602 -5.5 15.999 -4.5s13 2.16699 17 3.5z
" />
    <glyph glyph-name="three" unicode="3" horiz-adv-x="404" 
d="M198 595c26 13.333 52.6689 22.0049 80.002 26.0049c14.667 2.66699 29.5 3.5 44.5 2.5s29.5 -4.16699 43.5 -9.5c24.667 -10.667 42.334 -28.334 53.001 -53.001c6 -15.333 8.66699 -31 8 -47s-3.33398 -31.333 -8.00098 -46
c-8.66699 -28.667 -22.334 -55.334 -41.001 -80.001s-39.667 -45.667 -63 -63c7.33301 -6.66699 14 -14.334 20 -23.001c7.33301 -12 12 -24.5 14 -37.5s2.33301 -26.333 1 -40s-4.16602 -27 -8.49902 -40s-9.5 -25.5 -15.5 -37.5c-12 -23.333 -27.333 -44 -46 -62
s-40.667 -32 -66 -42c-20.667 -8 -42.167 -13.333 -64.5 -16s-44.5 -2.33398 -66.5 0.999023c-12 2 -24.167 4.83301 -36.5 8.5s-24 8.5 -35 14.5s-21 13.5 -30 22.5s-15.5 19.5 -19.5 31.5c-1.33301 3.33301 -2.16602 6.33301 -2.49902 9s0.166992 5.33398 1.5 8.00098
c4.66699 6 10 7.33301 16 4c2.66699 -2 4.16699 -4.33301 4.5 -7s1.16602 -5.33398 2.49902 -8.00098c2 -5.33301 4.33301 -9.66602 7 -12.999c7.33301 -10.667 16.5 -19.167 27.5 -25.5s22.5 -11.166 34.5 -14.499c23.333 -7.33301 47.833 -10.666 73.5 -9.99902
s50.167 5.33398 73.5 14.001s44.666 21.667 63.999 39c10.667 9.33301 20 20.166 28 32.499s14.667 25.166 20 38.499c6 13.333 10.667 27.5 14 42.5s3.66602 30.167 0.999023 45.5c-1.33301 7.33301 -3.5 14.666 -6.5 21.999s-7.16699 13.666 -12.5 18.999l-10 9
c-1.33301 1.33301 -2 2.16602 -2 2.49902s-0.666992 -0.166992 -2 -1.5l-5 -3l-10.5 -6c-3.66699 -2 -7.16699 -3.66699 -10.5 -5c-13.333 -6 -27.833 -11.167 -43.5 -15.5s-31.167 -4.83301 -46.5 -1.5c-8.66699 1.33301 -15.334 4.66602 -20.001 9.99902
c-4 4.66699 -5.66699 9.83398 -5 15.501s2.66699 11.167 6 16.5c7.33301 9.33301 16.5 16.166 27.5 20.499s21.833 7.16602 32.5 8.49902c17.333 3.33301 34 3 50 -1c8.66699 -2 16.334 -5 23.001 -9c2.66699 -0.666992 4.33398 -0.666992 5.00098 0l5 3c4 2.66699 7 5 9 7
c22 18 41.833 39.667 59.5 65s28.5 53 32.5 83c2.66699 14.667 2.16699 29.167 -1.5 43.5s-11.167 26.833 -22.5 37.5c-9.33301 8 -19.833 13.5 -31.5 16.5s-23.5 4.5 -35.5 4.5c-13.333 0.666992 -26.833 -0.333008 -40.5 -3s-26.834 -6.66699 -39.501 -12
c-12.667 -4.66699 -25.667 -11.334 -39 -20.001c-5.33301 -3.33301 -10.166 -6.66602 -14.499 -9.99902s-8.16602 -7.66602 -11.499 -12.999c-2 -4 -2.83301 -8.33301 -2.5 -13s-2.16699 -7.66699 -7.5 -9c-7.33301 -2.66699 -11.833 -1.16699 -13.5 4.5
s-1.83398 11.167 -0.500977 16.5c3.33301 12.667 10.666 23.334 21.999 32.001s22.333 15.667 33 21zM211.002 303.005c11.333 1.33301 22.1689 4.00195 32.502 8.00195s20.166 8.66699 29.499 14c-13.333 5.33301 -28 7.16602 -44 5.49902s-30.333 -6.5 -43 -14.5
c-1.33301 -1.33301 -3.83301 -3.5 -7.5 -6.5s-3.83398 -5.16699 -0.500977 -6.5c5.33301 -2 10.833 -2.83301 16.5 -2.5s11.167 1.16602 16.5 2.49902z" />
    <glyph glyph-name="four" unicode="4" horiz-adv-x="381" 
d="M393 600c0.666992 -1.33301 0.99707 -3.3291 0.99707 -5.99609c-0.666992 -2 -1.5 -4.16699 -2.5 -6.5s-1.83301 -4.5 -2.5 -6.5c-2.66699 -5.33301 -5 -10.5 -7 -15.5l-6 -15.5c-7.33301 -15.333 -14.166 -30.833 -20.499 -46.5l-19.5 -47.5l-58 -137h16.5
c5.66699 0 11.167 0.333008 16.5 1c6.66699 0 11.667 0.333008 15 1c2 0 4 0.166992 6 0.5s4 0.166016 6 -0.500977c3.33301 -0.666992 5.83301 -2.5 7.5 -5.5s1.83398 -6.16699 0.500977 -9.5s-3.16602 -5.33301 -5.49902 -6s-5.16602 -1.33398 -8.49902 -2.00098
c-7.33301 -0.666992 -14.5 -1 -21.5 -1h-21.5c-1.33301 -0.666992 -5.16602 -0.833984 -11.499 -0.500977s-9.5 0.166016 -9.5 -0.500977l-1 -1l-3 -7l-15.5 -37.5l-15.5 -36.5l-34.5 -82.5l-35.5 -82.5c0 -0.666992 -0.166992 -1.16699 -0.5 -1.5s-0.5 -0.833008 -0.5 -1.5
c-1.33301 -3.33301 -3.5 -5.5 -6.5 -6.5s-5.66699 -1 -8 0s-4.33301 2.83301 -6 5.5s-1.83398 5.66699 -0.500977 9l6 14l35 82l61 145c-28 -0.666992 -55.5 -1 -82.5 -1h-82.5h-41c-7.33301 0 -11.333 2.83301 -12 8.5s1.33301 10.5 6 14.5l105 87l164 138l58 48
c2 1.33301 4.66699 3.5 8 6.5s6.66602 5.5 9.99902 7.5s6.5 3 9.5 3s5.5 -2.33301 7.5 -7zM252.997 318.004l19.501 47c6.33301 16 13.166 31.667 20.499 47l61 146l-32 -27l-78 -66l-79 -65l-100 -84c32 0 63.333 0.166992 94 0.5s62 0.833008 94 1.5z" />
    <glyph glyph-name="five" unicode="5" horiz-adv-x="393" 
d="M139 391c14.667 6 29.9961 10.668 45.9961 14.001s31.833 4.66602 47.5 3.99902s30.667 -3.83398 45 -9.50098s27.5 -14.834 39.5 -27.501c10.667 -10.667 18.5 -22.667 23.5 -36s8 -27.166 9 -41.499s0.333008 -28.833 -2 -43.5s-5.83301 -28.667 -10.5 -42
c-9.33301 -28 -22.833 -54.167 -40.5 -78.5s-38.5 -45.166 -62.5 -62.499s-50.667 -28.833 -80 -34.5s-58 -2.5 -86 9.5c-11.333 5.33301 -21.833 12.166 -31.5 20.499s-17.167 18.166 -22.5 29.499c-6 14 -7.66699 27.333 -5 40c2.66699 9.33301 5.33398 16.333 8.00098 21
c1.33301 2.66699 3 5.5 5 8.5s4.66699 4.83301 8 5.5c3.33301 1.33301 6.5 1 9.5 -1s4.5 -4.66699 4.5 -8c0.666992 -3.33301 -0.333008 -6.5 -3 -9.5s-4.66699 -6.16699 -6 -9.5c-6 -11.333 -6.33301 -23.333 -1 -36c3.33301 -10 9.33301 -18.333 18 -25s17.667 -12 27 -16
c14 -6 28.167 -9.16699 42.5 -9.5s28.5 1.5 42.5 5.5s27.5 9.66699 40.5 17s24.833 16 35.5 26c22 19.333 40.5 42.333 55.5 69s24.833 54.667 29.5 84c2 14 2.5 28.333 1.5 43s-5.16699 28.667 -12.5 42c-5.33301 10 -12.666 18.5 -21.999 25.5
s-19.666 12.167 -30.999 15.5c-19.333 6 -39.166 7.33301 -59.499 4s-39.5 -8.66602 -57.5 -15.999l-13.5 -6c-4.33301 -2 -8.83301 -4.33301 -13.5 -7c-8 -4.66699 -13.667 -2.66699 -17 6c-0.666992 3.33301 0 7 2 11l90 151l40 68c1.33301 2.66699 3 5.33398 5 8.00098
s5 4 9 4h172c4 0 6.83301 -1.16699 8.5 -3.5s2.5 -5 2.5 -8s-0.833008 -5.66699 -2.5 -8s-4.5 -3.5 -8.5 -3.5h-164c-2 0 -3.66699 -1.66699 -5 -5l-9 -15l-31 -52l-70 -118v0z" />
    <glyph glyph-name="six" unicode="6" horiz-adv-x="340" 
d="M300 602c6 4 11.002 2.99902 15.002 -3.00098s3 -11.333 -3 -16l-3 -3l-23 -18c-39.333 -32 -75.5 -67.167 -108.5 -105.5s-61.167 -79.5 -84.5 -123.5c20.667 15.333 44 26 70 32s51.667 4 77 -6c20.667 -8.66699 36.667 -22.167 48 -40.5s18.333 -38.166 21 -59.499
c3.33301 -24.667 1.83301 -49.5 -4.5 -74.5s-15.833 -48.167 -28.5 -69.5c-12.667 -22.667 -28.834 -42.334 -48.501 -59.001s-42.5 -27.334 -68.5 -32.001c-26.667 -5.33301 -52.5 -2.33301 -77.5 9s-43.167 29.666 -54.5 54.999c-6 12.667 -10 25.834 -12 39.501
s-2.5 27.5 -1.5 41.5s3.33301 27.833 7 41.5s7.5 26.834 11.5 39.501c15.333 48 36.666 93 63.999 135s58.333 81.333 93 118c16.667 18 34.167 35.333 52.5 52s37.833 32.334 58.5 47.001zM196.002 344.999c-19.333 1.33301 -38.3379 -1.99805 -57.0049 -9.99805
s-35.334 -18.667 -50.001 -32c-7.33301 -7.33301 -14 -15 -20 -23c-3.33301 -4.66699 -6 -9.66699 -8 -15l-6 -16c-4 -11.333 -7.66699 -23 -11 -35s-5.66602 -24 -6.99902 -36c-1.33301 -14.667 -1.5 -29.167 -0.5 -43.5s5.16699 -28.166 12.5 -41.499
c6 -11.333 14.333 -21 25 -29s22.334 -13.667 35.001 -17c14.667 -3.33301 29.334 -3.83301 44.001 -1.5s28.334 7.16602 41.001 14.499c10.667 5.33301 20.167 12.166 28.5 20.499s15.833 17.166 22.5 26.499c14 20 25 42.167 33 66.5s11.333 48.833 10 73.5
c-1.33301 11.333 -3.66602 22.833 -6.99902 34.5s-8.66602 22.167 -15.999 31.5c-17.333 20 -40.333 30.667 -69 32z" />
    <glyph glyph-name="seven" unicode="7" horiz-adv-x="329" 
d="M363 590c1.33301 -3.33301 1.50098 -5.99805 0.500977 -7.99805l-3.5 -7l-57 -115l-45 -91.5l-46 -91.5l-87 -175l-25 -51l-6 -12c0 -0.666992 -0.333008 -1.33398 -1 -2.00098c-1.33301 -3.33301 -3.5 -5.33301 -6.5 -6s-5.66699 -0.333984 -8 0.999023
s-4.16602 3.33301 -5.49902 6s-1.33301 5.66699 0 9c1.33301 4 3.16602 8 5.49902 12l6.5 11l30 61l91 184l87 176l42 83h-214c-4 0 -8.33301 0.333008 -13 1s-7.33398 3.66699 -8.00098 9c-1.33301 6.66699 0.5 10.5 5.5 11.5s9.83301 1.5 14.5 1.5h224
c3.33301 0 7 -0.166992 11 -0.5s6.66699 -2.5 8 -6.5z" />
    <glyph glyph-name="eight" unicode="8" horiz-adv-x="328" 
d="M400 551c3.33301 -4 4.16895 -9.00684 2.50195 -15.0068s-3.5 -11 -5.5 -15c-3.33301 -5.33301 -7 -10.5 -11 -15.5l-12 -14.5c-18.667 -20 -38.667 -38.667 -60 -56l-64 -52l-42 -34l-7 -5c-1.33301 -1.33301 -1.83301 -2.16602 -1.5 -2.49902
s0.833008 -1.16602 1.5 -2.49902l7 -11l12 -22l27 -46c12.667 -21.333 21.334 -44.666 26.001 -69.999s1.33398 -50 -9.99902 -74c-11.333 -23.333 -28.333 -41.833 -51 -55.5s-46.667 -22.834 -72 -27.501c-14.667 -2.66699 -29.667 -4.16699 -45 -4.5s-30 1.16699 -44 4.5
c-11.333 2.66699 -21.833 6.83398 -31.5 12.501s-17.167 13.834 -22.5 24.501c-6.66699 11.333 -9.33398 23.833 -8.00098 37.5s4 26.834 8 39.501c5.33301 14 11.666 27.833 18.999 41.5s15.666 26.5 24.999 38.5c8 11.333 17 21.833 27 31.5l30 28.5l19.5 17.5
c6.33301 5.66699 12.833 11.167 19.5 16.5l22 18l10 8c1.33301 1.33301 1.83301 2.16602 1.5 2.49902s-0.833008 1.16602 -1.5 2.49902l-3 6c-6.66699 14 -12.834 28.833 -18.501 44.5s-9.83398 31.5 -12.501 47.5s-2.83398 31.833 -0.500977 47.5s8.5 30.5 18.5 44.5
c14.667 21.333 33.834 37.5 57.501 48.5s48.167 17.5 73.5 19.5c12.667 0.666992 25.334 0.333984 38.001 -0.999023s25 -4.66602 37 -9.99902c12.667 -4.66699 23 -11 31 -19c3.33301 -3.33301 6.33301 -7.66602 9 -12.999s3 -10.666 1 -15.999zM213.003 273.993
l-15.5 26.9971l-15.5 27l-49 -40c-16 -13.333 -31.667 -27.666 -47 -42.999c-18.667 -18.667 -35.334 -41 -50.001 -67c-6 -11.333 -11.5 -22.833 -16.5 -34.5s-7.5 -24.167 -7.5 -37.5c-0.666992 -16 3.83301 -28 13.5 -36s21.167 -13.333 34.5 -16s27.5 -3.5 42.5 -2.5
s27.833 2.5 38.5 4.5c12.667 2.66699 25.334 6.83398 38.001 12.501s24.167 12.834 34.5 21.501s18.833 18.667 25.5 30s10.667 24.333 12 39c1.33301 13.333 0.5 27 -2.5 41s-8.16699 27 -15.5 39zM381.003 541.99c0 2 0.331055 3.33594 0.998047 4.00293
c0.666992 1.33301 0.5 2.16602 -0.5 2.49902s-1.83301 1.16602 -2.5 2.49902l-2 8c-1.33301 2.66699 -3.16602 5 -5.49902 7s-4.5 3.66699 -6.5 5c-7.33301 4.66699 -14.833 8 -22.5 10s-15.167 3.66699 -22.5 5c-24.667 3.33301 -49.667 1.5 -75 -5.5
s-46.666 -19.833 -63.999 -38.5c-12 -13.333 -19.5 -27.5 -22.5 -42.5s-3.33301 -30.333 -1 -46s6.5 -31.334 12.5 -47.001s12.333 -30.167 19 -43.5l63.5 51.5l62.5 51.5l24 22c8 7.33301 15.667 15 23 23l12 14.5c4.66699 5.66699 7 11.167 7 16.5z" />
    <glyph glyph-name="nine" unicode="9" horiz-adv-x="293" 
d="M189 589c14 5.33301 28.502 8.66211 43.502 9.99512s29.5 -0.666992 43.5 -6c24.667 -9.33301 42 -25.666 52 -48.999c11.333 -25.333 14.666 -52.166 9.99902 -80.499s-12 -54.833 -22 -79.5c-9.33301 -23.333 -20.666 -46.166 -33.999 -68.499
s-27.333 -44.166 -42 -65.499c-14 -20.667 -28.667 -40.667 -44 -60l-48 -58l-34.5 -39l-35.5 -38l-15 -15c-4 -4 -8.83301 -4.33301 -14.5 -1s-6.83398 8 -3.50098 14c0.666992 1.33301 1.5 2.5 2.5 3.5l3.5 3.5c35.333 35.333 68.833 72.166 100.5 110.499
s61.167 78.5 88.5 120.5c-10 -6.66699 -20.5 -12.167 -31.5 -16.5s-22.333 -7 -34 -8s-23.334 -0.166992 -35.001 2.5s-22.5 8 -32.5 16c-12.667 10 -22.167 21.333 -28.5 34s-10.5 26.334 -12.5 41.001s-2 29.334 0 44.001s5 29 9 43c8 26.667 20.167 52.167 36.5 76.5
s36.833 43.5 61.5 57.5zM303.002 412.996c6.66699 20 11.3301 41.833 13.9971 65.5s-2 45.167 -14 64.5c-7.33301 12 -17.166 20.833 -29.499 26.5s-25.166 8.16699 -38.499 7.5c-14.667 -1.33301 -28.667 -5.16602 -42 -11.499s-25.333 -14.5 -36 -24.5
c-22 -20 -39.333 -44.833 -52 -74.5s-18.667 -59.5 -18 -89.5c0.666992 -14 3.33398 -27.167 8.00098 -39.5s12.334 -23.166 23.001 -32.499c10 -8 21.333 -13.167 34 -15.5s25.334 -1.83301 38.001 1.5s24.5 8.66602 35.5 15.999s21.167 15.666 30.5 24.999
c11.333 11.333 20.666 23.833 27.999 37.5s13.666 28.167 18.999 43.5z" />
    <glyph glyph-name="colon" unicode=":" horiz-adv-x="292" 
d="M214 88c0 -8 -2.66699 -14.667 -8 -20s-12 -8 -20 -8c-7.33301 0 -13.5 2.66699 -18.5 8s-7.5 12 -7.5 20c0 7.33301 2.5 13.5 7.5 18.5s11.167 7.5 18.5 7.5c8 0 14.667 -2.5 20 -7.5s8 -11.167 8 -18.5zM343 403c0 -7.33301 -2.66699 -13.666 -8 -18.999
s-11.666 -8 -18.999 -8s-13.666 2.66699 -18.999 8s-8 11.666 -8 18.999s2.66699 13.833 8 19.5s11.666 8.5 18.999 8.5s13.666 -2.83301 18.999 -8.5s8 -12.167 8 -19.5z" />
    <glyph glyph-name="semicolon" unicode=";" horiz-adv-x="418" 
d="M155 64c-1.33301 -13.333 -5.49902 -26.1699 -12.499 -38.5029s-14.167 -24.166 -21.5 -35.499l-10 -13.5l-10 -13.5c-2 -3.33301 -4.83301 -5.5 -8.5 -6.5s-7.16699 -0.5 -10.5 1.5c-7.33301 4.66699 -9 10.667 -5 18l17 25c3.33301 3.33301 6.16602 7 8.49902 11
s4.83301 8 7.5 12c1.33301 3.33301 3.16602 6.83301 5.49902 10.5s4.5 7.83398 6.5 12.501c0.666992 1.33301 0.666992 2.33301 0 3l-5 4c-2.66699 1.33301 -4.66699 4 -6 8c-3.33301 8 -2.33301 15.333 3 22s12 9.33398 20 8.00098s13.333 -4.5 16 -9.5
s4.33398 -9.5 5.00098 -13.5v-5zM272.001 340.996c0 -6.66699 -2.33301 -12.167 -7 -16.5s-10 -6.5 -16 -6.5s-11.333 2.16699 -16 6.5s-7 9.83301 -7 16.5c0 6 2.33301 11 7 15s10 6 16 6s11.333 -2 16 -6s7 -9 7 -15z" />
    <glyph glyph-name="less" unicode="&#x3c;" 
d="M1 607c0 1.33301 0.666992 2 2 2h312v-21c0 -1.33301 -0.666992 -2 -2 -2h-312v21zM1 58c0 1.33301 0.666992 2 2 2h312v-21c0 -1.33301 -0.666992 -2 -2 -2h-312v21zM161 301c0 -2.66699 -0.666992 -4 -2 -4h-158v16c0 4.66699 0.666992 7 2 7h158v-19z" />
    <glyph glyph-name="equal" unicode="=" horiz-adv-x="387" 
d="M332 372c3.33301 0 6 -1.00195 8 -3.00195c3.33301 -3.33301 4 -7.66602 2 -12.999c-2 -4 -5.33301 -6 -10 -6h-245c-2 0 -4 -0.166992 -6 -0.5s-3.66699 0.166992 -5 1.5c-4.66699 2 -7 5.33301 -7 10s2.33301 8.33398 7 11.001h256zM290 281.998
c3.33301 0 6 -1.00098 8 -3.00098c3.33301 -2.66699 4.33301 -7 3 -13c-2 -4 -5.66699 -6 -11 -6h-244c-2 0 -4 -0.166992 -6 -0.5s-3.66699 0.166992 -5 1.5c-4.66699 2 -7 5.33301 -7 10s2.33301 8.33398 7 11.001h255z" />
    <glyph glyph-name="greater" unicode="&#x3e;" 
d="M1 607c0 1.33301 0.666992 2 2 2h312v-21c0 -1.33301 -0.666992 -2 -2 -2h-312v21zM1 58c0 1.33301 0.666992 2 2 2h312v-21c0 -1.33301 -0.666992 -2 -2 -2h-312v21zM161 301c0 -2.66699 -0.666992 -4 -2 -4h-158v16c0 4.66699 0.666992 7 2 7h158v-19z" />
    <glyph glyph-name="question" unicode="?" horiz-adv-x="490" 
d="M162 59c0 -12.667 -6.33301 -19 -19 -19c-5.33301 0 -9.66602 1.83301 -12.999 5.5s-5 8.16699 -5 13.5s1.66699 9.66602 5 12.999s7.66602 5 12.999 5s9.83301 -1.66699 13.5 -5s5.5 -7.66602 5.5 -12.999zM461 535c4.66699 -23.333 2.99805 -46.498 -5.00195 -69.498
s-18.333 -44.167 -31 -63.5c-16.667 -24.667 -36 -47 -58 -67c-12 -11.333 -24.5 -21.833 -37.5 -31.5s-25.833 -19.834 -38.5 -30.501c-11.333 -10 -22.333 -20.333 -33 -31s-20.334 -22.667 -29.001 -36c-1.33301 -2.66699 -3.66602 -4.33398 -6.99902 -5.00098
s-6.33301 0.333008 -9 3c-2.66699 2 -4 4.5 -4 7.5s0.666992 5.83301 2 8.5c8 12 17.333 23.333 28 34c11.333 12 23.333 23.333 36 34l38 31.5l37.5 31.5c12.333 10.667 23.833 22.334 34.5 35.001c14.667 17.333 27.334 36.5 38.001 57.5s16.334 43.167 17.001 66.5
c0.666992 10.667 -0.833008 21 -4.5 31s-9.5 18.667 -17.5 26c-10.667 9.33301 -23.334 15.166 -38.001 17.499s-28.667 2.16602 -42 -0.500977c-14 -2.66699 -27.167 -7.66699 -39.5 -15s-23.666 -16.166 -33.999 -26.499s-19.666 -21.5 -27.999 -33.5
s-15.166 -24.333 -20.499 -37l-4 -12.5l-4 -13.5c0 -6.66699 -3 -11 -9 -13c-7.33301 -1.33301 -11.666 1.66699 -12.999 9c-1.33301 4 -1.33301 8.33301 0 13s2.66602 8.66699 3.99902 12l6 15.5c2 5 4.66699 10.167 8 15.5c13.333 25.333 31.166 48.333 53.499 69
s48.166 33.667 77.499 39c14 2.66699 28.5 3.16699 43.5 1.5s28.5 -6.16699 40.5 -13.5c11.333 -6.66699 20.5 -15.167 27.5 -25.5s11.833 -21.5 14.5 -33.5z" />
    <glyph glyph-name="at" unicode="@" horiz-adv-x="617" 
d="M595 397c3.33301 -18 3.99023 -35.6582 1.99023 -52.9912s-5.66699 -35.333 -11 -54c-2.66699 -8.66699 -5.66699 -17.167 -9 -25.5l-10 -24.5c-3.33301 -7.33301 -6.66602 -14.166 -9.99902 -20.499l-10 -19.5c-3.33301 -4.66699 -6.16602 -9.33398 -8.49902 -14.001
s-5.16602 -9 -8.49902 -13c-2 -4 -4.16699 -7.66699 -6.5 -11s-4.83301 -6.66602 -7.5 -9.99902l-20.5 -28c-7 -9.33301 -14.5 -18.333 -22.5 -27c-6 -7.33301 -12.167 -14.333 -18.5 -21s-13.166 -12.667 -20.499 -18c-10.667 -9.33301 -22.334 -17 -35.001 -23
c-10.667 -4.66699 -21 -7 -31 -7c-8.66699 1.33301 -16 4 -22 8c-7.33301 5.33301 -12 12.666 -14 21.999c-2 8.66699 -2.33301 18.667 -1 30c0.666992 12 2.66699 24 6 36c-6.66699 -9.33301 -13.5 -18.166 -20.5 -26.499s-14.5 -16.5 -22.5 -24.5
c-7.33301 -7.33301 -15.166 -14.333 -23.499 -21s-17.5 -12 -27.5 -16c-8.66699 -3.33301 -18 -5.66602 -28 -6.99902s-19.667 0 -29 4c-7.33301 3.33301 -13.166 8.33301 -17.499 15s-7.5 13.667 -9.5 21c-2 8 -2.66699 16.167 -2 24.5s1.66699 16.166 3 23.499
c2.66699 10 5.83398 19.667 9.50098 29s7.83398 18.333 12.501 27c12.667 20.667 26.667 39.334 42 56.001c17.333 17.333 34.333 32 51 44c16 10.667 32 19.334 48 26.001c6.66699 2.66699 13.167 4.83398 19.5 6.50098s13.166 3.16699 20.499 4.5c10.667 2 21.667 3 33 3
c7.33301 0 14.666 -1 21.999 -3c2 0 5 -0.666992 9 -2h1c0 -0.666992 0.333008 -1 1 -1s1 -0.333008 1 -1c1.33301 -0.666992 2 -1.16699 2 -1.5s0.333008 -0.833008 1 -1.5s1 -1.33398 1 -2.00098s0.333008 -1.33398 1 -2.00098
c0 -1.33301 -0.166992 -2.16602 -0.5 -2.49902s-0.5 -0.833008 -0.5 -1.5v-2c-0.666992 -0.666992 -1 -1.33398 -1 -2.00098s-0.333008 -1.33398 -1 -2.00098l-3 -6c-2 -3.33301 -4 -7 -6 -11l-6 -12c-4.66699 -8.66699 -9 -17.167 -13 -25.5l-12 -25.5l-10.5 -26
c-3.66699 -8.66699 -7.16699 -17.667 -10.5 -27c-6 -16 -11 -32 -15 -48c-1.33301 -6 -2.5 -12.167 -3.5 -18.5s-0.833008 -12.5 0.5 -18.5c0 -4.66699 1 -9 3 -13c4 -6 9.66699 -8.33301 17 -7c5.33301 0 10.5 1 15.5 3s9.83301 4.66699 14.5 8c6.66699 4 13 8.66699 19 14
s11.667 10.666 17 15.999c7.33301 7.33301 14.333 15.166 21 23.499l20 24.5c4.66699 6.66699 9.33398 13 14.001 19s9 12.667 13 20c2 3.33301 4 6.5 6 9.5s4 6.16699 6 9.5c8 12 14.667 23.667 20 35l10 22.5c3.33301 7.66699 6.33301 15.5 9 23.5
c6.66699 17.333 11.334 34.333 14.001 51c1.33301 8.66699 2.5 17.167 3.5 25.5s0.833008 16.833 -0.5 25.5c-1.33301 10 -3.66602 18.667 -6.99902 26c-2.66699 8 -7.33398 15.667 -14.001 23c-6 7.33301 -13.167 13.5 -21.5 18.5s-17.166 9.16699 -26.499 12.5
c-16 5.33301 -34.333 8.66602 -55 9.99902c-18.667 0.666992 -39.334 -1 -62.001 -5c-11.333 -2 -22.5 -4.66699 -33.5 -8s-21.833 -7 -32.5 -11c-11.333 -4.66699 -22.166 -9.66699 -32.499 -15l-31.5 -17c-8.66699 -5.33301 -17.167 -10.833 -25.5 -16.5
s-16.5 -11.834 -24.5 -18.501c-15.333 -11.333 -30 -24 -44 -38c-6.66699 -6.66699 -13 -13.334 -19 -20.001l-18 -21l-15.5 -21.5c-5 -7 -9.83301 -14.5 -14.5 -22.5c-8.66699 -13.333 -16.667 -28 -24 -44s-13.333 -31.333 -18 -46l-6 -22.5
c-2 -7.66699 -3.66699 -15.167 -5 -22.5s-2.33301 -14.833 -3 -22.5l-2 -22.5v-21.5c0 -7 0.333008 -14.167 1 -21.5c1.33301 -7.33301 2.5 -14.166 3.5 -20.499s2.16699 -12.833 3.5 -19.5l6 -19.5c2 -6.33301 4.66699 -12.833 8 -19.5c4 -8 8.5 -15.833 13.5 -23.5
s10.5 -14.834 16.5 -21.501c12.667 -12.667 26 -22.334 40 -29.001s30.333 -11 49 -13c16.667 -0.666992 34.667 1 54 5c6.66699 1.33301 11.667 2.66602 15 3.99902c2.66699 0.666992 5 1.33398 7 2.00098s4.33301 0.333984 7 -0.999023
c4.66699 -1.33301 7 -4.66602 7 -9.99902c-1.33301 -5.33301 -4 -9 -8 -11c-20 -6.66699 -39 -10.334 -57 -11.001c-19.333 -1.33301 -37 0 -53 4s-31.333 10.667 -46 20c-15.333 8.66699 -28.333 19.667 -39 33c-5.33301 7.33301 -10.5 15 -15.5 23
s-9.16699 16.333 -12.5 25c-5.33301 11.333 -9.66602 23.666 -12.999 36.999c-2 7.33301 -3.5 14.166 -4.5 20.499s-2.16699 13.166 -3.5 20.499c-0.666992 7.33301 -1.16699 14.5 -1.5 21.5s-0.166016 14.167 0.500977 21.5c0 7.33301 0.333008 14.833 1 22.5
s1.66699 15.167 3 22.5s2.83301 14.833 4.5 22.5s3.5 15.167 5.5 22.5c2 8 4.33301 15.833 7 23.5s5.66699 15.167 9 22.5c3.33301 8 6.83301 15.667 10.5 23l11.5 22c4 8 8.33301 15.667 13 23s9.66699 14.666 15 21.999s10.833 14.333 16.5 21l17.5 21
c14 15.333 27.333 28.333 40 39c7.33301 6.66699 15 13.167 23 19.5s16 12.166 24 17.499c19.333 12.667 37.666 23.667 54.999 33l33.5 15.5c11 5 22.167 9.16699 33.5 12.5c20.667 6.66699 42.334 11.667 65.001 15c10 1.33301 20.167 2 30.5 2s20.5 -0.666992 30.5 -2
c20 -2 38 -6.33301 54 -13c20 -7.33301 36.333 -18.333 49 -33s21 -31 25 -49zM230.99 55.0088c4.66699 2 9 4.16797 13 6.50098s8 4.83301 12 7.5c13.333 10 25.666 22 36.999 36c6.66699 7.33301 12.834 14.666 18.501 21.999l16.5 22l14 22l14 22
c3.33301 6.66699 7 13 11 19l2 4l2 4l2 4l2 2c0 0.666992 0.166992 1 0.5 1s0.5 0.333008 0.5 1c0.666992 0.666992 1 1.33398 1 2.00098s0.333008 1.33398 1 2.00098l13.5 29c4.33301 9.33301 9.16602 18.666 14.499 27.999c-0.666992 0.666992 -2 1 -4 1
c-5.33301 0.666992 -10.166 0.833984 -14.499 0.500977s-9.16602 -0.833008 -14.499 -1.5c-6.66699 -0.666992 -13.167 -1.83398 -19.5 -3.50098s-12.5 -3.5 -18.5 -5.5c-8 -3.33301 -15.833 -7 -23.5 -11s-15.167 -8.33301 -22.5 -13
c-18.667 -13.333 -35.334 -28.333 -50.001 -45c-8 -8.66699 -15.667 -17.667 -23 -27s-13.666 -19.333 -18.999 -30c-4 -8.66699 -7.5 -17.334 -10.5 -26.001s-5.16699 -17.667 -6.5 -27c-0.666992 -6 -0.833984 -12.333 -0.500977 -19s2.16602 -12.667 5.49902 -18
c4.66699 -7.33301 11.334 -11.666 20.001 -12.999c8 -0.666992 16.667 0.666016 26 3.99902z" />
    <glyph glyph-name="A" unicode="A" horiz-adv-x="486" 
d="M539 177c2.66699 3.33301 6.16699 4.66309 10.5 3.99609s7.16602 -3 8.49902 -7s0.833008 -7.5 -1.5 -10.5l-6.5 -8.5l-29 -34c-11.333 -12.667 -22.833 -24.834 -34.5 -36.501s-24.167 -22.5 -37.5 -32.5c-8.66699 -6.66699 -17.834 -12.667 -27.501 -18
s-20.167 -8.66602 -31.5 -9.99902s-22.166 0.5 -32.499 5.5s-17.166 13.5 -20.499 25.5c-3.33301 10.667 -4.33301 21.667 -3 33s3.66602 22.666 6.99902 33.999c4 15.333 8.83301 30.833 14.5 46.5l17.5 46.5c-12.667 -17.333 -25.667 -34 -39 -50
s-27.666 -31.333 -42.999 -46c-19.333 -19.333 -41 -37.333 -65 -54s-50 -27.334 -78 -32.001c-12.667 -2 -25.167 -2.16699 -37.5 -0.5s-23.833 6.16699 -34.5 13.5c-10 6.66699 -18.5 14.834 -25.5 24.501s-12.167 20.167 -15.5 31.5
c-7.33301 20.667 -10.666 41.834 -9.99902 63.501s3.33398 42.834 8.00098 63.501c6.66699 30 16.5 58.667 29.5 86s28.167 53.333 45.5 78c31.333 46 68.666 87 111.999 123s92 62.333 146 79c14 4 28.333 7.33301 43 10s29.667 4.33398 45 5.00098
c13.333 0 26.5 -0.5 39.5 -1.5s25.167 -4.16699 36.5 -9.5c4 -2 8.66699 -4.5 14 -7.5s8.33301 -6.83301 9 -11.5c0 -6 -2 -10 -6 -12l-36 -86l-36 -84l-35 -84l-21 -47.5l-20 -47.5l-17.5 -44c-5.66699 -14.667 -10.834 -29.667 -15.501 -45
c-3.33301 -10 -6.16602 -20.5 -8.49902 -31.5s-2.5 -21.5 -0.5 -31.5c1.33301 -7.33301 4 -12.666 8 -15.999s8.5 -5.16602 13.5 -5.49902s9.83301 0.166992 14.5 1.5c9.33301 2 18.5 6 27.5 12s17.167 12 24.5 18c17.333 15.333 33.666 31.5 48.999 48.5zM121 53.9971
c16.667 -0.666992 33.332 1.99707 49.999 7.99707c22.667 8.66699 43.334 20.5 62.001 35.5s36.334 30.833 53.001 47.5c36.667 38.667 69.667 80.667 99 126l24 37c8 12.667 14.667 25.667 20 39l34 79l63 150l-3 1.5c-2 1 -4.5 1.83301 -7.5 2.5
s-5.66699 1.33398 -8 2.00098s-3.83301 1 -4.5 1c-12.667 2.66699 -27.334 4 -44.001 4c-12 0 -24 -1 -36 -3c-36.667 -4.66699 -72.667 -16 -108 -34c-25.333 -12 -49 -26.5 -71 -43.5s-42.667 -35.833 -62 -56.5c-22.667 -24 -43.167 -50 -61.5 -78
s-33.833 -57.667 -46.5 -89c-9.33301 -22 -16.333 -45 -21 -69s-6 -48 -4 -72c1.33301 -10 3.66602 -20.167 6.99902 -30.5s7.83301 -19.666 13.5 -27.999s12.834 -15.166 21.501 -20.499s18.667 -8.33301 30 -9z" />
    <glyph glyph-name="B" unicode="B" horiz-adv-x="469" 
d="M452 604c7.33301 -2 14.333 -5.66895 21 -11.002c10.667 -7.33301 18.5 -16.5 23.5 -27.5s8.16699 -22.667 9.5 -35s1 -24.833 -1 -37.5s-5 -24.334 -9 -35.001c-9.33301 -27.333 -23.5 -51.833 -42.5 -73.5s-40.167 -40.167 -63.5 -55.5c16 -2.66699 31 -8.5 45 -17.5
s25 -21.167 33 -36.5s12.833 -31.666 14.5 -48.999s0.833984 -34.333 -2.49902 -51c-4.66699 -25.333 -14 -48.833 -28 -70.5s-32.333 -39.5 -55 -53.5c-21.333 -13.333 -44.833 -22.5 -70.5 -27.5s-51.167 -6.5 -76.5 -4.5c-10.667 1.33301 -21.334 3 -32.001 5
s-21.334 5 -32.001 9c-7.33301 2.66699 -14.833 6 -22.5 10s-14.167 8.66699 -19.5 14c-4.66699 5.33301 -8.16699 10.833 -10.5 16.5s-2.5 11.834 -0.5 18.501c2.66699 8.66699 7 14.667 13 18c2.66699 1.33301 5.5 1.66602 8.5 0.999023s5.16699 -2.66699 6.5 -6
c2 -3.33301 2.16699 -6.16602 0.5 -8.49902l-5.5 -7.5c-2 -3.33301 -2.5 -6.16602 -1.5 -8.49902s2.5 -4.5 4.5 -6.5c5.33301 -5.33301 10.666 -9.33301 15.999 -12c18 -10.667 38 -17.334 60 -20.001s43.333 -2.66699 64 0c25.333 2.66699 50 9.83398 74 21.501
s43.333 28.5 58 50.5c13.333 19.333 22.5 41.666 27.5 66.999s3.16699 49.666 -5.5 72.999c-4.66699 11.333 -10.834 21.166 -18.501 29.499s-17.167 14.5 -28.5 18.5c-13.333 4 -26 6 -38 6c-4 0 -8 -0.166992 -12 -0.5s-7.66699 -1.16602 -11 -2.49902l-22 -9
c-8 -2.66699 -16 -5.16699 -24 -7.5s-16.333 -4.16602 -25 -5.49902c-6.66699 -1.33301 -11.334 0.333984 -14.001 5.00098c-2.66699 5.33301 -2 9.66602 2 12.999c2.66699 2.66699 6 4.66699 10 6s7.66699 2.66602 11 3.99902l10.5 4l10.5 4l22 6
c3.33301 0.666992 6.5 1.33398 9.5 2.00098s6.16699 1.66699 9.5 3c24.667 12 47.334 27.333 68.001 46s37.334 40 50.001 64c11.333 20.667 18 42 20 64c1.33301 12 0.833008 24.167 -1.5 36.5s-8.16602 22.833 -17.499 31.5c-7.33301 6.66699 -15.333 11 -24 13
s-17.5 2.5 -26.5 1.5s-17.833 -3.33301 -26.5 -7s-16.667 -7.83398 -24 -12.501c-20.667 -13.333 -39.334 -29.5 -56.001 -48.5s-32.334 -38.167 -47.001 -57.5c-18 -25.333 -34.833 -51.333 -50.5 -78s-30.5 -54 -44.5 -82l-27.5 -56c-9 -18.667 -17.5 -37.667 -25.5 -57
l-38 -92l-27 -65c-2.66699 -5.33301 -6.66699 -7.66602 -12 -6.99902s-8.66602 3.66699 -9.99902 9c0 2 0.666992 5 2 9l13 31l36 87l37 87l35 85l35 84l24 58.5l23 58.5c2 5.33301 3.66699 10.666 5 15.999s1.33301 10.666 0 15.999s-4.33301 9.16602 -9 11.499
s-9.66699 4.16602 -15 5.49902c-15.333 2.66699 -30.833 1.83398 -46.5 -2.49902s-30.167 -10.166 -43.5 -17.499c-5.33301 -3.33301 -10.166 -6.83301 -14.499 -10.5s-8.16602 -8.16699 -11.499 -13.5c-1.33301 -2.66699 -2.33301 -5.33398 -3 -8.00098
s-2.33398 -5 -5.00098 -7c-2 -1.33301 -4.66699 -2 -8 -2s-5.66602 1.33301 -6.99902 4c-4 4.66699 -4.33301 10.334 -1 17.001s6.66602 12 9.99902 16c7.33301 9.33301 17.333 17.333 30 24c12 7.33301 25 13 39 17s28 6.33301 42 7c11.333 0 22.833 -1.66699 34.5 -5
s20.5 -10.333 26.5 -21s7.5 -21.5 4.5 -32.5s-6.5 -21.833 -10.5 -32.5l-16.5 -42l-16.5 -41c16 24.667 33.167 48.834 51.5 72.501s38.833 44.834 61.5 63.501c17.333 14.667 36.833 26.334 58.5 35.001s43.834 9 66.501 1z" />
    <glyph glyph-name="C" unicode="C" horiz-adv-x="359" 
d="M412 178c2.66699 2.66699 5.50391 3.82715 8.50391 3.49414s5.5 -1.5 7.5 -3.5s3.33301 -4.5 4 -7.5s-0.333008 -5.83301 -3 -8.5c-2 -2 -4 -4.16699 -6 -6.5s-4.33301 -4.5 -7 -6.5c-14 -16 -28.667 -31.5 -44 -46.5s-32 -28.833 -50 -41.5
c-20.667 -15.333 -43 -27.166 -67 -35.499s-49 -12.5 -75 -12.5c-24 0 -47.333 4 -70 12s-41.334 22.333 -56.001 43c-13.333 19.333 -21.666 40.833 -24.999 64.5s-4 47.167 -2 70.5c2.66699 23.333 7.16699 46.666 13.5 69.999s14.166 46 23.499 68
c20 47.333 45.667 91.666 77 132.999c15.333 19.333 31.833 37.5 49.5 54.5s36.834 32.167 57.501 45.5c9.33301 6 19 11.333 29 16s20.667 8.66699 32 12c11.333 4 23.333 6.66699 36 8s25 0 37 -4c15.333 -5.33301 27 -14.666 35 -27.999s12.667 -28 14 -44
c2 -22.667 -1.33301 -45.5 -10 -68.5s-20.667 -42.833 -36 -59.5l-10.5 -10.5c-5 -5 -10.5 -9.33301 -16.5 -13s-11.833 -5.83398 -17.5 -6.50098s-9.5 1.66602 -11.5 6.99902c-2.66699 6.66699 -0.666992 11.334 6 14.001s12 5.33398 16 8.00098
c4.66699 3.33301 9 6.83301 13 10.5s7.66699 7.83398 11 12.501c7.33301 9.33301 13.5 19.5 18.5 30.5s8.83301 22.167 11.5 33.5c2.66699 10 4.16699 20.5 4.5 31.5s-1.5 21.833 -5.5 32.5c-4.66699 12 -11.5 20.333 -20.5 25s-19 6.83398 -30 6.50098
s-22.167 -2.16602 -33.5 -5.49902s-21.333 -7 -30 -11c-21.333 -9.33301 -41.333 -21.666 -60 -36.999s-35.667 -31.666 -51 -48.999c-34 -39.333 -62 -82.333 -84 -129c-10.667 -21.333 -19.834 -43.666 -27.501 -66.999s-13.167 -47.333 -16.5 -72
c-2.66699 -20 -3.5 -40.667 -2.5 -62s6.16699 -41.333 15.5 -60c10 -20.667 25.333 -36 46 -46c12 -6 25.167 -10 39.5 -12s28.166 -2.66699 41.499 -2c25.333 1.33301 49.666 7.33301 72.999 18s44.666 24 63.999 40c15.333 12.667 29.833 26.167 43.5 40.5z" />
    <glyph glyph-name="D" unicode="D" horiz-adv-x="560" 
d="M321 605c18.667 1.33301 37.168 1.67285 55.501 1.00586s36.5 -2.66699 54.5 -6c22.667 -5.33301 44 -13.833 64 -25.5s37.667 -26.167 53 -43.5c19.333 -22.667 33.333 -47.5 42 -74.5s13 -54.833 13 -83.5c0 -32.667 -4.83301 -64.834 -14.5 -96.501
s-22.5 -61.5 -38.5 -89.5c-14 -24 -30.667 -46.333 -50 -67s-40.666 -38.667 -63.999 -54c-24.667 -15.333 -50.834 -26 -78.501 -32s-55.834 -8 -84.501 -6c-15.333 1.33301 -30.166 3.33301 -44.499 6s-28.5 6 -42.5 10l-19 6l-9 3l-2 1l-2 -2l-4 -4
c-5.33301 -6.66699 -11.333 -11.667 -18 -15s-13.667 -6.33301 -21 -9c-11.333 -4 -23.166 -6.33301 -35.499 -7s-23.833 2.66602 -34.5 9.99902c-9.33301 6 -14.666 14.167 -15.999 24.5s1.33398 19.833 8.00098 28.5c8 11.333 18.333 18 31 20
c6 1.33301 12.167 1.33301 18.5 0l18.5 -4l24 -7l12 -5c1.33301 -0.666992 3.16602 -1.5 5.49902 -2.5s3.83301 -0.833008 4.5 0.5c3.33301 5.33301 6.33301 10.833 9 16.5s5.66699 11.167 9 16.5c14.667 30.667 28 61.667 40 93l36 94.5l37 94c12.667 31 27 61.5 43 91.5
c5.33301 11.333 11.333 22.333 18 33s14 20.667 22 30l11.5 12c4.33301 4.66699 9.16602 5.66699 14.499 3c3.33301 -1.33301 5.33301 -3.83301 6 -7.5s0 -6.83398 -2 -9.50098l-10 -9c-7.33301 -8.66699 -14.166 -17.834 -20.499 -27.501s-12.166 -19.834 -17.499 -30.501
c-14.667 -27.333 -27.334 -54 -38.001 -80l-38 -93.5l-36 -94.5l-28.5 -71.5c-9.66699 -24.333 -21.167 -47.5 -34.5 -69.5c24.667 -8 49.667 -14.333 75 -19s50.666 -5.66699 75.999 -3c23.333 1.33301 45.166 6.16602 65.499 14.499s39.833 19.166 58.5 32.499
c23.333 17.333 43.666 37.5 60.999 60.5s32 47.833 44 74.5c13.333 30 23 61.167 29 93.5s5.66699 64.5 -1 96.5c-5.33301 25.333 -15 49 -29 71s-31.667 40.333 -53 55c-21.333 14 -44.333 23.5 -69 28.5s-49.667 7.16699 -75 6.5
c-26 -0.666992 -52.333 -3.83398 -79 -9.50098s-50.667 -17.167 -72 -34.5c-14 -12 -24.333 -25 -31 -39c-1.33301 -4.66699 -2.66602 -9.66699 -3.99902 -15s-1 -10.666 1 -15.999c0.666992 -2 1.83398 -3.66699 3.50098 -5s2.5 -3.66602 2.5 -6.99902
c-1.33301 -7.33301 -5.33301 -11 -12 -11c-6.66699 0.666992 -11.334 4.33398 -14.001 11.001s-4 12.667 -4 18c-0.666992 11.333 1.66602 22.666 6.99902 33.999c6.66699 14.667 17 28.667 31 42c19.333 17.333 41.5 30 66.5 38s50.167 13 75.5 15zM122.001 52.0068
c5.33301 4 8.99805 7.33203 10.998 9.99902c-9.33301 3.33301 -18.666 6.5 -27.999 9.5s-18.666 5.16699 -27.999 6.5c-6 0.666992 -12 -0.333008 -18 -3c-3.33301 -2 -6.33301 -4.66699 -9 -8s-3.66699 -7 -3 -11c0.666992 -5.33301 3.66699 -9.16602 9 -11.499
s10.333 -3.83301 15 -4.5c9.33301 -0.666992 18.333 0.333008 27 3s16.667 5.66699 24 9z" />
    <glyph glyph-name="E" unicode="E" horiz-adv-x="394" 
d="M446 177c3.33301 4.66699 7.67188 5.83301 13.0049 3.5s7.66602 -6.16602 6.99902 -11.499c-0.666992 -3.33301 -1.83398 -6 -3.50098 -8s-3.16699 -4 -4.5 -6l-11 -13c-15.333 -18 -31.333 -34 -48 -48c-17.333 -14.667 -35.333 -28 -54 -40
s-38.334 -22.667 -59.001 -32c-23.333 -10 -47.333 -17.667 -72 -23s-49.667 -6.66602 -75 -3.99902c-13.333 1.33301 -26.166 4.16602 -38.499 8.49902s-23.833 10.5 -34.5 18.5s-19.5 17.667 -26.5 29s-12.167 23.666 -15.5 36.999c-7.33301 30 -5.5 59.333 5.5 88
s27.167 53.667 48.5 75c20 21.333 42.833 38.833 68.5 52.5s52.5 24.167 80.5 31.5c-22.667 34.667 -33.334 73 -32.001 115c0.666992 28 6.66699 54.667 18 80s29.333 45.333 54 60c12.667 7.33301 26 12.333 40 15s28 3.33398 42 2.00098
c13.333 -1.33301 26.333 -3.83301 39 -7.5s24 -9.83398 34 -18.501c4.66699 -4 8.83398 -8.66699 12.501 -14s6.16699 -11 7.5 -17c1.33301 -3.33301 2 -6.5 2 -9.5s-1.33301 -5.5 -4 -7.5c-6 -4.66699 -11.333 -4.33398 -16 0.999023c-2 2 -3.16699 4.5 -3.5 7.5
s-1.16602 5.83301 -2.49902 8.5c-2 5.33301 -5.66699 10 -11 14c-10 8 -22 13.667 -36 17c-13.333 3.33301 -26.833 4.66602 -40.5 3.99902s-26.834 -3.66699 -39.501 -9c-13.333 -5.33301 -24.833 -13 -34.5 -23s-17.5 -21.333 -23.5 -34
c-12.667 -26 -17.834 -54.667 -15.501 -86s11.166 -59.333 26.499 -84c1.33301 -1.33301 2.5 -3 3.5 -5s2.5 -3 4.5 -3c5.33301 1.33301 9.33301 2 12 2c3.33301 1.33301 7 2 11 2s7.66699 0.333008 11 1c6.66699 0 13 -0.166992 19 -0.5s12 -1.16602 18 -2.49902
c8 -1.33301 16 -4.5 24 -9.5s12.667 -12.167 14 -21.5c0.666992 -7.33301 -1 -13.166 -5 -17.499s-9.16699 -7.5 -15.5 -9.5s-13 -3.16699 -20 -3.5s-13.167 -0.166016 -18.5 0.500977c-7.33301 1.33301 -14.5 3.33301 -21.5 6s-13.5 6.66699 -19.5 12
c-6 3.33301 -12 8.66602 -18 15.999l-22 -6c-26.667 -8 -52.334 -19.5 -77.001 -34.5s-46 -33.167 -64 -54.5c-9.33301 -11.333 -17.166 -23.5 -23.499 -36.5s-10.5 -26.833 -12.5 -41.5c-2.66699 -15.333 -2.16699 -31 1.5 -47s10.5 -30 20.5 -42
c14 -17.333 32 -28.333 54 -33s43.667 -5.66699 65 -3c24 3.33301 47.167 9 69.5 17s43.833 18 64.5 30c24.667 14 47.667 30.333 69 49s40.666 39.667 57.999 63zM338.006 310.999c-1.33301 3.33301 -4.00195 5.66602 -8.00195 6.99902s-7.66699 2.33301 -11 3
c-8 2 -16.333 2.83301 -25 2.5s-17 -1.16602 -25 -2.49902c14 -11.333 30 -17.333 48 -18c0.666992 0 2.33398 0.166992 5.00098 0.5s5.33398 0.833008 8.00098 1.5s5 1.5 7 2.5s2.33301 2.16699 1 3.5z" />
    <glyph glyph-name="F" unicode="F" horiz-adv-x="360" 
d="M649 595c3.33301 -7.33301 1.49805 -12.498 -5.50195 -15.498l-17.5 -7.5c-12 -5.33301 -25 -9.33301 -39 -12c-26 -6 -53 -9 -81 -9c-4 0.666992 -8.16699 1 -12.5 1h-12.5c-1.33301 0.666992 -3.16602 1.16699 -5.49902 1.5s-4.16602 -0.166992 -5.49902 -1.5
c-0.666992 -2 -2.66699 -3.66699 -6 -5s-6 -3.33301 -8 -6l-6 -8c-7.33301 -8 -13.5 -16.833 -18.5 -26.5l-15.5 -29.5c-13.333 -28 -25.833 -56.5 -37.5 -85.5l-34.5 -88.5c16.667 0.666992 33.667 2.66699 51 6l32 7c8.66699 1.33301 13 -2.33398 13 -11.001
c0.666992 -6 -2.33301 -9.66699 -9 -11c-5.33301 -2 -10.833 -3.33301 -16.5 -4s-11.5 -1.66699 -17.5 -3c-16 -3.33301 -32.333 -5.33301 -49 -6h-6.5c-3.66699 0 -5.83398 -0.333008 -6.50098 -1c-0.666992 -3.33301 -2.33398 -7.66602 -5.00098 -12.999l-9 -24l-18 -48
c-6 -16 -12.667 -31.667 -20 -47l-16.5 -40c-5.66699 -13.333 -12.5 -26 -20.5 -38c-14 -22.667 -34 -39 -60 -49c-24.667 -9.33301 -50.5 -10.833 -77.5 -4.5s-48.833 20.166 -65.5 41.499l-10 16.5c-3.33301 5.66699 -5.66602 11.5 -6.99902 17.5
c-0.666992 3.33301 0.166016 6.33301 2.49902 9s5.16602 4 8.49902 4c5.33301 0 9.33301 -3.66699 12 -11c4.66699 -12 11.667 -22.333 21 -31s20 -15.667 32 -21c25.333 -9.33301 51 -9.33301 77 0c24.667 10.667 43.334 28.334 56.001 53.001
c7.33301 13.333 13.833 27 19.5 41l17.5 42l39 100c-22 -1.33301 -43.667 -1.33301 -65 0l-28 3c-3.33301 1.33301 -7.16602 2.33301 -11.499 3s-7.16602 2.66699 -8.49902 6c-2 4 -1.66699 7.83301 1 11.5s6 5.16699 10 4.5l24 -4c10 -1.33301 19.833 -2 29.5 -2h29.5
c4.66699 0 9.16699 0.166992 13.5 0.5s8.83301 0.5 13.5 0.5l10 25l18 48l16.5 41c5.66699 14 11.834 27.667 18.501 41c4.66699 10.667 9.5 21.167 14.5 31.5s10.167 20.166 15.5 29.499c4 7.33301 8.33301 14.333 13 21s9.66699 12.667 15 18
c-30 4 -59.667 9.16699 -89 15.5s-59 10.5 -89 12.5c-11.333 0.666992 -23.333 0.666992 -36 0s-24 -4.33398 -34 -11.001c-7.33301 -5.33301 -13.166 -11.5 -17.499 -18.5s-5.83301 -15.167 -4.5 -24.5c0.666992 -6 2.83398 -11.667 6.50098 -17s8.5 -9.33301 14.5 -12
c3.33301 -1.33301 5.66602 -3.33301 6.99902 -6s1.33301 -5.66699 0 -9s-3.33301 -5.5 -6 -6.5s-5.33398 -0.833008 -8.00098 0.5c-12.667 5.33301 -22.167 13.666 -28.5 24.999s-8.83301 23.666 -7.5 36.999c1.33301 9.33301 4.66602 18.333 9.99902 27s12 15.667 20 21
c12 8 25 13 39 15s28 2.33301 42 1c34.667 -1.33301 68.667 -5.83301 102 -13.5s67 -13.167 101 -16.5c16.667 -1.33301 33.167 -2.16602 49.5 -2.49902s32.833 0.833984 49.5 3.50098c8 1.33301 16 3 24 5s16 4.66699 24 8c4 1.33301 8.16699 2.83301 12.5 4.5
s8.5 3.5 12.5 5.5c2.66699 1.33301 5.5 1.5 8.5 0.5s5.16699 -2.83301 6.5 -5.5z" />
    <glyph glyph-name="G" unicode="G" horiz-adv-x="687" 
d="M740 180c2.66699 3.33301 6.18066 4.66602 10.5137 3.99902s7.16602 -3 8.49902 -7c2 -4.66699 1.16699 -9 -2.5 -13l-10.5 -11c-14 -16 -28.333 -30 -43 -42c-13.333 -10.667 -27.333 -20 -42 -28s-30 -14.333 -46 -19c-22 -6.66699 -44.333 -10 -67 -10
s-45.334 2.66699 -68.001 8c-4.66699 1.33301 -7.66699 1.33301 -9 0l-11 -6c-6 -3.33301 -13.333 -6.66602 -22 -9.99902c-14.667 -6 -30.667 -10 -48 -12c-12.667 -2 -25.334 -2.5 -38.001 -1.5s-24.667 4.16699 -36 9.5c-17.333 6.66699 -31.333 16.334 -42 29.001
c-4.66699 5.33301 -8.83398 11.166 -12.501 17.499s-6.5 12.833 -8.5 19.5c-2 5.33301 -3.33301 10.5 -4 15.5s0 10.167 2 15.5c2 6.66699 5.83301 10.667 11.5 12s11.5 1.66602 17.5 0.999023c6.66699 0 13.167 -0.666992 19.5 -2s12.5 -3 18.5 -5
c16 -5.33301 31.5 -11.5 46.5 -18.5s30.167 -13.5 45.5 -19.5c8.66699 -3.33301 17 -6.33301 25 -9s16.333 -5 25 -7c5.33301 -2.66699 9.66602 -3.33398 12.999 -2.00098l6 5l14 9c9.33301 7.33301 18.166 15 26.499 23s16.166 16.333 23.499 25
c16 18.667 30.667 38.334 44 59.001s25.666 42 36.999 64c36.667 73.333 64 149 82 227c-12 -7.33301 -24.667 -13.166 -38 -17.499s-26.666 -8.16602 -39.999 -11.499c-32.667 -8 -66.334 -13 -101.001 -15c-8.66699 -0.666992 -17.167 -1.16699 -25.5 -1.5
s-16.833 0.166992 -25.5 1.5l-12 2c-0.666992 -1.33301 -1.33398 -2.5 -2.00098 -3.5s-1.33398 -2.16699 -2.00098 -3.5l-8 -13l-18.5 -30c-6.33301 -10 -12.833 -19.667 -19.5 -29l-46 -63.5c-15.333 -21 -31.333 -41.5 -48 -61.5l-50.5 -58l-52.5 -57l-47 -45
c-16 -14.667 -32.667 -28.667 -50 -42c-11.333 -8 -23.333 -16 -36 -24s-26 -13 -40 -15c-4 -0.666992 -8.16699 -0.333984 -12.5 0.999023s-6.5 4.66602 -6.5 9.99902s2 8.33301 6 9s8 1.66699 12 3c5.33301 1.33301 10.5 3 15.5 5s10.167 4.33301 15.5 7
c15.333 9.33301 30.166 19.833 44.499 31.5s28.166 23.5 41.499 35.5l51.5 51.5c17 17.667 33.5 35.834 49.5 54.501c34 38 66.333 77 97 117s58.667 82 84 126c-10 3.33301 -19 8.5 -27 15.5s-14 15.167 -18 24.5c-6.66699 13.333 -8.83398 27.5 -6.50098 42.5
s7.16602 29.167 14.499 42.5c6.66699 12 16.167 23 28.5 33s26.166 13.333 41.499 10c14.667 -3.33301 25 -10.666 31 -21.999c3.33301 -6.66699 5.16602 -13.5 5.49902 -20.5s-0.166992 -13.833 -1.5 -20.5c-2.66699 -16 -7.16699 -31.5 -13.5 -46.5
s-13.166 -29.5 -20.499 -43.5c7.33301 -0.666992 14.833 -1 22.5 -1h22.5c16.667 1.33301 33 3 49 5s32 4.66699 48 8c12 3.33301 23.833 6.83301 35.5 10.5s23.167 8.5 34.5 14.5c9.33301 4.66699 16.333 9.33398 21 14.001l8.5 8.5c3 3 6.83301 2.83301 11.5 -0.5
s6.5 -7.83301 5.5 -13.5s-2.16699 -10.834 -3.5 -15.501c-7.33301 -35.333 -16.666 -70 -27.999 -104s-24.333 -67.667 -39 -101c-18.667 -42 -41.167 -83 -67.5 -123s-58.5 -74 -96.5 -102c20 -3.33301 40 -4.5 60 -3.5s39.667 5.16699 59 12.5
c24.667 8.66699 47 21.167 67 37.5s38 34.166 54 53.499zM453.014 485c7.33301 13.333 13.835 26.665 19.502 39.998s10.167 27 13.5 41c1.33301 6 2.33301 12.5 3 19.5s-1.33301 13.167 -6 18.5s-10.334 7.83301 -17.001 7.5s-12.667 -2.16602 -18 -5.49902
c-10.667 -7.33301 -19.167 -17.166 -25.5 -29.499s-9.5 -24.833 -9.5 -37.5c-0.666992 -13.333 2.66602 -24.5 9.99902 -33.5s17.333 -15.833 30 -20.5zM410.016 59.999c5.33301 1.33301 10.668 3.16602 16.001 5.49902s10.666 4.5 15.999 6.5l-28 10
c-9.33301 3.33301 -18.666 7 -27.999 11c-14.667 6 -29.334 12.333 -44.001 19s-30 11.667 -46 15c-5.33301 2 -11 3 -17 3c-3.33301 0 -6 -0.333008 -8 -1c0 -2 0.333008 -3.66699 1 -5c1.33301 -6.66699 3.5 -13 6.5 -19s6.5 -11.667 10.5 -17
c15.333 -17.333 34 -27.666 56 -30.999s43.667 -2.33301 65 3z" />
    <glyph glyph-name="H" unicode="H" horiz-adv-x="510" 
d="M563 178c2 2.66699 4.49609 3.83203 7.49609 3.49902s5.5 -1.5 7.5 -3.5s3.33301 -4.5 4 -7.5s-0.333008 -5.83301 -3 -8.5l-12 -14l-22.5 -24.5l-22.5 -23.5c-9.33301 -9.33301 -18.5 -18 -27.5 -26s-18.833 -15.333 -29.5 -22
c-8.66699 -5.33301 -17.834 -10 -27.501 -14s-19.5 -5.33301 -29.5 -4c-9.33301 0 -17.666 2.16699 -24.999 6.5s-12.666 10.833 -15.999 19.5c-3.33301 10 -4.5 20.333 -3.5 31s2.5 21 4.5 31c2.66699 14.667 6.33398 29.167 11.001 43.5s9.66699 28.5 15 42.5l18.5 49
l19.5 49c-13.333 -7.33301 -27.333 -12 -42 -14s-29.334 -3.33301 -44.001 -4c-15.333 -0.666992 -30.166 -0.833984 -44.499 -0.500977s-29.166 0.5 -44.499 0.5c-10.667 0 -21.834 -0.333008 -33.501 -1s-23 -2.33398 -34 -5.00098s-21.167 -6.66699 -30.5 -12
s-17.333 -13 -24 -23c-3.33301 -6 -6.33301 -12.167 -9 -18.5s-5.66699 -12.833 -9 -19.5l-9 -22l-12 -30l-39 -95l-9 -21c-1.33301 -3.33301 -3.5 -5.5 -6.5 -6.5s-5.83301 -1 -8.5 0s-4.66699 2.83301 -6 5.5s-1.33301 5.66699 0 9c1.33301 2.66699 2 4.66699 2 6l36 86
l50 121.5l51 121.5l52 131c1.33301 4 3 8.33301 5 13s3.66699 9.33398 5 14.001s1.66602 9.33398 0.999023 14.001s-2.66699 8.66699 -6 12c-4 4 -9 6.66699 -15 8s-11.667 2 -17 2c-8 0.666992 -16.167 0.166992 -24.5 -1.5s-16.166 -3.83398 -23.499 -6.50098
c-14.667 -4 -27.667 -10.667 -39 -20c-10.667 -6.66699 -17.334 -15 -20.001 -25c-0.666992 -4 -2.33398 -6.5 -5.00098 -7.5s-5.33398 -1.16699 -8.00098 -0.5s-5 2.33398 -7 5.00098s-2.33301 5.66699 -1 9c2.66699 10.667 9 21 19 31
c20.667 17.333 44.334 28.666 71.001 33.999c12.667 3.33301 26.334 5 41.001 5s27.667 -4 39 -12c10 -7.33301 15.833 -16.5 17.5 -27.5s0.5 -22.167 -3.5 -33.5c-6 -18 -13 -36 -21 -54l-36.5 -91.5l-37.5 -90.5c11.333 5.33301 23 9.33301 35 12s24 4.33398 36 5.00098
c13.333 1.33301 26.5 2 39.5 2s26.167 -0.333008 39.5 -1c19.333 -0.666992 39.833 -0.5 61.5 0.5s41.5 6.5 59.5 16.5c16 8.66699 27.667 22.334 35 41.001l11 25l41 96l20 48l27 63c2 4 5 6.66699 9 8s7.66699 0 11 -4c2 -2.66699 2.83301 -5.16699 2.5 -7.5
s-1.16602 -4.83301 -2.49902 -7.5l-8 -19l-21 -47l-18 -43l-68 -161c-8.66699 -19.333 -16.667 -38.666 -24 -57.999l-22 -59l-13.5 -37.5c-4.33301 -12.333 -8.16602 -24.833 -11.499 -37.5c-2 -8.66699 -3.83301 -17.667 -5.5 -27s-1.5 -18.333 0.5 -27
c2 -7.33301 6 -12.333 12 -15s12.667 -3.33398 20 -2.00098c10.667 2 20.834 6 30.501 12s18.5 12.333 26.5 19c16 13.333 31.167 27.833 45.5 43.5z" />
    <glyph glyph-name="I" unicode="I" horiz-adv-x="325" 
d="M435 568c4.66699 -17.333 5.50391 -35.834 2.50391 -55.501s-6.83301 -38.167 -11.5 -55.5c-6.66699 -24.667 -14.834 -48.834 -24.501 -72.501s-20.167 -47.167 -31.5 -70.5c-12.667 -25.333 -26.167 -50.166 -40.5 -74.499s-29.833 -47.833 -46.5 -70.5
c-16 -20.667 -33.333 -41 -52 -61c-2.66699 -2.66699 -3.66699 -4.66699 -3 -6c0 -1.33301 0.166992 -2.16602 0.5 -2.49902s0.5 -1.16602 0.5 -2.49902c0.666992 -2 1.16699 -3.83301 1.5 -5.5s0.5 -3.5 0.5 -5.5l3.5 -9l3.5 -9c2 -4 4.5 -8 7.5 -12
s6.83301 -6.66699 11.5 -8c2.66699 -1.33301 5.33398 -2 8.00098 -2s5 -1.33301 7 -4c4.66699 -6 4 -11.333 -2 -16c-3.33301 -2.66699 -7.5 -3.33398 -12.5 -2.00098s-9.16699 2.66602 -12.5 3.99902c-10.667 5.33301 -18.834 13.333 -24.501 24
s-9.83398 21.667 -12.501 33c-20.667 -18.667 -43.5 -35 -68.5 -49s-52.167 -20.333 -81.5 -19c-12.667 0.666992 -24.834 3.33398 -36.501 8.00098s-22.167 11 -31.5 19s-16.666 17.5 -21.999 28.5s-8 23.167 -8 36.5c0 14.667 3.66699 28.334 11 41.001
c2 2.66699 4.5 4.66699 7.5 6s6.16699 1 9.5 -1c6 -4.66699 7 -10 3 -16c-7.33301 -12 -9.83301 -25 -7.5 -39s8.16602 -26 17.499 -36c10 -10 21.5 -16.833 34.5 -20.5s26.167 -4.66699 39.5 -3s26.5 5 39.5 10s24.833 10.833 35.5 17.5c12.667 8 26 18 40 30l11 10
c2 2 3 3.66699 3 5c0 0.666992 -0.166992 1.33398 -0.5 2.00098s-0.5 1.66699 -0.5 3c-0.666992 3.33301 -1 7 -1 11v11c-0.666992 11.333 -0.833984 22.666 -0.500977 33.999s1.16602 22.666 2.49902 33.999c2.66699 25.333 6.33398 50.166 11.001 74.499
s10.334 48.5 17.001 72.5c6 24 13 47.667 21 71s17.667 46 29 68c8 16.667 17.167 33.334 27.5 50.001s23.166 30.667 38.499 42c11.333 9.33301 23.666 15 36.999 17c12.667 2 23.334 -0.333008 32.001 -7s14.667 -16 18 -28zM225.004 132.999
c23.333 25.333 44.334 52.1689 63.001 80.502s35.667 57.5 51 87.5c12 23.333 23.167 47.166 33.5 71.499s19.166 49.166 26.499 74.499c3.33301 10 6.16602 20 8.49902 30s4.16602 20.333 5.49902 31c1.33301 9.33301 2.5 19.833 3.5 31.5s-1.16699 22.167 -6.5 31.5
c-3.33301 7.33301 -8.83301 10.833 -16.5 10.5s-14.834 -2.16602 -21.501 -5.49902c-11.333 -6.66699 -22 -16.667 -32 -30c-13.333 -16.667 -24.666 -34.834 -33.999 -54.501s-17.666 -39.167 -24.999 -58.5c-9.33301 -24.667 -17.5 -49.667 -24.5 -75
s-13.167 -50.666 -18.5 -75.999c-5.33301 -24.667 -9.16602 -49.334 -11.499 -74.001s-2.83301 -49.667 -1.5 -75z" />
    <glyph glyph-name="J" unicode="J" horiz-adv-x="393" 
d="M407 595c11.333 -5.33301 21.8301 -12.166 31.4971 -20.499s17.167 -18.5 22.5 -30.5c7.33301 -15.333 10.666 -31 9.99902 -47s-3.33398 -31.667 -8.00098 -47c-8.66699 -28.667 -18 -57.167 -28 -85.5l-31 -84.5l-78 -192c22 10.667 42.833 22.5 62.5 35.5
s37.167 29.167 52.5 48.5c4 4.66699 8.33301 6.33398 13 5.00098c6.66699 -1.33301 9.33398 -5.66602 8.00098 -12.999c-0.666992 -2.66699 -2.16699 -5.33398 -4.5 -8.00098s-4.5 -5 -6.5 -7c-1.33301 -2 -3.16602 -4.16699 -5.49902 -6.5l-6.5 -6.5
c-16 -16 -34 -30 -54 -42c-6 -4 -12.167 -7.66699 -18.5 -11l-18.5 -10l-21 -9c-2.66699 -1.33301 -5.33398 -2.5 -8.00098 -3.5s-4.66699 -2.83301 -6 -5.5l-32 -75c-10 -24 -20.833 -48.167 -32.5 -72.5s-25.167 -47.166 -40.5 -68.499
c-13.333 -18 -29.166 -34.333 -47.499 -49s-39.166 -23 -62.499 -25c-13.333 -1.33301 -26 0.666992 -38 6s-21 14.333 -27 27c-5.33301 11.333 -7.66602 23.5 -6.99902 36.5s3.33398 25.167 8.00098 36.5c5.33301 14 12.666 27 21.999 39s19.333 23.333 30 34
c12.667 11.333 25.667 22.333 39 33s27 20.667 41 30c24 15.333 49.333 29.666 76 42.999l36 16c2.66699 1.33301 6.16699 2.83301 10.5 4.5s7.16602 3.5 8.49902 5.5l9 22l39 94l37 94l31 83c10 27.333 19 55 27 83c4 13.333 6.66699 27.166 8 41.499s-1 28.166 -7 41.499
c-11.333 22 -29.333 36.333 -54 43c-22 6.66699 -44.5 7.16699 -67.5 1.5s-43.167 -15.5 -60.5 -29.5c-20.667 -16 -36.5 -35.833 -47.5 -59.5s-18.167 -48.167 -21.5 -73.5c-4 -24.667 -5.16699 -49.334 -3.5 -74.001s5.16699 -49 10.5 -73
c7.33301 -32 16.833 -63.333 28.5 -94s25.834 -60 42.501 -88c2 -3.33301 2.66699 -7 2 -11c-1.33301 -5.33301 -4.5 -8.16602 -9.5 -8.49902s-8.83301 1.83398 -11.5 6.50098l-10 18c-8 15.333 -15.333 30.5 -22 45.5s-13 30.5 -19 46.5c-8 22.667 -15 46.167 -21 70.5
s-10.167 48.666 -12.5 72.999s-2.33301 48.833 0 73.5s7.83301 48.667 16.5 72c9.33301 24.667 22 47 38 67s36 35.667 60 47c19.333 9.33301 40.333 15 63 17s44.334 -1.33301 65.001 -10zM132.997 -200c17.333 9.33301 32.334 21.6729 45.001 37.0059
s23.667 31.666 33 48.999c14.667 25.333 27.667 51.166 39 77.499l34 80.5l-45 -21.5c-14.667 -7 -29 -14.833 -43 -23.5s-27.667 -17.667 -41 -27s-26.333 -19.666 -39 -30.999c-11.333 -10.667 -22.166 -21.834 -32.499 -33.501s-18.833 -24.834 -25.5 -39.501
c-4.66699 -10 -7.83398 -21.333 -9.50098 -34s1.16602 -23.667 8.49902 -33c4.66699 -6 10.167 -9.83301 16.5 -11.5s13 -2.33398 20 -2.00098s14 1.66602 21 3.99902s13.167 5.16602 18.5 8.49902z" />
    <glyph glyph-name="K" unicode="K" horiz-adv-x="445" 
d="M533 585c2 3.33301 4.82227 5 8.48926 5s6.83398 -1.33301 9.50098 -4c2.66699 -4.66699 2.33398 -10 -0.999023 -16l-15 -17l-22 -22l-23 -22l-59.5 -51.5c-20.333 -17 -41.166 -33.167 -62.499 -48.5c-22 -16 -44.5 -31.5 -67.5 -46.5s-46.5 -28.5 -70.5 -40.5
c19.333 -4 34.666 -13.167 45.999 -27.5s19 -30.833 23 -49.5c2 -8.66699 3.83301 -17.167 5.5 -25.5s3.16699 -16.833 4.5 -25.5c2 -13.333 4.16699 -26.5 6.5 -39.5s5.16602 -25.833 8.49902 -38.5c1.33301 -6 2.83301 -11.833 4.5 -17.5s3.83398 -11.167 6.50098 -16.5
c1.33301 -4 3 -7.83301 5 -11.5s4.66699 -6.83398 8 -9.50098c7.33301 -6 15.833 -7 25.5 -3s17.834 8 24.501 12c10.667 7.33301 20.5 15.666 29.5 24.999s17.833 19 26.5 29c6.66699 7.33301 12.834 14.5 18.501 21.5s11.834 14.167 18.501 21.5
c1.33301 2 3.33301 4.66699 6 8s5.66699 5.33301 9 6c6 1.33301 9.83301 -0.666992 11.5 -6s0.833984 -10 -2.49902 -14l-44 -53c-14.667 -18 -31 -34 -49 -48c-9.33301 -7.33301 -19.5 -13.833 -30.5 -19.5s-22.5 -7.83398 -34.5 -6.50098
c-10 1.33301 -18 4.83301 -24 10.5s-11.333 12.834 -16 21.501c-5.33301 11.333 -9.5 23 -12.5 35s-5.83301 24.333 -8.5 37l-12 66l-4 24c-1.33301 8 -3.33301 15.667 -6 23c-4 12.667 -10.5 23.5 -19.5 32.5s-20.167 14.833 -33.5 17.5
c-7.33301 1.33301 -14.666 1.5 -21.999 0.5s-14.666 -2.5 -21.999 -4.5l-19 -8c-2.66699 -0.666992 -4.66699 -2.66699 -6 -6l-5 -12l-30 -71l-67 -161l-3 -8c-2 -4.66699 -5.5 -7.16699 -10.5 -7.5s-8.5 2.16699 -10.5 7.5c-1.33301 3.33301 -1 7 1 11
s3.66699 7.66699 5 11l38 92l48 114l47 114l28.5 69l28.5 69c3.33301 7.33301 6.83301 15.666 10.5 24.999s4.83398 18 3.50098 26c-1.33301 6.66699 -4.66602 11.5 -9.99902 14.5s-11.333 5 -18 6s-13.5 1.16699 -20.5 0.5s-12.833 -1.33398 -17.5 -2.00098
c-13.333 -3.33301 -27.166 -8.16602 -41.499 -14.499s-25.166 -15.166 -32.499 -26.499c-1.33301 -2 -2.33301 -4.33301 -3 -7s-1.66699 -5 -3 -7c-4.66699 -6 -10 -7 -16 -3c-5.33301 4 -6.5 9.5 -3.5 16.5s5.83301 12.167 8.5 15.5c8 10.667 17.833 19.334 29.5 26.001
s23.5 12 35.5 16c13.333 4.66699 27.333 7.83398 42 9.50098s28.667 -0.166016 42 -5.49902c10.667 -4 18.667 -10.333 24 -19s7.33301 -18.667 6 -30c-1.33301 -10 -4 -20 -8 -30s-7.66699 -19.667 -11 -29l-35 -87l-37 -86c15.333 5.33301 30.5 11.5 45.5 18.5
s29.5 14.5 43.5 22.5c16.667 10 33 20.333 49 31s31.667 21.667 47 33c39.333 29.333 76.666 59.666 111.999 90.999l36 32.5c12 11 23 23.167 33 36.5z" />
    <glyph glyph-name="L" unicode="L" horiz-adv-x="542" 
d="M595 177c4.66699 5.33301 9.66406 5.84082 14.9971 1.50781s6.33301 -9.16602 3 -14.499c-1.33301 -2.66699 -3 -4.83398 -5 -6.50098s-3.66699 -3.5 -5 -5.5l-37 -44l-27.5 -29.5c-9 -9.66699 -19.167 -18.167 -30.5 -25.5c-22.667 -16 -47 -24.333 -73 -25
c-16.667 -0.666992 -32.667 1.16602 -48 5.49902s-30.166 10 -44.499 17s-28.333 15 -42 24l-40.5 25.5c-1.33301 0.666992 -2.33301 1.5 -3 2.5s-1.66699 0.833008 -3 -0.5l-4 -5l-7 -9l-16 -17c-10.667 -10.667 -22 -20 -34 -28c-13.333 -8 -27.5 -14.333 -42.5 -19
s-30.167 -6.66699 -45.5 -6c-13.333 0 -25.833 2.5 -37.5 7.5s-21.167 13.167 -28.5 24.5c-8 11.333 -12.5 24.166 -13.5 38.499s1.5 28.166 7.5 41.499c6.66699 13.333 15.667 23.5 27 30.5s23.833 11.667 37.5 14s27.667 2.66602 42 0.999023s27.5 -4.5 39.5 -8.5
c8 -2.66699 15.833 -5.66699 23.5 -9s15.167 -7 22.5 -11l23 -13c1.33301 -0.666992 2.33301 0 3 2l3 4l6 10c8.66699 13.333 16.5 27.166 23.5 41.499l20.5 43.5c14 32 27 64.5 39 97.5s24.667 65.833 38 98.5c-25.333 -4 -51 -6.33301 -77 -7s-51.667 1.66602 -77 6.99902
c-12.667 2.66699 -25 6.16699 -37 10.5s-23.667 10.166 -35 17.499c-5.33301 3.33301 -10.166 7.5 -14.499 12.5s-7.83301 10.5 -10.5 16.5c-1.33301 3.33301 -2.66602 7.83301 -3.99902 13.5s-0.333008 10.167 3 13.5c5.33301 6 11 6 17 0
c2 -2.66699 2.83301 -5.5 2.5 -8.5s0.166992 -6.16699 1.5 -9.5c2.66699 -5.33301 6.5 -10 11.5 -14s10.167 -7.66699 15.5 -11c11.333 -6 23 -10.5 35 -13.5s24 -5.5 36 -7.5c16 -2.66699 32 -4 48 -4s32.333 0.666992 49 2l27 3l13 2c1.33301 0 2.33301 0.166992 3 0.5
s1.66699 0.5 3 0.5l3 6c6 14.667 13 29.667 21 45c11.333 24 25.333 47.167 42 69.5s38.334 38.166 65.001 47.499c10.667 3.33301 21.667 5 33 5s21.666 -3.66699 30.999 -11c8.66699 -7.33301 13.667 -16.5 15 -27.5s0.333008 -21.5 -3 -31.5
c-4.66699 -14 -11.5 -26.333 -20.5 -37s-19.333 -20.334 -31 -29.001s-24.167 -16.167 -37.5 -22.5s-26.333 -11.833 -39 -16.5c-16.667 -6 -33 -11 -49 -15l-14 -3l-4 -12c-2 -3.33301 -3.83301 -7 -5.5 -11s-3.16699 -8 -4.5 -12l-38 -100l-39 -92
c-13.333 -30 -29.333 -59 -48 -87l36 -22l37 -22c14 -7.33301 28.667 -13.666 44 -18.999s31 -8 47 -8c27.333 0.666992 52 10.667 74 30c12 9.33301 23.167 20 33.5 32l30.5 36zM161.997 53.0078c15.333 6 29 14.667 41 26s23 23.333 33 36c-13.333 8 -26.333 15 -39 21
c-14 6.66699 -29 12 -45 16s-31.667 4.66699 -47 2c-12 -2 -23.167 -6.5 -33.5 -13.5s-17.5 -16.5 -21.5 -28.5c-4 -13.333 -3.5 -26.333 1.5 -39s13.833 -21.667 26.5 -27c13.333 -6 27.5 -7.66699 42.5 -5s28.833 6.66699 41.5 12zM512.997 595.008
c-10.667 -5.33301 -20.001 -12.4971 -28.001 -21.4971s-15.667 -18.5 -23 -28.5c-8.66699 -13.333 -16.5 -27 -23.5 -41l-20.5 -43c15.333 4 30.5 8.66699 45.5 14s29.167 11.666 42.5 18.999c11.333 6 22.333 13 33 21s19.667 17.333 27 28
c4.66699 7.33301 8.66699 15.833 12 25.5s2.33301 18.5 -3 26.5c-3.33301 5.33301 -7.66602 8.66602 -12.999 9.99902s-11 1.66602 -17 0.999023s-11.833 -2.16699 -17.5 -4.5s-10.5 -4.5 -14.5 -6.5z" />
    <glyph glyph-name="M" unicode="M" horiz-adv-x="674" 
d="M744 173c2 -4 1.50293 -7.66992 -1.49707 -11.0029s-5.83301 -6.66602 -8.5 -9.99902l-10 -11.5l-10 -11.5l-32 -34c-10.667 -11.333 -22 -22 -34 -32c-9.33301 -8 -19.333 -15.667 -30 -23s-22.334 -12 -35.001 -14c-10 -1.33301 -20 0.166992 -30 4.5
s-17 11.5 -21 21.5c-2.66699 6 -4.16699 12.333 -4.5 19s0.166992 13 1.5 19c1.33301 10 3.33301 19.833 6 29.5s5.66699 19.167 9 28.5c10 29.333 21 58.166 33 86.499l37 84.5l21 49l20 49c6.66699 15.333 12.667 30.666 18 45.999s9.66602 31 12.999 47
c1.33301 9.33301 2.33301 19.666 3 30.999s-2 21.333 -8 30c-3.33301 4.66699 -7.83301 8 -13.5 10s-11.5 2.66699 -17.5 2s-12.167 -1.83398 -18.5 -3.50098s-11.833 -3.5 -16.5 -5.5c-22 -9.33301 -41.833 -22.333 -59.5 -39s-33.834 -34 -48.501 -52
c-13.333 -17.333 -25.833 -35 -37.5 -53s-22.5 -36.667 -32.5 -56c-13.333 -24 -25.166 -48.833 -35.499 -74.5s-21.166 -51.167 -32.499 -76.5l-38.5 -94l-39.5 -93l-7 -17c-1.33301 -3.33301 -2.83301 -6 -4.5 -8s-4.16699 -2.66699 -7.5 -2
c-8.66699 0 -12.334 4.33301 -11.001 13c0.666992 2.66699 1.5 5.16699 2.5 7.5s2.16699 4.83301 3.5 7.5l35 82l40.5 97.5l41.5 97.5c11.333 28 23.166 55.5 35.499 82.5s21.166 55.5 26.499 85.5c2.66699 11.333 4.33398 23.333 5.00098 36s-0.666016 24.667 -3.99902 36
c-1.33301 5.33301 -3.33301 10 -6 14s-6.66699 7.33301 -12 10c-5.33301 3.33301 -10.833 5.16602 -16.5 5.49902s-11.167 -0.166992 -16.5 -1.5c-22 -3.33301 -42.167 -12.666 -60.5 -27.999s-34.5 -31 -48.5 -47c-19.333 -23.333 -37.166 -47.666 -53.499 -72.999
s-31.5 -51.333 -45.5 -78c-19.333 -37.333 -37 -75.5 -53 -114.5l-48 -117.5l-18 -43.5l-19 -43.5l-3 -8c-1.33301 -4 -4.16602 -6.5 -8.49902 -7.5s-8.16602 0.5 -11.499 4.5c-2.66699 3.33301 -3 7.33301 -1 12l5 12l66 158l63 149l61 150
c3.33301 7.33301 6.83301 15.5 10.5 24.5s5.16699 17.5 4.5 25.5c-0.666992 6.66699 -3.33398 11.834 -8.00098 15.501s-10.167 6 -16.5 7s-13 1.33301 -20 1s-12.833 -0.833008 -17.5 -1.5c-13.333 -2.66699 -27.166 -7 -41.499 -13s-25.833 -14.667 -34.5 -26
c-1.33301 -2 -2.66602 -4.5 -3.99902 -7.5s-2.66602 -5.66699 -3.99902 -8s-3.16602 -4 -5.49902 -5s-5.16602 -0.833008 -8.49902 0.5c-6.66699 2.66699 -8.83398 7.5 -6.50098 14.5s5.16602 12.5 8.49902 16.5c7.33301 10.667 16.833 19.5 28.5 26.5
s23.167 12.5 34.5 16.5c13.333 4.66699 27.333 7.83398 42 9.50098s28.667 0.166992 42 -4.5c10.667 -3.33301 19.167 -9 25.5 -17s9.16602 -17.667 8.49902 -29c-0.666992 -7.33301 -2 -14 -4 -20s-4.33301 -12 -7 -18l-17 -43c12.667 18.667 26.667 36.667 42 54
c8.66699 10 18.334 20 29.001 30s22.167 19 34.5 27s25.166 14.167 38.499 18.5s27.333 5.5 42 3.5c16.667 -2 29.167 -8.33301 37.5 -19s13.666 -23 15.999 -37s2.66602 -28.833 0.999023 -44.5s-3.83398 -29.5 -6.50098 -41.5c18 26.667 38.667 52.334 62 77.001
s50.333 43 81 55c11.333 5.33301 23.833 8.83301 37.5 10.5s26.167 -0.5 37.5 -6.5c8 -4.66699 14.167 -10.834 18.5 -18.501s7.16602 -16.167 8.49902 -25.5c2 -13.333 1.83301 -26.666 -0.5 -39.999s-5.16602 -26.666 -8.49902 -39.999c-5.33301 -16 -11 -32 -17 -48
s-12.667 -31.667 -20 -47c-12 -30 -24.333 -59.167 -37 -87.5s-25 -57.5 -37 -87.5c-5.33301 -12.667 -10.333 -25.167 -15 -37.5s-9 -25.166 -13 -38.499c-3.33301 -8.66699 -6.16602 -17.667 -8.49902 -27s-3.5 -18.666 -3.5 -27.999
c0 -2.66699 0.166992 -5.33398 0.5 -8.00098s1.16602 -5 2.49902 -7c3.33301 -5.33301 7.66602 -8.66602 12.999 -9.99902s10.666 -1.33301 15.999 0c11.333 2.66699 21.833 7.66699 31.5 15s18.834 14.666 27.501 21.999c10.667 10 21 20.333 31 31l29 32l18 20
c3.33301 3.33301 6.66602 6.5 9.99902 9.5s7.33301 2.5 12 -1.5z" />
    <glyph glyph-name="N" unicode="N" horiz-adv-x="428" 
d="M483 179c2.66699 2.66699 5.49414 4.00293 8.49414 4.00293s5.5 -1 7.5 -3s3.16699 -4.5 3.5 -7.5s-0.5 -5.83301 -2.5 -8.5l-13 -14l-49 -54c-9.33301 -9.33301 -18.833 -18.166 -28.5 -26.499s-20.167 -15.833 -31.5 -22.5
c-9.33301 -5.33301 -19.333 -9.83301 -30 -13.5s-21.334 -3.83398 -32.001 -0.500977c-8 2.66699 -14.667 6.66699 -20 12s-8.66602 12.333 -9.99902 21c-1.33301 7.33301 -1.33301 15 0 23s3 15.667 5 23c3.33301 11.333 6.83301 22.5 10.5 33.5
s7.83398 22.167 12.501 33.5c6 15.333 12.167 30.333 18.5 45l19.5 45l42 97.5c14 32.333 26.333 65.5 37 99.5c4 13.333 7.66699 27 11 41s4.33301 28 3 42c-1.33301 9.33301 -4.16602 17.666 -8.49902 24.999s-11.833 11.333 -22.5 12
c-12 0.666992 -24.167 -1.5 -36.5 -6.5s-23.5 -10.833 -33.5 -17.5s-19.5 -14 -28.5 -22s-17.5 -16.667 -25.5 -26c-16 -17.333 -30.833 -35.5 -44.5 -54.5s-26.167 -38.833 -37.5 -59.5c-4.66699 -7.33301 -9 -14.5 -13 -21.5s-7.66699 -14.5 -11 -22.5l-41 -97l-19.5 -46
l-18.5 -46l-41 -98l-14 -34l-3 -6c-1.33301 -2.66699 -3.16602 -4.5 -5.49902 -5.5s-4.83301 -1.16699 -7.5 -0.5s-4.83398 2 -6.50098 4s-2.16699 4.66699 -1.5 8c0 3.33301 0.833008 6.5 2.5 9.5s3.16699 6.16699 4.5 9.5l18 42l39 94l62 148l61 148
c3.33301 9.33301 7 18.666 11 27.999s7.66699 19 11 29c1.33301 5.33301 1.66602 11 0.999023 17s-3.66699 11 -9 15c-5.33301 3.33301 -11.166 5.33301 -17.499 6s-12.5 1 -18.5 1c-14.667 -1.33301 -29.667 -4.5 -45 -9.5s-28.666 -12.5 -39.999 -22.5l-6 -6
c-2 -2 -3.66699 -4.33301 -5 -7s-2.33301 -5.16699 -3 -7.5s-1.66699 -4.5 -3 -6.5c-2.66699 -2.66699 -5.66699 -3.83398 -9 -3.50098s-6 1.83301 -8 4.5s-2.83301 5.33398 -2.5 8.00098s1.16602 5.33398 2.49902 8.00098c5.33301 12 13.333 22 24 30s21.667 14.333 33 19
c12.667 6 26.334 10.5 41.001 13.5s29 3.16699 43 0.5c10.667 -1.33301 20.334 -5 29.001 -11s14 -14.667 16 -26c1.33301 -6.66699 1.5 -13.334 0.5 -20.001s-2.83301 -13.334 -5.5 -20.001l-16 -40c12 16.667 25 32.5 39 47.5s29.333 28.5 46 40.5
c8.66699 6 19.5 12.333 32.5 19s26.167 11.334 39.5 14.001s26 2.33398 38 -0.999023s21.333 -11.666 28 -24.999c5.33301 -10 8 -20.5 8 -31.5s-0.666992 -21.833 -2 -32.5c-2.66699 -16.667 -6.5 -33 -11.5 -49s-10.167 -31.667 -15.5 -47
c-12 -32.667 -25 -64.834 -39 -96.501l-41 -95.5c-6 -13.333 -11.833 -27 -17.5 -41l-16.5 -42l-10 -32c-3.33301 -10.667 -5.66602 -21.667 -6.99902 -33c-1.33301 -6.66699 -0.666016 -12.667 2.00098 -18c2.66699 -4.66699 6.5 -7.66699 11.5 -9s10.167 -1.33301 15.5 0
c10.667 1.33301 20.667 5.16602 30 11.499s18 13.166 26 20.499c16.667 14 32.167 29 46.5 45z" />
    <glyph glyph-name="O" unicode="O" horiz-adv-x="378" 
d="M528 545c4 0.666992 7 -0.00585938 9 -2.00586s3.33301 -4.66699 4 -8s0.833984 -6.66602 0.500977 -9.99902s-0.833008 -6.33301 -1.5 -9c-2.66699 -10 -7.33398 -21 -14.001 -33c-14.667 -22 -33.667 -41.667 -57 -59c-3.33301 -2 -6.5 -4 -9.5 -6
s-6.16699 -3.66699 -9.5 -5l-9 -4c-2 -1.33301 -3.33301 -3.33301 -4 -6l-9 -36c-6.66699 -26 -14.667 -51.5 -24 -76.5s-19.666 -49.5 -30.999 -73.5c-12 -23.333 -25.333 -45.833 -40 -67.5s-31.334 -42.167 -50.001 -61.5c-17.333 -17.333 -36.833 -32.666 -58.5 -45.999
s-45.167 -21.333 -70.5 -24c-13.333 -1.33301 -26.666 -0.333008 -39.999 3s-25.333 9.66602 -36 18.999c-8.66699 7.33301 -16 15.5 -22 24.5s-11.333 18.5 -16 28.5c-9.33301 25.333 -14.166 51.666 -14.499 78.999s1.5 54 5.5 80c5.33301 33.333 13.833 65.833 25.5 97.5
s25.167 62.5 40.5 92.5c11.333 22 24.333 43.167 39 63.5s31.334 38.833 50.001 55.5c19.333 17.333 41.5 32.5 66.5 45.5s51.5 18.167 79.5 15.5c3.33301 0 7.33301 -0.333008 12 -1s8 -2.66699 10 -6c1.33301 -3.33301 1.66602 -6.66602 0.999023 -9.99902
s-2.66699 -5.66602 -6 -6.99902c-2.66699 -0.666992 -6 -0.333984 -10 0.999023c-1.33301 0 -2.66602 0.166992 -3.99902 0.5s-2.66602 0.5 -3.99902 0.5c-10 1.33301 -19.833 0.833008 -29.5 -1.5s-19.167 -5.16602 -28.5 -8.49902c-20 -8 -38.5 -18.667 -55.5 -32
s-32.5 -28.333 -46.5 -45s-26.667 -34.5 -38 -53.5s-21.333 -37.833 -30 -56.5c-13.333 -28.667 -24.666 -58 -33.999 -88s-15.666 -60.667 -18.999 -92c-2.66699 -20.667 -3.33398 -41.167 -2.00098 -61.5s5.66602 -40.166 12.999 -59.499
c5.33301 -13.333 12.666 -25.333 21.999 -36c17.333 -19.333 39.666 -28 66.999 -26c25.333 2 48.666 10.333 69.999 25s40 31 56 49c18.667 19.333 34.834 40.5 48.501 63.5s26.167 46.833 37.5 71.5c22.667 48.667 39.667 99.334 51 152.001c-16 -2 -31 0 -45 6
s-26 15.667 -36 29c-9.33301 12.667 -14.833 26.834 -16.5 42.501s-0.5 31.167 3.5 46.5c3.33301 13.333 8.83301 26 16.5 38s17.5 21.333 29.5 28c8.66699 4.66699 17.667 6.83398 27 6.50098s17.666 -3.5 24.999 -9.5c8 -6 14 -13.833 18 -23.5s7 -19.5 9 -29.5
c3.33301 -16.667 4.5 -33.334 3.5 -50.001s-2.83301 -33.334 -5.5 -50.001c12.667 6.66699 24.167 14.834 34.5 24.501s19.166 20.167 26.499 31.5c6 8 10.667 17.333 14 28c1.33301 4.66699 2 9.83398 2 15.501s3 9.16699 9 10.5zM418 425.994
c2.66699 15.333 4.66992 30.499 6.00293 45.499s1.33301 30.167 0 45.5c-0.666992 4.66699 -1.33398 9.83398 -2.00098 15.501s-2 11.334 -4 17.001s-4.66699 10.667 -8 15s-7.33301 7.5 -12 9.5c-6.66699 2.66699 -12.834 2.66699 -18.501 0s-10.834 -6.5 -15.501 -11.5
s-8.66699 -10.667 -12 -17s-6 -11.833 -8 -16.5c-4.66699 -12 -7 -25 -7 -39s4 -26.667 12 -38c16.667 -24.667 39.667 -33.334 69 -26.001z" />
    <glyph glyph-name="P" unicode="P" horiz-adv-x="328" 
d="M450 602c8.66699 -6 15.1689 -13.8262 19.502 -23.4932s7 -20 8 -31s0.666992 -22.167 -1 -33.5s-3.5 -21.333 -5.5 -30c-6.66699 -29.333 -17 -57.333 -31 -84s-30.333 -51.667 -49 -75c-17.333 -22.667 -37.166 -43.167 -59.499 -61.5s-46.833 -32.833 -73.5 -43.5
c-18.667 -8.66699 -37.667 -13.334 -57 -14.001c-8 -1.33301 -16.167 -1.33301 -24.5 0s-15.833 4.66602 -22.5 9.99902c-4 3.33301 -7.5 8.33301 -10.5 15s-2.16699 12.334 2.5 17.001c5.33301 5.33301 11 5 17 -1c1.33301 -2 1.83301 -4 1.5 -6s0.166992 -3.66699 1.5 -5
c3.33301 -5.33301 9.5 -8.16602 18.5 -8.49902s16.167 0.166992 21.5 1.5c22.667 3.33301 44.334 10.666 65.001 21.999s39.667 24.666 57 39.999c23.333 20.667 44.166 44.167 62.499 70.5s33.166 54.5 44.499 84.5c4.66699 11.333 8.66699 23 12 35s5.66602 24 6.99902 36
c1.33301 10 1.5 20.833 0.5 32.5s-5.16699 21.5 -12.5 29.5c-8.66699 9.33301 -19.334 13.166 -32.001 11.499s-24 -5.16699 -34 -10.5c-8 -4.66699 -15.667 -9.83398 -23 -15.501s-14.666 -11.834 -21.999 -18.501c-18 -17.333 -34.667 -35.666 -50 -54.999
s-29.666 -39.666 -42.999 -60.999c-29.333 -43.333 -56.333 -90 -81 -140l-21.5 -48.5l-21.5 -49.5l-38 -90l-28 -69c-2 -4 -5.33301 -6.33301 -10 -7s-8.33398 1.33301 -11.001 6c-2 3.33301 -1.66699 7.33301 1 12l12 29l71 172l71 169l25 59.5
c8 19.667 15.667 39.5 23 59.5l5.5 15c1.66699 4.66699 2.16699 9.66699 1.5 15c-1.33301 6 -3.83301 10.5 -7.5 13.5s-8.16699 5.16699 -13.5 6.5c-14.667 4 -30 4.16699 -46 0.5s-30.333 -9.16699 -43 -16.5l-16 -10.5c-5.33301 -3.66699 -9.66602 -8.16699 -12.999 -13.5
c-2 -2 -3.33301 -4.16699 -4 -6.5s-1.66699 -4.83301 -3 -7.5s-3.5 -4.33398 -6.5 -5.00098s-5.83301 -0.333984 -8.5 0.999023c-6 3.33301 -7.66699 8.5 -5 15.5s5.33398 12.5 8.00098 16.5c4 5.33301 8.33301 10 13 14s9.66699 7.66699 15 11
c12 7.33301 25 13.166 39 17.499s27.667 7.16602 41 8.49902c11.333 0.666992 23.166 -0.333008 35.499 -3s22.166 -9 29.499 -19c7.33301 -10.667 9.66602 -21.667 6.99902 -33s-5.66699 -22 -9 -32l-33 -81c15.333 23.333 31.833 46.333 49.5 69
s37.167 43.334 58.5 62.001c8 7.33301 17 14.333 27 21s20.5 12 31.5 16s22.167 5.66699 33.5 5s22.333 -4.33398 33 -11.001z" />
    <glyph glyph-name="Q" unicode="Q" horiz-adv-x="422" 
d="M473 174c3.33301 4 7.49512 5.1582 12.4951 3.49121s7.5 -5.16699 7.5 -10.5c0 -3.33301 -0.833008 -6 -2.5 -8s-3.5 -4 -5.5 -6l-11 -14c-7.33301 -8 -14.333 -16.167 -21 -24.5s-14 -16.5 -22 -24.5c-12.667 -12.667 -26.167 -23.667 -40.5 -33
s-30.166 -16 -47.499 -20c-16.667 -4 -33.167 -5.33301 -49.5 -4s-32.5 4.33301 -48.5 9l-42 13l-10 3l-6 2l-5 -3c-4 -2.66699 -7.83301 -4.83398 -11.5 -6.50098l-11.5 -5.5c-12 -6 -24.667 -11.167 -38 -15.5s-26.666 -6.16602 -39.999 -5.49902
c-9.33301 0 -18.833 1.33301 -28.5 4s-17.167 8 -22.5 16c-6.66699 10.667 -6.66699 20.334 0 29.001s14.334 15 23.001 19c12 5.33301 24.667 8.33301 38 9s26.333 0 39 -2l26 -6l11 -3l11 -4c2 -0.666992 3.66699 -1.16699 5 -1.5s3 0.166992 5 1.5
c9.33301 6 18.333 12.167 27 18.5s17.334 13.166 26.001 20.499c41.333 35.333 77.166 76 107.499 122s52.5 95.333 66.5 148c3.33301 13.333 6.33301 27.5 9 42.5s3.83398 29.833 3.50098 44.5s-2.5 29 -6.5 43s-10.667 27 -20 39c-17.333 20 -38.666 31.667 -63.999 35
c-14.667 1.33301 -29.167 0 -43.5 -4s-27.833 -9.66699 -40.5 -17c-22.667 -13.333 -42.5 -29.666 -59.5 -48.999s-31.833 -40.333 -44.5 -63c-22 -41.333 -36.667 -85.333 -44 -132c-2.66699 -15.333 -4.33398 -31.833 -5.00098 -49.5s2 -34.167 8 -49.5
c1.33301 -3.33301 3.33301 -7.16602 6 -11.499s6.66699 -6.16602 12 -5.49902c6 1.33301 10.333 -0.666992 13 -6c2 -6.66699 0 -11.667 -6 -15c-3.33301 -1.33301 -7.16602 -1.66602 -11.499 -0.999023s-8.16602 1.66699 -11.499 3
c-5.33301 2.66699 -9.83301 6.33398 -13.5 11.001s-6.83398 9.66699 -9.50098 15c-6 15.333 -9 31.5 -9 48.5s1 33.5 3 49.5c2.66699 22.667 7.16699 45 13.5 67s14.166 43.333 23.499 64c10.667 22 23.167 43.167 37.5 63.5s30.833 38.5 49.5 54.5
c22 18 47.333 32.167 76 42.5s57 10.5 85 0.5c26 -9.33301 45.833 -25.333 59.5 -48s21.5 -47 23.5 -73c1.33301 -16 0.833008 -32.167 -1.5 -48.5s-5.16602 -32.166 -8.49902 -47.499s-7.5 -30 -12.5 -44s-10.5 -28 -16.5 -42
c-21.333 -47.333 -48.833 -91.166 -82.5 -131.499s-72.167 -75.166 -115.5 -104.499c15.333 -5.33301 30.5 -10.166 45.5 -14.499s30.5 -6.5 46.5 -6.5c24 0 46.333 5.33301 67 16c9.33301 5.33301 17.833 11.333 25.5 18s15.167 13.667 22.5 21
c10 10.667 19.333 21.167 28 31.5zM84.9951 45.9912c12.667 0 25.168 2.5 37.501 7.5s24.166 10.167 35.499 15.5c-14 4 -28.667 7 -44 9s-30 1 -44 -3c-1.33301 -0.666992 -3.5 -1.5 -6.5 -2.5s-5.83301 -2.33301 -8.5 -4s-4.66699 -3.66699 -6 -6s-1.33301 -4.5 0 -6.5
c3.33301 -5.33301 8.83301 -8.33301 16.5 -9s14.167 -1 19.5 -1z" />
    <glyph glyph-name="R" unicode="R" horiz-adv-x="498" 
d="M550 176c3.33301 4 7.50586 4.99609 12.5059 2.99609s7.16699 -5.66699 6.5 -11c0 -2.66699 -0.833008 -4.83398 -2.5 -6.50098s-3.16699 -3.5 -4.5 -5.5l-36.5 -45c-12.333 -14.667 -26.166 -28.334 -41.499 -41.001c-20 -16 -42.5 -27.333 -67.5 -34
s-50.167 -7 -75.5 -1c-26 6 -49.833 17.333 -71.5 34s-40.5 35.334 -56.5 56.001c-17.333 22.667 -32.333 47.334 -45 74.001c-2.66699 6.66699 -5.16699 13.334 -7.5 20.001s-4.16602 13.667 -5.49902 21c-1.33301 3.33301 -2.33301 6.83301 -3 10.5l-2 10.5
c-0.666992 2.66699 -1 5.33398 -1 8.00098s1 5 3 7c2.66699 3.33301 5.66699 4.66602 9 3.99902s6.66602 -1.66699 9.99902 -3c6 -2 12.333 -3 19 -3c9.33301 -1.33301 18.666 -1.5 27.999 -0.5s18.666 2.16699 27.999 3.5c56.667 11.333 105 37 145 77
c18.667 18.667 34.167 40 46.5 64s20.166 49.333 23.499 76c1.33301 10 1.5 20.5 0.5 31.5s-3.5 21.333 -7.5 31s-10.167 17.334 -18.5 23.001s-18.833 8.16699 -31.5 7.5c-19.333 -1.33301 -37.333 -8 -54 -20s-31.334 -25 -44.001 -39
c-17.333 -18.667 -33.166 -38.667 -47.499 -60l-41.5 -64l-25 -43.5l-24 -43.5c-9.33301 -16.667 -17.333 -33.334 -24 -50.001l-21 -51l-13.5 -33.5c-4.33301 -11 -9.16602 -22.167 -14.499 -33.5l-39 -95l-9 -21c-2 -5.33301 -6.16699 -7.5 -12.5 -6.5s-9.5 4.5 -9.5 10.5
c0 1.33301 0.333008 2.66602 1 3.99902l2 4l67 162l21 51c4.66699 9.33301 8.33398 18 11.001 26l4 10.5c1.33301 3.66699 3 7.16699 5 10.5c2.66699 4.66699 4.83398 9.16699 6.50098 13.5s3.16699 8.5 4.5 12.5l10 25l34 81c11.333 26.667 22.333 54 33 82
c2 4 4 8.5 6 13.5s3.66699 10.167 5 15.5s1.83301 10.5 1.5 15.5s-2.5 9.16699 -6.5 12.5c-4.66699 4 -10 6.5 -16 7.5s-12 1.83301 -18 2.5c-8 0 -16 -0.833008 -24 -2.5s-16 -3.83398 -24 -6.50098c-6.66699 -2.66699 -13.334 -5.5 -20.001 -8.5
s-12.667 -7.16699 -18 -12.5c-8.66699 -6 -15 -14.333 -19 -25c-1.33301 -3.33301 -3.5 -5.5 -6.5 -6.5s-6.16699 -0.833008 -9.5 0.5c-5.33301 2.66699 -6.66602 7.66699 -3.99902 15c1.33301 6 3.83301 11.5 7.5 16.5s7.83398 9.5 12.501 13.5
c9.33301 9.33301 20.166 16.5 32.499 21.5s25.166 9.16699 38.499 12.5c12.667 3.33301 26.167 4.83301 40.5 4.5s27.166 -4.5 38.499 -12.5c10 -7.33301 15.667 -16.833 17 -28.5s0 -23.167 -4 -34.5l-14.5 -37.5l-15.5 -37.5c12.667 19.333 26 38.166 40 56.499
s29.667 35.166 47 50.499c13.333 12 28.833 22.667 46.5 32s36.167 13.333 55.5 12c25.333 -1.33301 44.333 -12.666 57 -33.999c5.33301 -8.66699 9 -17.667 11 -27s3.33301 -18.666 4 -27.999c1.33301 -25.333 -2.33398 -50 -11.001 -74s-20 -46.333 -34 -67
c-16.667 -24.667 -36.834 -46.167 -60.501 -64.5s-49.5 -33.166 -77.5 -44.499c-19.333 -8 -40 -13.833 -62 -17.5s-43.667 -3.5 -65 0.5c5.33301 -23.333 13.666 -45.833 24.999 -67.5s25 -41.5 41 -59.5c13.333 -15.333 28.666 -29.166 45.999 -41.499
s35.666 -21.166 54.999 -26.499c25.333 -7.33301 49.833 -7.16602 73.5 0.500977s44.834 19.834 63.501 36.501c13.333 12 25.666 25.167 36.999 39.5z" />
    <glyph glyph-name="S" unicode="S" horiz-adv-x="460" 
d="M513 177c2 2.66699 4.83594 4.17188 8.50293 4.50488s6.5 -0.833984 8.5 -3.50098c3.33301 -4 4.16602 -7.66699 2.49902 -11s-3.83398 -6.66602 -6.50098 -9.99902c-18 -23.333 -40.667 -42.666 -68 -57.999c-6 -3.33301 -12.167 -6.33301 -18.5 -9l-19.5 -8l-20 -6
c-2.66699 -1.33301 -4.83398 -3.33301 -6.50098 -6s-3.5 -5.33398 -5.5 -8.00098c-14.667 -17.333 -32.667 -30.833 -54 -40.5s-43 -16.5 -65 -20.5c-10 -1.33301 -20.167 -2.16602 -30.5 -2.49902s-20.166 0.166992 -29.499 1.5s-18.5 4.5 -27.5 9.5
s-13.5 13.167 -13.5 24.5c0 13.333 4.83301 23.166 14.5 29.499s20.167 10.5 31.5 12.5c15.333 3.33301 30.333 5 45 5s29.667 0.666992 45 2c17.333 0.666992 34.666 2.66699 51.999 6l15 3c2 0.666992 4.16699 1.16699 6.5 1.5s4.16602 1.16602 5.49902 2.49902
c2 3.33301 3.83301 7 5.5 11s3.16699 8 4.5 12c5.33301 15.333 7.16602 30.666 5.49902 45.999s-5.16699 30.333 -10.5 45c-12 33.333 -28 65 -48 95s-37.333 61.333 -52 94l-82 -125l-116 -178l-43 -65c-2.66699 -4.66699 -6 -7 -10 -7
c-5.33301 -0.666992 -9 1.16602 -11 5.49902s-1.66699 8.5 1 12.5l13 19l99 151l47.5 73.5l47.5 72.5l29 43l14 22c1.33301 1.33301 1.5 3.33301 0.5 6s-1.83301 4.66699 -2.5 6c-1.33301 3.33301 -2.66602 7.66602 -3.99902 12.999
c-4.66699 17.333 -6.33398 34.333 -5.00098 51s6 33 14 49c5.33301 11.333 12 22.5 20 33.5s17.667 20.5 29 28.5c7.33301 5.33301 15.333 9.5 24 12.5s17.667 3.16699 27 0.5c14.667 -4.66699 22.667 -14.334 24 -29.001c1.33301 -7.33301 0.833008 -14.5 -1.5 -21.5
s-5.5 -13.833 -9.5 -20.5c-3.33301 -6 -7.16602 -11.833 -11.499 -17.5s-8.5 -11.5 -12.5 -17.5l-27 -38l-29 -43l-9 -13c-1.33301 -1.33301 -1.33301 -3 0 -5s2.33301 -4 3 -6l10 -21c8 -16 16.5 -31.833 25.5 -47.5l27.5 -46.5c8 -14 16 -28.833 24 -44.5
s14.333 -31.667 19 -48s7.33398 -33 8.00098 -50s-2.33301 -33.833 -9 -50.5c41.333 14.667 75 39 101 73zM288.003 487.005c0 -14 1.99707 -26.999 5.99707 -38.999c1.33301 2.66699 4 6.66699 8 12l27.5 40l27.5 40l12.5 16.5c4.33301 5.66699 7.83301 11.834 10.5 18.501
c1.33301 5.33301 1.83301 11 1.5 17s-4.16602 9.33301 -11.499 10c-9.33301 1.33301 -18.166 -1.33398 -26.499 -8.00098s-15.166 -13.334 -20.499 -20.001c-10 -12 -18.333 -25.5 -25 -40.5s-10 -30.5 -10 -46.5zM195 28.0059c4.66699 -3.33301 9.83301 -5.33301 15.5 -6
s11.167 -1 16.5 -1c7.33301 -0.666992 14.666 -0.5 21.999 0.5s14.666 2.16699 21.999 3.5c16.667 3.33301 32.834 8.33301 48.501 15s29.834 15.667 42.501 27c-19.333 -3.33301 -38.333 -5.33301 -57 -6s-37.667 -1.66699 -57 -3l-22 -2
c-7.33301 -0.666992 -14.333 -2.66699 -21 -6c-4 -1.33301 -8.16699 -4.5 -12.5 -9.5s-3.5 -9.16699 2.5 -12.5z" />
    <glyph glyph-name="T" unicode="T" horiz-adv-x="240" 
d="M486 593c6 3.33301 10.998 2.16895 14.998 -3.49805s3.33301 -10.834 -2 -15.501c-5.33301 -3.33301 -11.166 -6.16602 -17.499 -8.49902s-12.5 -4.5 -18.5 -6.5c-13.333 -3.33301 -27 -5.66602 -41 -6.99902s-28 -1.66602 -42 -0.999023h-9.5
c-2.33301 0 -4.16602 0.166992 -5.49902 0.5s-3.16602 0.666016 -5.49902 0.999023s-5.5 0.833008 -9.5 1.5c-2 0 -4.16699 0.166992 -6.5 0.5s-4.83301 0.5 -7.5 0.5c-2.66699 0.666992 -4.66699 0.333984 -6 -0.999023s-2.33301 -2.83301 -3 -4.5
s-1.66699 -3.16699 -3 -4.5c-6.66699 -11.333 -12.667 -23.5 -18 -36.5l-16 -38.5l-14 -35.5c-4.66699 -11.667 -9.66699 -23.5 -15 -35.5l-67 -161l-54 -128l-28 -66c-2 -4.66699 -5.33301 -7.16699 -10 -7.5s-8 1.5 -10 5.5c-2 3.33301 -2 7.66602 0 12.999l12 27l63 150
l66 159l23 55l23 54l12.5 30.5c4.33301 10.333 9.5 20.166 15.5 29.499l-100 15c-14 2 -28.333 3.5 -43 4.5s-29.334 0.833008 -44.001 -0.5c-11.333 -0.666992 -22.666 -2.66699 -33.999 -6s-20.666 -9.66602 -27.999 -18.999c-5.33301 -6.66699 -8.5 -14.334 -9.5 -23.001
s1.5 -16.667 7.5 -24c4 -5.33301 9 -9.33301 15 -12l9 -3.5c2.66699 -1 4.66699 -3.16699 6 -6.5c0.666992 -3.33301 0 -6.33301 -2 -9s-4.66699 -4.33398 -8 -5.00098c-2.66699 -0.666992 -5.66699 -0.166992 -9 1.5l-9 4.5c-11.333 5.33301 -19.833 13.166 -25.5 23.499
s-7.83398 21.833 -6.50098 34.5c1.33301 9.33301 4.33301 17.833 9 25.5s10.667 14.167 18 19.5c10.667 8.66699 22.667 14.334 36 17.001s26.666 4.33398 39.999 5.00098c34 1.33301 67.667 -1 101 -7s67 -11.333 101 -16c16 -2.66699 28.667 -4.5 38 -5.5
s22 -1.16699 38 -0.5c13.333 1.33301 26.833 3.16602 40.5 5.49902s26.5 7.16602 38.5 14.499z" />
    <glyph glyph-name="U" unicode="U" horiz-adv-x="510" 
d="M564 178c2.66699 2.66699 5.99219 3.66504 9.99219 2.99805s6.66699 -2.66699 8 -6c2 -4.66699 1 -9.33398 -3 -14.001l-18 -20l-53 -57.5c-18 -19 -38.667 -34.833 -62 -47.5c-11.333 -6.66699 -23.166 -11.5 -35.499 -14.5s-25.166 -3.83301 -38.499 -2.5
c-6.66699 1.33301 -13 3 -19 5s-11.667 5.33301 -17 10c-7.33301 7.33301 -12 16 -14 26c-1.33301 8 -1.66602 16.333 -0.999023 25s2 17.334 4 26.001c2.66699 11.333 5.83398 22.833 9.50098 34.5s7.5 23.167 11.5 34.5c12 32 25 63 39 93l41 91l-39 -64.5
c-12.667 -21.667 -26 -42.834 -40 -63.501l-34 -47c-11.333 -15.333 -23.333 -30.333 -36 -45c-15.333 -17.333 -31.333 -34 -48 -50s-34.667 -30.667 -54 -44c-14 -9.33301 -30 -17.333 -48 -24s-35.667 -7 -53 -1c-11.333 4 -19.166 10.833 -23.499 20.5
s-6.66602 20.334 -6.99902 32.001s0.666992 23.5 3 35.5s4.5 22.333 6.5 31c7.33301 31.333 17 62 29 92l37 90l40.5 93.5c13.667 31 26.167 62.5 37.5 94.5c1.33301 6 3 11.833 5 17.5s3.66699 11.167 5 16.5s1.83301 10.333 1.5 15s-3.16602 8.33398 -8.49902 11.001
c-8.66699 4.66699 -18.667 7 -30 7c-7.33301 0 -14.166 -0.5 -20.499 -1.5s-13.166 -2.16699 -20.499 -3.5c-14.667 -3.33301 -28.667 -8 -42 -14c-6.66699 -3.33301 -13 -7 -19 -11s-11 -8.66699 -15 -14c-3.33301 -3.33301 -5 -7.33301 -5 -12
c0 -7.33301 -3.66699 -11 -11 -11s-11 3.16699 -11 9.5s1 11.833 3 16.5c5.33301 12.667 14.333 22.834 27 30.501s25 13.834 37 18.501c13.333 5.33301 26.833 9.33301 40.5 12s27.5 3.33398 41.5 2.00098c10.667 -0.666992 21.334 -3 32.001 -7s18 -11.333 22 -22
c2.66699 -6.66699 3.5 -13.167 2.5 -19.5s-2.5 -12.5 -4.5 -18.5c-1.33301 -6 -3 -11.833 -5 -17.5l-6 -17.5c-11.333 -30 -23.333 -59.5 -36 -88.5l-38 -88.5l-33.5 -83c-11 -27.333 -20.833 -55.666 -29.5 -84.999c-3.33301 -10.667 -6 -21.334 -8 -32.001
s-3.66699 -21.667 -5 -33c-0.666992 -7.33301 -0.333984 -15.833 0.999023 -25.5s6.33301 -16.167 15 -19.5c7.33301 -2.66699 15 -3.33398 23 -2.00098s15.667 3.66602 23 6.99902c10 3.33301 19.333 8 28 14l26 18c20.667 16.667 40 34.667 58 54s35 39.666 51 60.999
c16.667 21.333 32.167 43.166 46.5 65.499l42.5 68.5l45.5 75.5l43.5 75.5l16.5 31.5l16.5 31.5l11 25l3.5 7c1 2 3.16699 3.33301 6.5 4c7.33301 1.33301 11.666 -1.66699 12.999 -9c0.666992 -3.33301 0.166992 -6.66602 -1.5 -9.99902l-4.5 -9l-6.5 -15.5
c-3 -7 -5.5 -12.167 -7.5 -15.5l-9.5 -22c-3 -6.66699 -6.16699 -14.334 -9.5 -23.001l-20.5 -48.5l-21.5 -48.5l-38.5 -90.5l-38.5 -91.5l-15.5 -39c-5 -12.667 -9.16699 -25.667 -12.5 -39c-2.66699 -8.66699 -4.66699 -17.667 -6 -27s-1.33301 -18.666 0 -27.999
c2 -11.333 7.66699 -18.333 17 -21c12 -4 24.667 -5 38 -3s26 6.66699 38 14s23 15.333 33 24c17.333 14.667 33.5 30.334 48.5 47.001z" />
    <glyph glyph-name="V" unicode="V" horiz-adv-x="357" 
d="M528 606l3.98828 -4.00195c1.33301 -1.33301 2.66602 -4.66602 3.99902 -9.99902c0.666992 -2 0.833984 -3.83301 0.500977 -5.5s-0.5 -3.83398 -0.5 -6.50098c0 -3.33301 -1 -9.16602 -3 -17.499s-4 -15.833 -6 -22.5c-7.33301 -24.667 -16.5 -48.5 -27.5 -71.5
s-22.833 -45.5 -35.5 -67.5c-15.333 -26 -31.666 -51 -48.999 -75s-35.666 -47.333 -54.999 -70c-16 -19.333 -32.667 -38.166 -50 -56.499l-53 -53.5c-17.333 -16.667 -35.166 -32.667 -53.499 -48s-37.166 -29.666 -56.499 -42.999c-16 -10.667 -32 -19.334 -48 -26.001
c-6 -2.66699 -12.167 -4.83398 -18.5 -6.50098s-12.833 -2.16699 -19.5 -1.5c-12.667 1.33301 -21.167 6.83301 -25.5 16.5s-6.16602 19.834 -5.49902 30.501c0.666992 19.333 4 38.833 10 58.5s12.333 38.5 19 56.5c11.333 30 23.166 59.167 35.499 87.5l38.5 85.5l44 97
l17 41l7.5 19.5c2.33301 6.33301 3.83301 13.166 4.5 20.499c2 16 -2 26.5 -12 31.5s-22.167 7 -36.5 6s-28.666 -3.83301 -42.999 -8.5s-25.166 -9 -32.499 -13l-15.5 -10c-5 -3.33301 -9.5 -7.66602 -13.5 -12.999c-2 -2 -3.66699 -5 -5 -9
c-0.666992 -2.66699 -1 -5 -1 -7s-1.33301 -4 -4 -6c-3.33301 -1.33301 -6.5 -1.66602 -9.5 -0.999023s-5.16699 2.66699 -6.5 6c-2.66699 4 -2.66699 9.33301 0 16c1.33301 5.33301 3.83301 10.333 7.5 15s7.83398 8.66699 12.501 12c8.66699 7.33301 18 13.666 28 18.999
s20.667 9.66602 32 12.999c12.667 4 25.834 7 39.501 9s27.167 1.33301 40.5 -2c9.33301 -2.66699 17.666 -7 24.999 -13s12.333 -14 15 -24c3.33301 -13.333 3 -26.333 -1 -39s-8.66699 -25 -14 -37c-11.333 -27.333 -23 -54 -35 -80l-36 -79l-29.5 -69l-28.5 -69
l-11.5 -31.5c-3.66699 -10.333 -7.16699 -21.166 -10.5 -32.499c-2 -7.33301 -4 -15.166 -6 -23.499s-3.33301 -16.5 -4 -24.5c0 -4 0.166992 -8.5 0.5 -13.5s2.5 -8.83301 6.5 -11.5c3.33301 -2.66699 7.5 -3.5 12.5 -2.5s9.5 2.16699 13.5 3.5
c7.33301 2.66699 14.5 6 21.5 10l20.5 12c9.33301 6 18.5 12.333 27.5 19s17.833 13.667 26.5 21c23.333 18.667 45.5 38.167 66.5 58.5s41.5 41.5 61.5 63.5c22.667 24.667 44.334 50.167 65.001 76.5s40 54.166 58 83.499c13.333 21.333 25.833 43.333 37.5 66
s21.834 46 30.501 70l7.5 21.5c2.33301 7 4.16602 14.167 5.49902 21.5c0.666992 3.33301 1.33398 7 2.00098 11s0.333984 7.66699 -0.999023 11c-1.33301 2.66699 -2.66602 5.5 -3.99902 8.5s-0.666016 5.83301 2.00098 8.5c2 2 4.83301 2.66699 8.5 2s6.5 -2 8.5 -4z" />
    <glyph glyph-name="W" unicode="W" horiz-adv-x="627" 
d="M781 594c5.33301 5.33301 10.4951 5.65723 15.4951 0.990234s8.16699 -9.66699 9.5 -15c3.33301 -7.33301 4.33301 -16.333 3 -27c-1.33301 -13.333 -4.33301 -26.333 -9 -39s-9.66699 -25 -15 -37c-16.667 -36 -36 -70.667 -58 -104s-44.667 -66 -68 -98l-27 -37
l-18 -23c-6 -7.33301 -12.167 -14.166 -18.5 -20.499l-19.5 -20.5l-41 -39.5c-14 -13 -28.333 -25.167 -43 -36.5c-14.667 -12 -29.834 -23.333 -45.501 -34s-32.5 -19.667 -50.5 -27c-14.667 -5.33301 -28.334 -7.66602 -41.001 -6.99902
c-11.333 1.33301 -19.833 6.16602 -25.5 14.499s-9.16699 18.166 -10.5 29.499c-2 14 -2.16699 28.167 -0.5 42.5s3.83398 28.166 6.50098 41.499c3.33301 17.333 7 34.333 11 51s8.66699 33.334 14 50.001l-36 -44.5l-37 -42.5c-16 -18 -32.333 -35.333 -49 -52
s-34.334 -32.667 -53.001 -48l-24 -17.5c-8 -5.66699 -16.667 -11.167 -26 -16.5c-8 -4 -16.333 -7.16699 -25 -9.5s-17.667 -2.83301 -27 -1.5c-8.66699 1.33301 -15.5 4.5 -20.5 9.5s-8.5 10.833 -10.5 17.5s-3 13.834 -3 21.501s0.666992 15.167 2 22.5
c3.33301 23.333 8.83301 46 16.5 68l23.5 66c11.333 32 23.333 63.5 36 94.5l39 94.5l18.5 44c6.33301 14.667 12.166 29.334 17.499 44.001c3.33301 9.33301 6.66602 19.833 9.99902 31.5s1.33301 21.834 -6 30.501c-5.33301 5.33301 -11.833 8.83301 -19.5 10.5
s-14.834 2.16699 -21.501 1.5c-12 0 -23.833 -1.83301 -35.5 -5.5s-22.5 -8.16699 -32.5 -13.5c-5.33301 -2.66699 -10.333 -5.5 -15 -8.5s-9 -6.5 -13 -10.5c-2.66699 -2.66699 -6 -6.66699 -10 -12l-4 -6c-1.33301 -2 -3.66602 -3.33301 -6.99902 -4
c-3.33301 -1.33301 -6.33301 -0.833008 -9 1.5s-4 5.16602 -4 8.49902c0 4 2 8.66699 6 14c5.33301 8 13 15.333 23 22c18 14.667 39.667 25 65 31c10.667 3.33301 21.5 5.33301 32.5 6s22.167 -0.666016 33.5 -3.99902c14.667 -3.33301 25.667 -11.666 33 -24.999
c6 -10.667 8 -22 6 -34s-5 -23.667 -9 -35c-9.33301 -26.667 -19.5 -53 -30.5 -79l-32.5 -78l-28 -70l-27 -70c-7.33301 -19.333 -14.166 -39 -20.499 -59s-11.166 -40.667 -14.499 -62c-0.666992 -5.33301 -1.16699 -10.833 -1.5 -16.5s0.833984 -10.834 3.50098 -15.501
c4 -8 10.833 -11.167 20.5 -9.5s17.5 3.83398 23.5 6.50098c10 4.66699 19.333 10 28 16s17.334 12.333 26.001 19c11.333 9.33301 22 18.833 32 28.5l30 29.5c21.333 22 41.833 44.667 61.5 68s38.834 47.333 57.501 72l17 21l8 11c2 2.66699 3.33301 5.33398 4 8.00098
s1.66699 5.66699 3 9c12.667 34.667 25.667 67.334 39 98.001c6 14 12.333 27.833 19 41.5s13.667 27.167 21 40.5l16.5 28.5c5.66699 9.66699 12.167 18.5 19.5 26.5c3.33301 4.66699 7.33301 8.83398 12 12.501s9.66699 5.5 15 5.5c7.33301 0 13 -2.5 17 -7.5
s6.33301 -10.5 7 -16.5c1.33301 -8.66699 0.333008 -17.334 -3 -26.001s-6.66602 -16.667 -9.99902 -24c-12 -26 -26.333 -51 -43 -75l-51 -71l-32 -43c-2 -2 -3.83301 -4.16699 -5.5 -6.5l-4.5 -6.5c-1.33301 -1.33301 -2.16602 -3.16602 -2.49902 -5.49902
s-1.16602 -4.5 -2.49902 -6.5l-8 -24l-15.5 -49.5c-5 -16.333 -9.16699 -33.166 -12.5 -50.499c-3.33301 -13.333 -6 -27 -8 -41s-3 -28 -3 -42c0 -5.33301 0.166992 -10.666 0.5 -15.999s1.5 -10.666 3.5 -15.999c2.66699 -7.33301 8.66699 -11 18 -11
c8.66699 0 17 1.66699 25 5s15.667 7 23 11c10.667 6 21 12.333 31 19s19.667 13.667 29 21c21.333 17.333 41.833 35.333 61.5 54s38.834 38 57.501 58c10.667 12 20.667 24.5 30 37.5l28 38.5l27.5 40l26.5 40l41 67c13.333 22.667 24.666 46 33.999 70
c3.33301 7.33301 6 14.833 8 22.5s3.33301 15.5 4 23.5v6.5c0 2.33301 -0.666992 4.83301 -2 7.5l-4 5c-5.33301 4.66699 -5.66602 10 -0.999023 16zM516.995 566.991c-3.33301 -1.33301 -6.49902 -3.66797 -9.49902 -7.00098s-5.5 -6.66602 -7.5 -9.99902l-12 -19.5
c-4 -6.33301 -7.66699 -12.833 -11 -19.5c-10.667 -19.333 -20.667 -39.166 -30 -59.499l-27 -61.5l36.5 51.5l34.5 52.5c4 6.66699 7.83301 13.5 11.5 20.5s7.16699 14.167 10.5 21.5c1.33301 3.33301 3.16602 8.66602 5.49902 15.999s1.83301 12.333 -1.5 15z" />
    <glyph glyph-name="X" unicode="X" horiz-adv-x="489" 
d="M542 177c4 5.33301 8.83496 6.16699 14.502 2.5s7.16699 -8.5 4.5 -14.5c-1.33301 -2.66699 -3 -5 -5 -7l-6 -6l-35 -43l-27.5 -29.5c-9 -9.66699 -19.167 -18.834 -30.5 -27.501c-9.33301 -6.66699 -19.166 -12.5 -29.499 -17.5s-21.166 -7.5 -32.499 -7.5
c-21.333 0 -38 7.66699 -50 23c-6.66699 8.66699 -11.834 17.834 -15.501 27.501s-7.16699 19.5 -10.5 29.5c-8 30 -13.667 60.167 -17 90.5l-10 91.5l-58 -69.5l-60 -68.5l-53.5 -58.5c-18.333 -19.667 -38.166 -37.834 -59.499 -54.501l-10.5 -8
c-3.66699 -2.66699 -7.16699 -4.66699 -10.5 -6s-6.5 -1 -9.5 1s-4.5 4.66699 -4.5 8c-0.666992 4.66699 1.66602 9 6.99902 13c8 5.33301 15.667 11 23 17s14.666 12.333 21.999 19c21.333 20.667 42.166 42.167 62.499 64.5l59.5 67.5l69 83c3.33301 3.33301 6.5 7 9.5 11
s6.16699 7.66699 9.5 11c1.33301 1.33301 1.83301 3.16602 1.5 5.49902s-0.833008 4.5 -1.5 6.5c0 2 -0.166992 4.16699 -0.5 6.5s-0.5 4.5 -0.5 6.5l-2 25.5c-0.666992 8.33301 -1.66699 16.833 -3 25.5c-1.33301 16 -3 32 -5 48s-4.66699 31.667 -8 47
c-2 11.333 -4.5 23 -7.5 35s-7.16699 23.333 -12.5 34c-2.66699 5.33301 -5.5 10 -8.5 14s-7.16699 7.33301 -12.5 10c-5.33301 3.33301 -11.166 4.5 -17.499 3.5s-12.166 -2.5 -17.499 -4.5c-12.667 -4.66699 -24.167 -11.334 -34.5 -20.001s-19.833 -18 -28.5 -28
c-8.66699 -11.333 -15.334 -21.333 -20.001 -30c-1.33301 -4 -2.83301 -8 -4.5 -12s-2.16699 -8.33301 -1.5 -13c0.666992 -2 1.5 -4 2.5 -6s0.833008 -4.33301 -0.5 -7c-2.66699 -7.33301 -7.66699 -9.66602 -15 -6.99902c-4.66699 2 -7.5 6 -8.5 12s-1.16699 11 -0.5 15
c1.33301 12 5.16602 23.5 11.499 34.5s13.5 21.167 21.5 30.5c9.33301 11.333 19.666 21.5 30.999 30.5s23.666 16.167 36.999 21.5c12.667 4.66699 25.334 6.5 38.001 5.5s23.667 -6.83301 33 -17.5c7.33301 -8 13.166 -17.167 17.499 -27.5s7.83301 -20.5 10.5 -30.5
c8.66699 -30.667 14.667 -61.667 18 -93l10 -95l61 75l62 74l43.5 51c14.333 16.667 29.833 32.667 46.5 48c4.66699 4.66699 10 9 16 13c4 4 8 5 12 3c7.33301 -2.66699 9.66602 -7.33398 6.99902 -14.001c-1.33301 -3.33301 -3.66602 -6 -6.99902 -8s-6.33301 -4 -9 -6
l-18 -18c-20.667 -21.333 -40.167 -42.833 -58.5 -64.5l-55.5 -66.5l-69 -84c-3.33301 -3.33301 -6.5 -7 -9.5 -11s-6.16699 -7.66699 -9.5 -11c-1.33301 -2 -2.66602 -3.83301 -3.99902 -5.5s-2.66602 -3.5 -3.99902 -5.5c-1.33301 -1.33301 -1.83301 -3 -1.5 -5
s0.5 -4 0.5 -6l5 -49c3.33301 -32 7.33301 -62.667 12 -92c2 -12.667 4.33301 -25.167 7 -37.5s6.33398 -24.166 11.001 -35.499c2.66699 -6.66699 6.16699 -13.667 10.5 -21s10.166 -12.666 17.499 -15.999c12 -5.33301 24.167 -5.5 36.5 -0.5s23.166 11.167 32.499 18.5
c13.333 10.667 25.5 22.334 36.5 35.001l33.5 39l27 32v0z" />
    <glyph glyph-name="Y" unicode="Y" horiz-adv-x="422" 
d="M547 587c5.33301 -2 7.65527 -5.34082 6.98828 -10.0078s-2 -9 -4 -13l-10 -24l-10 -23l-49 -119l-50 -119l-62 -136.5c-21.333 -45 -44.666 -89.167 -69.999 -132.5l6 3c24.667 16 47.834 34.333 69.501 55s42.167 41.667 61.5 63l24 28l10 12c2 2 3.83301 4 5.5 6
s3.83398 3.33301 6.50098 4c8.66699 1.33301 13 -2.33398 13 -11.001c0 -3.33301 -0.833008 -5.83301 -2.5 -7.5s-3.16699 -3.5 -4.5 -5.5c-7.33301 -9.33301 -14.666 -17.666 -21.999 -24.999c-19.333 -22 -39.166 -43.333 -59.499 -64s-42.166 -39.667 -65.499 -57
c-6 -4.66699 -12.167 -9 -18.5 -13l-19.5 -12l-25 -14c-1.33301 -1.33301 -2.33301 -2.83301 -3 -4.5s-1.66699 -3.16699 -3 -4.5l-6 -10l-25.5 -43c-8.33301 -14 -17.166 -27.667 -26.499 -41l-27.5 -38.5c-9 -12.333 -19.167 -24.166 -30.5 -35.499
c-9.33301 -10.667 -19.666 -20.167 -30.999 -28.5s-24.666 -13.5 -39.999 -15.5c-12.667 -1.33301 -24.667 0.666992 -36 6s-18.666 14.666 -21.999 27.999s-1.83301 26.833 4.5 40.5s13.5 25.5 21.5 35.5c8.66699 10.667 18.5 19.834 29.5 27.501
s22.167 14.834 33.5 21.501c14.667 9.33301 29.5 17.833 44.5 25.5l45.5 23.5l48 25c4 2 6.66699 4.66699 8 8l6 9l23 39c13.333 23.333 26 47 38 71l35 73l39.5 89l38.5 89l-57 -89.5c-19.333 -29 -40 -57.5 -62 -85.5c-13.333 -17.333 -27.166 -34 -41.499 -50
s-29.5 -31.333 -45.5 -46c-13.333 -12.667 -28 -24.667 -44 -36s-33.333 -19.666 -52 -24.999c-7.33301 -2 -14.833 -3.16699 -22.5 -3.5s-15.167 0.5 -22.5 2.5c-10 3.33301 -18 8.83301 -24 16.5s-9.66699 16.834 -11 27.501c-1.33301 9.33301 -1.33301 18.5 0 27.5
s3 18.167 5 27.5c3.33301 14 7.5 28 12.5 42s10.167 27.667 15.5 41l57 138c19.333 46 37.333 92.667 54 140c8 22 15 43.333 21 64c1.33301 5.33301 1.83301 10.166 1.5 14.499s-3.16602 8.16602 -8.49902 11.499c-4 2.66699 -8.5 4.33398 -13.5 5.00098l-14.5 2
c-14.667 0.666992 -29 -0.833008 -43 -4.5s-27.667 -8.5 -41 -14.5c-6 -2.66699 -12 -6 -18 -10s-11.333 -8.66699 -16 -14c-4 -4 -6 -8 -6 -12c0 -7.33301 -3.33301 -11.333 -10 -12c-7.33301 -1.33301 -11.166 1.33398 -11.499 8.00098s0.166992 12.334 1.5 17.001
c2.66699 5.33301 6 10.333 10 15s8.33301 9 13 13c11.333 8.66699 24.166 15.667 38.499 21s28.833 9.33301 43.5 12c12 2.66699 24.667 4 38 4s25.666 -2.66699 36.999 -8c4 -2.66699 7.83301 -5.66699 11.5 -9s6.5 -7.33301 8.5 -12
c2.66699 -5.33301 3.66699 -11.166 3 -17.499s-1.66699 -12.5 -3 -18.5c-7.33301 -25.333 -15.666 -50.5 -24.999 -75.5l-29 -74.5c-9.33301 -24.667 -19.166 -49.167 -29.499 -73.5l-30.5 -73.5l-25 -62c-8 -20.667 -14.667 -42 -20 -64
c-3.33301 -13.333 -5 -25.333 -5 -36c0 -5.33301 0.5 -10.5 1.5 -15.5s3.16699 -9.16699 6.5 -12.5c6 -6 14 -8.83301 24 -8.5s18.667 1.83301 26 4.5c10 3.33301 19.667 8 29 14s18.333 12.333 27 19c11.333 8.66699 22 17.834 32 27.501s19.667 19.5 29 29.5
c22.667 24 43.667 49 63 75s38 53 56 81l52.5 83.5c17 27.667 33.167 56.167 48.5 85.5c6.66699 11.333 13.167 23 19.5 35s12.166 24 17.499 36c2.66699 4.66699 5 9.33398 7 14.001s4 9.66699 6 15c2 4 4.16699 8.66699 6.5 14s6.83301 7 13.5 5zM120.989 -208.008
c11.333 10.667 22.001 21.833 32.001 33.5s19.667 23.834 29 36.501l28.5 43.5l27.5 44.5l-46.5 -24c-15.667 -8 -31.167 -16.333 -46.5 -25l-37 -22c-12 -7.33301 -22.667 -16.333 -32 -27c-11.333 -11.333 -19.333 -23.333 -24 -36c-2 -5.33301 -3.33301 -11.333 -4 -18
s1.66602 -12.667 6.99902 -18c4.66699 -4 10 -6.33301 16 -7s12 -0.166992 18 1.5s11.833 4.16699 17.5 7.5s10.5 6.66602 14.5 9.99902z" />
    <glyph glyph-name="Z" unicode="Z" horiz-adv-x="428" 
d="M496 179c5.33301 -4.66699 5.8291 -9.8418 1.49609 -15.5088l-11.5 -14.5l-24 -28c-7.33301 -8.66699 -15 -17 -23 -25l-24 -23c-10 -9.33301 -20.167 -18.333 -30.5 -27s-21.166 -17 -32.499 -25c-5.33301 -3.33301 -10.333 -6.66602 -15 -9.99902
s-9.66699 -6.66602 -15 -9.99902l-8 -6l-4 -2c0 -1.33301 -0.166992 -2.33301 -0.5 -3s-0.5 -1.66699 -0.5 -3l-4 -11.5l-4 -10.5c-10.667 -25.333 -23.5 -49.333 -38.5 -72s-32.5 -43.334 -52.5 -62.001c-10 -9.33301 -20.667 -18.166 -32 -26.499
s-22.666 -16.166 -33.999 -23.499c-11.333 -6.66699 -23.333 -12.834 -36 -18.501s-25.667 -9.16699 -39 -10.5c-6 0 -12 0.666992 -18 2s-11.333 4.33301 -16 9c-7.33301 7.33301 -10.5 15.666 -9.5 24.999s3.5 18.333 7.5 27c5.33301 12.667 12.833 24.334 22.5 35.001
s20.167 20.667 31.5 30c13.333 11.333 27.166 21.833 41.499 31.5s29.166 19.167 44.499 28.5c14 8.66699 28.333 16.834 43 24.501s29.334 15.834 44.001 24.501l24 14l5 3c2 1.33301 3 3.33301 3 6l3 12c3.33301 16.667 3 32.667 -1 48c-2.66699 14 -9 27.333 -19 40
c-6 6.66699 -11.667 12 -17 16c-2.66699 2.66699 -6 5 -10 7c-2 1.33301 -3.66699 1.66602 -5 0.999023l-5 -3c-15.333 -7.33301 -31.333 -13.5 -48 -18.5s-33.667 -8.16699 -51 -9.5c-5.33301 -0.666992 -11.5 -1 -18.5 -1s-13.667 0.833008 -20 2.5
s-12.166 4.16699 -17.499 7.5s-9 8.33301 -11 15c-2 6 -1.66699 11.667 1 17s6.16699 9.83301 10.5 13.5s9.33301 6.83398 15 9.50098s11.167 4.66699 16.5 6c14.667 4 30 6.16699 46 6.5s31.333 -1.16699 46 -4.5c4 -1.33301 8 -2.5 12 -3.5s7.66699 -2.16699 11 -3.5
l10 -4l5 -3l5 3l18 10.5c6 3.66699 12 7.83398 18 12.501c24 17.333 46.333 36.833 67 58.5s38.667 45.167 54 70.5c16 24.667 29 51.334 39 80.001c5.33301 15.333 9.5 30.833 12.5 46.5s3.16699 31.5 0.5 47.5c-2 13.333 -6.66699 26 -14 38s-16.666 21.667 -27.999 29
c-12 8 -25.167 13.5 -39.5 16.5s-28.5 3.83301 -42.5 2.5c-24.667 -1.33301 -49 -6.5 -73 -15.5s-45.333 -21.833 -64 -38.5c-6 -6 -11.833 -12.333 -17.5 -19s-10.167 -13.667 -13.5 -21l-4 -8c-1.33301 -2.66699 -2.33301 -5.66699 -3 -9s-1 -6.5 -1 -9.5
s-0.666992 -5.83301 -2 -8.5c-4.66699 -6.66699 -10.334 -7.66699 -17.001 -3c-2.66699 2.66699 -4 6.66699 -4 12c0 6 1 12 3 18c2 7.33301 4.83301 14.333 8.5 21s8.16699 13.334 13.5 20.001c13.333 17.333 29.5 32 48.5 44s39.167 21.333 60.5 28
c27.333 8.66699 55.833 12.667 85.5 12s56.167 -9.66699 79.5 -27s37.833 -39.666 43.5 -66.999s5.5 -54.666 -0.5 -81.999c-7.33301 -30 -18 -58.5 -32 -85.5s-30.333 -52.167 -49 -75.5c-36 -47.333 -79.333 -85.333 -130 -114c21.333 -16 35.666 -34.333 42.999 -55
c4.66699 -11.333 7.33398 -23 8.00098 -35s0.333984 -24 -0.999023 -36c30.667 20.667 59.667 43.667 87 69l46 48l23 27c2.66699 3.33301 5.83398 7 9.50098 11s8.16699 4 13.5 0zM119.996 -206.008c36 19.333 67.9971 44.332 95.9971 74.999c26 30 47.333 65.333 64 106
l-44 -25c-14.667 -8 -29 -16.333 -43 -25c-15.333 -8.66699 -30.166 -17.667 -44.499 -27s-28.166 -19.666 -41.499 -30.999c-10 -8 -19.667 -16.833 -29 -26.5s-16.666 -20.167 -21.999 -31.5c-1.33301 -2 -2.66602 -4.66699 -3.99902 -8s-2.33301 -6.66602 -3 -9.99902
s-0.5 -6.5 0.5 -9.5s3.16699 -4.83301 6.5 -5.5c6.66699 -2 14.667 -1.66699 24 1c7.33301 1.33301 14.166 3.66602 20.499 6.99902zM131.993 126.991c14.667 1.33301 29.167 3.99902 43.5 7.99902s28.5 9 42.5 15c-22.667 7.33301 -44.667 10 -66 8
c-15.333 0 -30 -3 -44 -9c-1.33301 -1.33301 -4.5 -3.5 -9.5 -6.5s-6.16699 -5.83301 -3.5 -8.5c3.33301 -4.66699 9 -7.16699 17 -7.5s14.667 -0.166016 20 0.500977z" />
    <glyph glyph-name="bracketleft" unicode="[" horiz-adv-x="355" 
d="M124 -209c4.66699 -2 7.00195 -5.66602 7.00195 -10.999c0 -4.66699 -2 -8 -6 -10c-2 -0.666992 -4.66699 -1 -8 -1h-108c-6 0 -9.66699 3 -11 9c0 2.66699 0.666992 5.33398 2 8.00098l2 7c1.33301 2.66699 2.66602 6 3.99902 10l6 13l7 18l9 20l9 24
c2 4 3.83301 8.16699 5.5 12.5s3.5 8.83301 5.5 13.5l12 28l12 30l13 32l14 34l15 35c2.66699 6 5.16699 12 7.5 18s4.5 12 6.5 18l15 36c3.33301 6 6.16602 12.167 8.49902 18.5s4.83301 12.5 7.5 18.5l30 74l30 72l28 68l6 15.5c2 5 4.33301 10.167 7 15.5l12 30l12 28
l10 25l9 23l8 19l7 17l6 13l3 9c1.33301 2.66699 2 4.33398 2 5.00098l1 1c2 4.66699 5.33301 7 10 7h57h19c6 0 12 -0.333008 18 -1h17c4.66699 0 8 -1.66699 10 -5c2 -4.66699 1.66699 -9 -1 -13c-2.66699 -2.66699 -5.66699 -4 -9 -4h-103
c-0.666992 0 -1 -0.333008 -1 -1s-0.333008 -1.33398 -1 -2.00098l-3 -8l-5 -12c-1.33301 -2.66699 -2.5 -5.33398 -3.5 -8.00098s-2.16699 -5.33398 -3.5 -8.00098l-4 -10l-4 -10l-9 -23c-2 -4 -3.83301 -8.16699 -5.5 -12.5s-3.5 -8.83301 -5.5 -13.5l-12 -28l-12 -31
l-14 -33l-14 -34l-15 -36l-30 -74l-32 -76l-15 -38c-2.66699 -6.66699 -5.33398 -13 -8.00098 -19l-8 -18l-15 -37l-14 -35l-14 -33l-13 -32l-12 -29l-6 -13.5c-2 -4.33301 -3.66699 -8.83301 -5 -13.5c-2 -4 -3.83301 -8 -5.5 -12s-3.16699 -8 -4.5 -12l-9 -21l-7 -18
l-6 -14c-1.33301 -4 -2.66602 -7 -3.99902 -9c0 -2 -0.666992 -3.66699 -2 -5h24c7.33301 0 15 -0.166992 23 -0.5s15.667 -0.5 23 -0.5h28v0z" />
    <glyph glyph-name="backslash" unicode="\" 
d="M1 607c0 1.33301 0.666992 2 2 2h312v-21c0 -1.33301 -0.666992 -2 -2 -2h-312v21zM1 58c0 1.33301 0.666992 2 2 2h312v-21c0 -1.33301 -0.666992 -2 -2 -2h-312v21zM161 301c0 -2.66699 -0.666992 -4 -2 -4h-158v16c0 4.66699 0.666992 7 2 7h158v-19z" />
    <glyph glyph-name="bracketright" unicode="]" horiz-adv-x="387" 
d="M401 584c0 -3.33301 -0.667969 -5.99902 -2.00098 -7.99902c0 -1.33301 -0.666992 -3.33301 -2 -6c-0.666992 -2 -1.33398 -3.83301 -2.00098 -5.5s-1.33398 -3.16699 -2.00098 -4.5l-6 -14l-7 -17l-4 -10.5l-4 -10.5l-10 -23l-11 -26l-11 -28
c-2.66699 -5.33301 -5 -10.5 -7 -15.5l-6 -15.5l-13 -32c-2.66699 -5.33301 -5.16699 -10.833 -7.5 -16.5s-4.5 -11.5 -6.5 -17.5l-15 -34c-2 -6 -4.16699 -12 -6.5 -18s-4.83301 -12 -7.5 -18l-15 -37l-16 -37l-15 -36l-30 -74l-15 -35c-2 -6 -4.16699 -11.833 -6.5 -17.5
l-7.5 -17.5c-2 -5.33301 -4.16699 -10.833 -6.5 -16.5s-4.83301 -11.167 -7.5 -16.5l-13 -32l-12 -30l-6 -13.5c-2 -4.33301 -3.66699 -8.83301 -5 -13.5l-11 -26l-9 -22l-4 -10l-4 -10l-7 -16c-1.33301 -2.66699 -2.33301 -5 -3 -7l-2 -6
c-1.33301 -2 -2.66602 -5 -3.99902 -9c-1.33301 -2.66699 -2 -4.33398 -2 -5.00098s-0.333008 -1 -1 -1c-0.666992 -2.66699 -2 -4.5 -4 -5.5s-4 -1.5 -6 -1.5h-111c-4 0 -7 1.66699 -9 5c-3.33301 4 -3.33301 8.33301 0 13c2 2.66699 5 4 9 4h104v1
c0 1.33301 0.333008 2 1 2l3 8l5 12c2 6.66699 4.33301 12 7 16c2 6 4.66699 12.667 8 20l9 23l11 26l12 28l12 31l14 33l14 34l15 36l15 37l16 38l15 38l16 38l15 37l16 38l15 36l14 35l14 33l13 32l12 30l6 13.5c2 4.33301 3.66699 8.83301 5 13.5c2 4 3.83301 8 5.5 12
s3.16699 8 4.5 12l9 21l7 17l6 14c0.666992 1.33301 1.33398 2.83301 2.00098 4.5s1.33398 3.5 2.00098 5.5c0.666992 0.666992 1 1.33398 1 2.00098s0.333008 1.66699 1 3h-95c-4.66699 0 -8 2.33301 -10 7c-1.33301 5.33301 -0.333008 9.66602 3 12.999
c4 1.33301 6.66699 2 8 2h111c4 0 7 -1.66699 9 -5z" />
    <glyph glyph-name="asciicircum" unicode="^" 
d="M1 607c0 1.33301 0.666992 2 2 2h312v-21c0 -1.33301 -0.666992 -2 -2 -2h-312v21zM1 58c0 1.33301 0.666992 2 2 2h312v-21c0 -1.33301 -0.666992 -2 -2 -2h-312v21zM161 301c0 -2.66699 -0.666992 -4 -2 -4h-158v16c0 4.66699 0.666992 7 2 7h158v-19z" />
    <glyph glyph-name="underscore" unicode="_" horiz-adv-x="379" 
d="M-8 18c0 0.666992 0.333008 1 1 1h387v-23h-388v22z" />
    <glyph glyph-name="grave" unicode="`" horiz-adv-x="165" 
d="M78 569l30 -23.999c2 -1.33301 3.83301 -2.5 5.5 -3.5s3.16699 -2.16699 4.5 -3.5l2 -2c2.66699 -2 4 -5 4 -9c0 -5.33301 -2.33301 -8.66602 -7 -9.99902s-8.33398 -0.666016 -11.001 2.00098l-6 4c-4.66699 3.33301 -9.16699 6.83301 -13.5 10.5l-13.5 11.5l-13 9.5
c-4 3 -8 6.16699 -12 9.5l-3 2c-2 1.33301 -3.33301 3.66602 -4 6.99902c-1.33301 4.66699 0.333984 8.66699 5.00098 12c2 1.33301 3.66699 2.16602 5 2.49902s4 -0.833984 8 -3.50098z" />
    <glyph glyph-name="a" unicode="a" horiz-adv-x="324" 
d="M376 178c4 4 8.49219 4.6748 13.4922 2.00781s6.83301 -6.66699 5.5 -12c-0.666992 -2.66699 -1.66699 -4.83398 -3 -6.50098s-2.66602 -3.16699 -3.99902 -4.5c-5.33301 -5.33301 -10.333 -10.833 -15 -16.5l-14 -16.5l-34 -38
c-11.333 -12.667 -23.666 -24.334 -36.999 -35.001c-9.33301 -8 -20.166 -14.5 -32.499 -19.5s-24.833 -4.5 -37.5 1.5c-14 6 -21.833 15.833 -23.5 29.5s-1.5 27.167 0.5 40.5c-9.33301 -12 -19.833 -23.5 -31.5 -34.5s-24.167 -20.167 -37.5 -27.5
c-11.333 -5.33301 -24 -8.83301 -38 -10.5s-26.667 1.16602 -38 8.49902c-9.33301 6 -15.833 14 -19.5 24s-5.5 20.333 -5.5 31c0.666992 12.667 3.16699 25 7.5 37s9.5 23.667 15.5 35c7.33301 15.333 16.333 29.5 27 42.5s22.334 25.167 35.001 36.5
c10 9.33301 20.667 18.166 32 26.499s23.333 15.5 36 21.5c15.333 7.33301 31.5 12.833 48.5 16.5s34.167 4.5 51.5 2.5c3.33301 -0.666992 6.33301 -1.16699 9 -1.5s5.66699 -1.16602 9 -2.49902c4 -1.33301 6.33301 -3.5 7 -6.5s0.5 -6.33301 -0.5 -10
s-2.5 -7.33398 -4.5 -11.001s-3.33301 -6.5 -4 -8.5c-6 -13.333 -12.167 -26.333 -18.5 -39s-13.166 -25.667 -20.499 -39c-2 -4 -4.16699 -8 -6.5 -12s-4.83301 -8 -7.5 -12l-6 -11.5c-2 -3.66699 -3.66699 -7.83398 -5 -12.501
c-2.66699 -7.33301 -5.16699 -14.833 -7.5 -22.5s-4.16602 -15.5 -5.49902 -23.5c-1.33301 -6 -2.16602 -12.5 -2.49902 -19.5s1.16699 -13.5 4.5 -19.5c2 -4 5.33301 -6.83301 10 -8.5s9.33398 -1.83398 14.001 -0.500977c5.33301 1.33301 10.333 3.16602 15 5.49902
s9 5.16602 13 8.49902l16 14c5.33301 4.66699 10.333 9.66699 15 15c13.333 13.333 26 27 38 41zM100.992 56.0078c11.333 3.33301 21.501 8.33496 30.501 15.002s17.5 14 25.5 22c9.33301 9.33301 18.166 19.666 26.499 30.999s16.166 22.666 23.499 33.999
c2.66699 3.33301 4.83398 6.66602 6.50098 9.99902s3.16699 6.66602 4.5 9.99902l9 19c2.66699 6.66699 5.33398 13 8.00098 19s5.66699 12 9 18l15.5 27.5l15.5 27.5c-15.333 2 -30.666 1.33301 -45.999 -2s-29.666 -8.33301 -42.999 -15s-25.5 -14.334 -36.5 -23.001
s-21.5 -18 -31.5 -28c-12 -11.333 -23 -23.666 -33 -36.999s-18.333 -27.666 -25 -42.999c-4 -9.33301 -7.33301 -19.666 -10 -30.999s-2.66699 -22.333 0 -33c1.33301 -4.66699 3.16602 -9 5.49902 -13s5.83301 -7 10.5 -9c5.33301 -2 11.166 -2.66699 17.499 -2
s12.166 1.66699 17.499 3z" />
    <glyph glyph-name="b" unicode="b" horiz-adv-x="319" 
d="M371 178c3.33301 3.33301 7.16895 4.33594 11.502 3.00293s7.16602 -4.33301 8.49902 -9c0.666992 -4.66699 -1 -8.83398 -5 -12.501l-11 -10.5c-6.66699 -6.66699 -13.5 -12.834 -20.5 -18.501s-14.833 -10.834 -23.5 -15.501
c-15.333 -7.33301 -30.666 -9.66602 -45.999 -6.99902c-4.66699 0 -9.33398 1 -14.001 3l-6 2c-2 0.666992 -3 0.833984 -3 0.500977s-0.666992 -1.16602 -2 -2.49902l-18 -25c-8.66699 -11.333 -18.167 -21.5 -28.5 -30.5s-22.166 -16.167 -35.499 -21.5
c-12 -4.66699 -24.5 -6.33398 -37.5 -5.00098s-24.167 6.33301 -33.5 15c-10.667 9.33301 -17 20.666 -19 33.999s-2.33301 26.666 -1 39.999c1.33301 14.667 3.66602 29.334 6.99902 44.001s7.33301 29 12 43l-25 -29c-2 -2.66699 -4.33301 -5.5 -7 -8.5
s-5.66699 -4.83301 -9 -5.5c-6 -0.666992 -9.83301 1.5 -11.5 6.5s-0.833984 9.16699 2.49902 12.5l15 18l15.5 18l14.5 18l17 18c1.33301 2.66699 4 6 8 10c0.666992 1.33301 1.16699 3 1.5 5s1.16602 3.66699 2.49902 5c10.667 29.333 22.667 59.666 36 90.999l34.5 78
c11.667 26 24.167 51.667 37.5 77c7.33301 13.333 15.166 26.666 23.499 39.999s18.166 24.666 29.499 33.999c11.333 10 23.333 14.667 36 14c7.33301 -1.33301 13.833 -4.16602 19.5 -8.49902s9.83398 -9.83301 12.501 -16.5c2 -5.33301 3 -10.833 3 -16.5
s-0.666992 -11.167 -2 -16.5c-2.66699 -12 -6.66699 -23.5 -12 -34.5s-11.333 -21.5 -18 -31.5c-8 -14 -16.667 -27.333 -26 -40l-29 -38c-14.667 -18.667 -29.834 -37 -45.501 -55l-46.5 -54c-5.33301 -6.66699 -10.666 -13 -15.999 -19s-10.666 -12.333 -15.999 -19
c-1.33301 -2 -2.66602 -3.83301 -3.99902 -5.5s-2.66602 -4.16699 -3.99902 -7.5l-4 -12c-1.33301 -3.33301 -2.66602 -7 -3.99902 -11l-4 -12c-4 -12.667 -7.83301 -25.5 -11.5 -38.5s-6.5 -26.167 -8.5 -39.5c-1.33301 -10.667 -2.33301 -22.167 -3 -34.5
s2.33301 -23.166 9 -32.499c7.33301 -10 17.666 -14.667 30.999 -14s24.666 4 33.999 10c13.333 7.33301 25 16.833 35 28.5s18.667 23.834 26 36.501c-10.667 8 -18.5 18.167 -23.5 30.5s-8.16699 25.166 -9.5 38.499s-0.833008 26.666 1.5 39.999s6.5 26 12.5 38
c2.66699 4.66699 6.16699 9.5 10.5 14.5s9 9.16699 14 12.5s10.5 5.33301 16.5 6s12 -0.333008 18 -3c12 -6.66699 19.167 -17.5 21.5 -32.5s2.83301 -28.167 1.5 -39.5c-1.33301 -17.333 -5.16602 -34 -11.499 -50s-13.5 -31.667 -21.5 -47c15.333 -6 30.666 -6 45.999 0
c10 5.33301 19.333 11.833 28 19.5s16.667 15.834 24 24.501zM170.003 315.003l35.998 41.002l41.5 50.5c13.667 17 26.834 34.5 39.501 52.5c6.66699 9.33301 13 18.666 19 27.999s11.667 19 17 29c4 7.33301 7.66699 14.833 11 22.5s5 15.5 5 23.5
c1.33301 7.33301 0 13 -4 17c-6 5.33301 -12.333 6.66602 -19 3.99902c-3.33301 -1.33301 -6.16602 -3 -8.49902 -5s-4.83301 -4.33301 -7.5 -7c-7.33301 -7.33301 -14 -15.833 -20 -25.5l-17 -28.5c-15.333 -27.333 -29.333 -55 -42 -83l-37 -85zM254.001 145.005
c7.33301 14 13.833 28.668 19.5 44.001s9.16699 31 10.5 47c0 6 -0.166992 12.5 -0.5 19.5s-1.83301 13.5 -4.5 19.5c-4 8 -10.333 9.66699 -19 5c-4.66699 -2.66699 -8.5 -6.16699 -11.5 -10.5s-5.5 -8.83301 -7.5 -13.5c-4.66699 -12.667 -7.66699 -26.334 -9 -41.001
c-0.666992 -12 0.5 -24.333 3.5 -37s9.16699 -23.667 18.5 -33z" />
    <glyph glyph-name="c" unicode="c" horiz-adv-x="237" 
d="M290 178c2.66699 3.33301 6.17383 4.33105 10.5068 2.99805s7.16602 -4 8.49902 -8c1.33301 -3.33301 1 -6.16602 -1 -8.49902s-4 -4.5 -6 -6.5l-38 -40c-20 -19.333 -41.667 -37.166 -65 -53.499s-49.333 -26.833 -78 -31.5c-12.667 -2 -25.334 -2.16699 -38.001 -0.5
s-23.667 7.83398 -33 18.501c-7.33301 8.66699 -12 18.167 -14 28.5s-2.33301 20.833 -1 31.5c2 26.667 9.83301 52.334 23.5 77.001s29.167 46.667 46.5 66c9.33301 9.33301 19.333 18.666 30 27.999s22.667 15.333 36 18c10.667 1.33301 20.167 -0.666992 28.5 -6
s14.166 -13 17.499 -23c0.666992 -2 1.5 -4.83301 2.5 -8.5s1.33301 -7.33398 1 -11.001s-1.33301 -6.5 -3 -8.5s-4.83398 -2.66699 -9.50098 -2c-4.66699 1.33301 -7.33398 3.5 -8.00098 6.5s-1.33398 6.16699 -2.00098 9.5c-1.33301 6.66699 -4 12 -8 16
s-8.66699 5.5 -14 4.5s-10.333 -2.83301 -15 -5.5c-7.33301 -3.33301 -13.833 -7.83301 -19.5 -13.5l-16.5 -16.5c-20.667 -22.667 -37.334 -46.667 -50.001 -72c-5.33301 -10 -9.5 -20.5 -12.5 -31.5s-4.83301 -22.167 -5.5 -33.5
c-0.666992 -9.33301 0.5 -18.666 3.5 -27.999s9.16699 -16 18.5 -20c6 -2.66699 12.5 -4 19.5 -4s13.833 0.666992 20.5 2c14.667 3.33301 28 7.66602 40 12.999c26 11.333 49.5 27.333 70.5 48z" />
    <glyph glyph-name="d" unicode="d" horiz-adv-x="315" 
d="M398 538c7.33301 -3.33301 9.33691 -8.33594 6.00391 -15.0029l-53 -128l-56 -127l-21 -49l-18 -41c-4.66699 -10.667 -8.66699 -21.334 -12 -32.001l-10 -32c-3.33301 -13.333 -5 -25.666 -5 -36.999c0 -3.33301 0.166992 -7 0.5 -11s1.83301 -7.33301 4.5 -10
c3.33301 -3.33301 7 -4.5 11 -3.5s8 3 12 6s7.83301 6.16699 11.5 9.5s6.5 6 8.5 8c9.33301 8.66699 18.333 17.834 27 27.501l26 29.5l36 44c4 4.66699 8.66699 5.66699 14 3s7.33301 -7 6 -13c-0.666992 -2 -2 -4 -4 -6s-5 -5.66699 -9 -11l-27.5 -33.5
c-9.66699 -11.667 -18.834 -22.167 -27.501 -31.5l-25 -26c-8.66699 -8.66699 -18 -15.667 -28 -21c-8 -4.66699 -16.5 -7 -25.5 -7s-16.833 4 -23.5 12c-8.66699 10.667 -12.167 23.334 -10.5 38.001s4.16699 27.667 7.5 39c-2 -3.33301 -4.16699 -6.33301 -6.5 -9l-7.5 -9
c-9.33301 -11.333 -19.333 -21.5 -30 -30.5s-22.667 -16.833 -36 -23.5c-11.333 -6 -24 -10.667 -38 -14s-27.333 -1.66602 -40 5.00098c-10.667 4.66699 -18.167 11.5 -22.5 20.5s-6.66602 18.833 -6.99902 29.5s0.833984 21.334 3.50098 32.001s6 20.334 10 29.001
c7.33301 15.333 16 29.666 26 42.999s20.667 26 32 38c9.33301 10 19.5 19.333 30.5 28s22.5 16.334 34.5 23.001c14 8 28.833 14.5 44.5 19.5s31.834 7.16699 48.501 6.5c3.33301 0 6.16602 -0.166992 8.49902 -0.5s4.83301 -0.833008 7.5 -1.5
c4 -0.666992 6.66699 -2.33398 8 -5.00098s1.66602 -5.33398 0.999023 -8.00098s-2.16699 -5 -4.5 -7s-5.5 -2.66699 -9.5 -2c-0.666992 0 -1.33398 0.166992 -2.00098 0.5s-1.66699 0.5 -3 0.5c-13.333 1.33301 -27 0.333008 -41 -3s-27 -8.33301 -39 -15
c-22 -10.667 -42.667 -25.667 -62 -45c-11.333 -12 -22.166 -24.667 -32.499 -38s-19.166 -27.666 -26.499 -42.999c-4.66699 -9.33301 -8.33398 -19.5 -11.001 -30.5s-2.33398 -21.5 0.999023 -31.5c2.66699 -10.667 8 -17.334 16 -20.001c6 -3.33301 12.333 -4.5 19 -3.5
s13.334 2.5 20.001 4.5c26 9.33301 48.167 24.333 66.5 45s34.166 42.667 47.499 66c15.333 25.333 29.166 50.833 41.499 76.5s24.166 51.834 35.499 78.501l31 70.5l29 70.5l18 43l8 19.5c3.33301 8.33301 8.66602 11.166 15.999 8.49902z" />
    <glyph glyph-name="e" unicode="e" horiz-adv-x="213" 
d="M281 179c4.66699 -4 5.66797 -8.33105 3.00098 -12.998s-5.33398 -8.66699 -8.00098 -12l-24 -27l-21.5 -21.5l-22.5 -21.5c-16 -13.333 -34.167 -25.666 -54.5 -36.999s-41.5 -15.666 -63.5 -12.999c-10.667 1.33301 -20.167 4.83301 -28.5 10.5
s-14.833 13.5 -19.5 23.5c-5.33301 11.333 -7.66602 23.5 -6.99902 36.5s2.33398 25.5 5.00098 37.5c6 25.333 15.667 49.666 29 72.999s29.666 43.666 48.999 60.999c8 7.33301 16.667 14 26 20s19.333 10 30 12c11.333 2 22.833 1.16699 34.5 -2.5s19.5 -11.5 23.5 -23.5
c2.66699 -9.33301 2.66699 -18 0 -26s-6.5 -15.667 -11.5 -23s-11 -14 -18 -20s-13.833 -11.333 -20.5 -16c-11.333 -7.33301 -23 -13.5 -35 -18.5s-24.333 -9.5 -37 -13.5c-4 -1.33301 -8 -2.5 -12 -3.5s-8 -2.16699 -12 -3.5l-12 -3
c-1.33301 0 -2.33301 -0.166992 -3 -0.5s-1.66699 -0.5 -3 -0.5c-0.666992 0 -1 -0.666992 -1 -2s-0.333008 -2 -1 -2c-5.33301 -17.333 -8 -34 -8 -50c0.666992 -5.33301 1.66699 -11 3 -17s4 -11.333 8 -16c8 -6.66699 16.333 -10 25 -10
c9.33301 -1.33301 18.666 -0.5 27.999 2.5s18.333 6.5 27 10.5c11.333 6.66699 22.333 14.167 33 22.5s21 17.166 31 26.499c6 5.33301 11.833 11.166 17.5 17.499l16.5 18.5l18 22c4.66699 6 10 6.66699 16 2zM181.001 286.002
c-11.333 -1.33301 -21.833 -5.50098 -31.5 -12.501s-18.167 -14.5 -25.5 -22.5c-18 -20 -33.333 -43.667 -46 -71c20.667 5.33301 41.5 12.333 62.5 21s38.833 20.667 53.5 36c9.33301 9.33301 15 19 17 29c1.33301 9.33301 -1.5 15.333 -8.5 18
s-14.167 3.33398 -21.5 2.00098z" />
    <glyph glyph-name="f" unicode="f" horiz-adv-x="188" 
d="M239 177c2 2.66699 4.66504 4.16992 7.99805 4.50293s6.33301 -0.833984 9 -3.50098c4 -5.33301 3.66699 -11 -1 -17c-5.33301 -6.66699 -10.833 -13.167 -16.5 -19.5s-11.5 -12.5 -17.5 -18.5c-9.33301 -9.33301 -19.333 -18.166 -30 -26.499s-22 -15.5 -34 -21.5
c-21.333 -12 -43 -18.333 -65 -19c-3.33301 -0.666992 -6.33301 -1 -9 -1h-9c-4 0 -7 0.333008 -9 1c-0.666992 -0.666992 -1 -2 -1 -4c-1.33301 -5.33301 -1.66602 -11 -0.999023 -17s1.33398 -11.667 2.00098 -17c2 -15.333 4.16699 -31 6.5 -47s4 -32 5 -48
s1 -31.833 0 -47.5s-3.83301 -31.167 -8.5 -46.5c-6 -19.333 -16 -37 -30 -53s-31.667 -24.333 -53 -25c-12.667 0 -23.667 3.5 -33 10.5s-15.666 16.5 -18.999 28.5c-2 9.33301 -2.16699 18.833 -0.5 28.5s3.5 19.167 5.5 28.5c6 25.333 13.833 50.333 23.5 75l29.5 74
l71 163c-5.33301 -0.666992 -9 1.33301 -11 6s-1.33301 9 2 13l10 11l12 12c1.33301 2.66699 3.16602 5 5.49902 7s4.16602 4.66699 5.49902 8c4 8 8.33301 17.333 13 28l15 36l41 100.5l42 100.5l16 37.5l16 37.5c5.33301 11.333 12 21.666 20 30.999
s18.333 15.666 31 18.999c9.33301 3.33301 18.833 3.66602 28.5 0.999023s17.834 -8 24.501 -16c8 -9.33301 12 -20.333 12 -33s-1.66699 -24.667 -5 -36c-6.66699 -19.333 -15.5 -37.833 -26.5 -55.5s-22.5 -34.834 -34.5 -51.501c-14.667 -20.667 -29.834 -41 -45.501 -61
l-47.5 -60l-46 -53l-21 -24l-9 -10c-4 -4.66699 -6.66699 -9 -8 -13l-27.5 -63l-27.5 -63c2 4.66699 5.33301 7.33398 10 8.00098s9.33398 1 14.001 1h12c4 0 8.33301 0.333008 13 1c15.333 2 31 6.66699 47 14c19.333 9.33301 36.833 21.833 52.5 37.5
s30.167 31.5 43.5 47.5zM132.998 267.003l55.499 66.4961c18.333 22.333 36.166 45.166 53.499 68.499l23.5 32.5l22.5 33.5l15.5 27.5c5 9 9.5 18.5 13.5 28.5c2 4.66699 3.66699 9.83398 5 15.501s1.83301 11.5 1.5 17.5s-1.66602 11.333 -3.99902 16
s-6.5 8.33398 -12.5 11.001c-10 4.66699 -19.667 3.66699 -29 -3s-16.666 -14 -21.999 -22c-3.33301 -5.33301 -6.33301 -11.166 -9 -17.499l-8 -18.5l-16 -38c-6.66699 -15.333 -13 -30.666 -19 -45.999s-12.333 -30.666 -19 -45.999zM53.9971 -112.001
c0.666992 15.333 0.166992 30.6689 -1.5 46.002s-3.5 30.666 -5.5 45.999c-1.33301 7.33301 -2.33301 14.5 -3 21.5l-2 21.5c-2 11.333 -2 23 0 35l-25.5 -58.5c-8.33301 -19.667 -16.166 -39.5 -23.499 -59.5l-17.5 -46c-5.66699 -15.333 -10.5 -30.666 -14.5 -45.999
c-1.33301 -4.66699 -2.33301 -9.33398 -3 -14.001s-1.33398 -9.66699 -2.00098 -15c-1.33301 -5.33301 -2 -10.5 -2 -15.5s1.33301 -10.167 4 -15.5c4 -8 10.333 -12.5 19 -13.5s16.667 0.166992 24 3.5c10 4 18.5 10.167 25.5 18.5s12.5 17.666 16.5 27.999
s6.83301 21 8.5 32s2.5 21.5 2.5 31.5z" />
    <glyph glyph-name="g" unicode="g" horiz-adv-x="261" 
d="M313 177c2 2.66699 4.49805 4.00098 7.49805 4.00098s5.66699 -0.833008 8 -2.5s3.83301 -3.83398 4.5 -6.50098s0 -5.33398 -2 -8.00098c-1.33301 -2.66699 -3.16602 -5.16699 -5.49902 -7.5l-7.5 -7.5l-11 -13l-25.5 -25c-8.33301 -8 -17.166 -15.667 -26.499 -23
c-6 -5.33301 -12 -10.166 -18 -14.499l-18 -13.5l-22 -15c-2.66699 -2 -5 -5.66699 -7 -11l-25 -57l-31 -70c-10 -23.333 -21 -46.333 -33 -69l-16.5 -29.5c-5.66699 -9.66699 -12.167 -19.167 -19.5 -28.5c-5.33301 -6 -11.166 -11.333 -17.499 -16
s-13.5 -7.66699 -21.5 -9c-15.333 -2 -26.833 2.16699 -34.5 12.5s-12.167 22.166 -13.5 35.499c-1.33301 9.33301 -1.16602 18.666 0.500977 27.999s4.16699 18.666 7.5 27.999c7.33301 23.333 18.333 45 33 65s30.667 38.333 48 55c11.333 11.333 23.666 21.5 36.999 30.5
l40 26.5l30 20c1.33301 1.33301 2.33301 2.66602 3 3.99902l2 4l15 36l-7 -8c-10 -11.333 -20.833 -22.166 -32.5 -32.499s-24.834 -18.166 -39.501 -23.499c-12 -4 -24.833 -5.66699 -38.5 -5s-25.167 6 -34.5 16c-7.33301 8 -11.833 17.5 -13.5 28.5
s-1.83398 21.833 -0.500977 32.5c2 14 6 27.5 12 40.5s13 25.5 21 37.5c11.333 18 25.166 35.333 41.499 52s34.333 31 54 43s40.5 21 62.5 27s44.333 7 67 3c3.33301 -0.666992 7.16602 -1.66699 11.499 -3s6.83301 -4.33301 7.5 -9
c0.666992 -3.33301 -0.166016 -7.16602 -2.49902 -11.499s-4.16602 -8.16602 -5.49902 -11.499l-15 -34l-70 -159c18.667 14 36.334 28.833 53.001 44.5s32.667 32.167 48 49.5zM102.998 56.001c7.33301 2 15.334 5.66211 24.001 10.9951c9.33301 6 18 13 26 21
s15.667 16.333 23 25c8.66699 10 16.5 20.167 23.5 30.5l21.5 32.5c10.667 18.667 20.667 37.334 30 56.001s18.333 37.667 27 57c-15.333 2.66699 -30.833 2.33398 -46.5 -0.999023s-30.5 -8.66602 -44.5 -15.999c-12.667 -6.66699 -24.667 -14.334 -36 -23.001
s-22 -18 -32 -28c-11.333 -11.333 -22 -23.666 -32 -36.999s-18.667 -27.666 -26 -42.999c-4 -9.33301 -7.33301 -19.666 -10 -30.999s-2.66699 -22.333 0 -33s8.33398 -18 17.001 -22c5.33301 -2 11.166 -2.66699 17.499 -2s12.166 1.66699 17.499 3zM158.999 18.9961
l-33.4961 -22c-11 -7.33301 -21.833 -15.666 -32.5 -24.999c-8.66699 -7.33301 -16.834 -15 -24.501 -23s-15.167 -16.333 -22.5 -25c-10 -13.333 -19 -27.5 -27 -42.5s-13.667 -30.5 -17 -46.5c-0.666992 -3.33301 -1.16699 -6.83301 -1.5 -10.5s-0.5 -7.5 -0.5 -11.5
c-0.666992 -5.33301 -0.333984 -11.5 0.999023 -18.5s4.66602 -12.167 9.99902 -15.5c4 -2.66699 8 -3.5 12 -2.5s7.83301 2.83301 11.5 5.5s7.16699 5.66699 10.5 9s6 6.66602 8 9.99902c8 10.667 15.167 22 21.5 34s12.166 24 17.499 36c8 16 15.5 32 22.5 48l21.5 49z
" />
    <glyph glyph-name="h" unicode="h" horiz-adv-x="342" 
d="M395 175c3.33301 4 7.33105 5.00293 11.998 3.00293s7 -5.66699 7 -11c-0.666992 -2.66699 -2.83398 -6.33398 -6.50098 -11.001l-8.5 -11l-14.5 -17.5l-17.5 -19.5c-12 -14 -25.667 -28.833 -41 -44.5s-31 -26.5 -47 -32.5c-15.333 -5.33301 -27 -2.83301 -35 7.5
s-11 22.5 -9 36.5c3.33301 18 8.66602 35.333 15.999 52l22 50l12 29c5.33301 12.667 9.16602 25 11.499 37s1.66602 22 -2.00098 30s-13.167 10.667 -28.5 8c-9.33301 -1.33301 -17.833 -4.66602 -25.5 -9.99902s-15.167 -11 -22.5 -17
c-21.333 -18 -41.333 -38.667 -60 -62c-22.667 -28 -42.667 -58.667 -60 -92c-5.33301 -9.33301 -10 -19 -14 -29l-12 -30c-2 -5.33301 -4 -10.333 -6 -15s-6 -5.66699 -12 -3c-5.33301 2 -7.5 5.66699 -6.5 11s2.5 10.333 4.5 15l10 25.5l10 25.5l48 122l-51 -58
c-2.66699 -3.33301 -5.66699 -5 -9 -5s-6 0.833008 -8 2.5s-3.16699 4 -3.5 7s0.833984 6.16699 3.50098 9.5l28.5 33l29.5 33c4 5.33301 8.16699 10.333 12.5 15l13.5 15c5.33301 6.66699 9.83301 13.667 13.5 21s7.16699 15 10.5 23l32.5 76l33.5 76l35 70
c6.66699 11.333 13.834 22.666 21.501 33.999s17.167 20 28.5 26c13.333 7.33301 26 7.83301 38 1.5s18.667 -17.166 20 -32.499c1.33301 -14.667 -1.66699 -28.834 -9 -42.501s-14.666 -26.5 -21.999 -38.5c-15.333 -25.333 -32.333 -49.5 -51 -72.5l-57 -68.5l-51 -58
c-11.333 -13.333 -20 -28.166 -26 -44.499s-12.333 -32.166 -19 -47.499c12.667 15.333 25.834 30.5 39.501 45.5s28.5 28.167 44.5 39.5c11.333 8.66699 24.833 15.5 40.5 20.5s30.167 3.5 43.5 -4.5c11.333 -7.33301 17.833 -16.833 19.5 -28.5
s0.833984 -24.334 -2.49902 -38.001s-8 -27 -14 -40l-15 -32.5l-13.5 -29.5c-4.33301 -9.66699 -8.16602 -19.5 -11.499 -29.5l-6.5 -20c-2.33301 -7.33301 -2.83301 -14.333 -1.5 -21c1.33301 -5.33301 4 -8 8 -8s8.33301 1.16699 13 3.5s9 5.16602 13 8.49902
s7 5.66602 9 6.99902c18 15.333 34.5 32.166 49.5 50.499zM294.998 553.003c-8 -12 -15.334 -24.667 -22.001 -38s-13 -26.666 -19 -39.999c-11.333 -22 -21.833 -44.333 -31.5 -67l-29.5 -68l66.5 77c21.667 26 41.5 54 59.5 84l18 30.5c6.66699 11 10 22.167 10 33.5
c0 5.33301 -1.66699 10.166 -5 14.499s-8 5.5 -14 3.5c-7.33301 -2 -13.666 -6 -18.999 -12s-10 -12 -14 -18z" />
    <glyph glyph-name="i" unicode="i" horiz-adv-x="172" 
d="M240 178c4 -3.33301 5.16699 -6.83301 3.5 -10.5s-3.5 -7.16699 -5.5 -10.5l-18 -20l-26 -30c-8.66699 -10 -17.667 -19.667 -27 -29c-7.33301 -7.33301 -14.666 -14.166 -21.999 -20.499s-15.333 -12.166 -24 -17.499c-6 -3.33301 -12.833 -6.33301 -20.5 -9
s-14.834 -2.33398 -21.501 0.999023c-5.33301 2.66699 -9 6.5 -11 11.5s-3.33301 10.167 -4 15.5c-1.33301 11.333 -0.666016 22.333 2.00098 33s5.66699 21 9 31c5.33301 15.333 11.166 30.333 17.499 45s13.166 29.667 20.499 45l-45 -53
c-5.33301 -6 -10.833 -6.83301 -16.5 -2.5s-5.83398 10.166 -0.500977 17.499l15 18l68 78l22 26c3.33301 4.66699 7.33301 6.66699 12 6c3.33301 -1.33301 5.83301 -3.33301 7.5 -6s1.83398 -5.66699 0.500977 -9c-0.666992 -2 -1.5 -4 -2.5 -6s-2.16699 -4 -3.5 -6
l-32.5 -64c-10.333 -21.333 -20.166 -43.333 -29.499 -66c-4 -9.33301 -7.66699 -18.833 -11 -28.5s-6.33301 -19.5 -9 -29.5c-2 -8.66699 -2.66699 -16.667 -2 -24c0 -1.33301 0.166992 -3.66602 0.5 -6.99902s1.5 -5 3.5 -5c2.66699 -0.666992 5.5 -0.333984 8.5 0.999023
s5.5 2.66602 7.5 3.99902c8 4.66699 16 10.334 24 17.001c8 7.33301 15.5 14.666 22.5 21.999l21.5 22c13.333 14.667 26 29.334 38 44.001c3.33301 3.33301 7.5 8 12.5 14s10.167 6.66699 15.5 2zM216 437c-5.33301 2.66699 -8.33301 7 -9 13s0.333008 11.5 3 16.5
s6.5 8.83301 11.5 11.5s10.167 2.66699 15.5 0c5.33301 -3.33301 8.33301 -7.83301 9 -13.5s-0.333008 -11 -3 -16s-6.5 -8.83301 -11.5 -11.5s-10.167 -2.66699 -15.5 0z" />
    <glyph glyph-name="j" unicode="j" horiz-adv-x="148" 
d="M200 178c4.66699 4.66699 9.66504 4.82812 14.998 0.495117s6.33301 -9.16602 3 -14.499c-2 -3.33301 -4.5 -6.33301 -7.5 -9s-5.83301 -5.33398 -8.5 -8.00098l-14 -15l-25 -25.5c-8 -8.33301 -16.667 -16.5 -26 -24.5
c-7.33301 -7.33301 -15.166 -14.666 -23.499 -21.999l-24.5 -22c-2.66699 -2.66699 -6.66699 -6 -12 -10c-0.666992 -1.33301 -1.33398 -2.16602 -2.00098 -2.49902s-1.66699 -1.16602 -3 -2.49902l-5 -12l-22 -50l-39 -83.5c-13.333 -27.667 -28.666 -54.5 -45.999 -80.5
c-6.66699 -10 -14.667 -20 -24 -30s-20.666 -15.667 -33.999 -17c-7.33301 -0.666992 -13.666 0.5 -18.999 3.5s-9.66602 7 -12.999 12s-5.83301 10.833 -7.5 17.5s-2.5 13 -2.5 19c1.33301 24.667 9.16602 47.834 23.499 69.501s29.833 40.834 46.5 57.501
c11.333 11.333 23 22.333 35 33l37 32l48 40c3.33301 3.33301 5.83301 7.16602 7.5 11.499l4.5 11.5l37 89.5l35 89.5l-26 -31l-26 -30l-11 -12c-3.33301 -4 -7.66602 -5 -12.999 -3s-7.66602 5.66699 -6.99902 11c0.666992 3.33301 2.66699 6.83301 6 10.5
s6.33301 6.83398 9 9.50098l31 36l30 34.5l29 34.5c1.33301 1.33301 2.66602 2.5 3.99902 3.5s2.66602 1.83301 3.99902 2.5c3.33301 1.33301 6.66602 0.833008 9.99902 -1.5s5 -5.5 5 -9.5c0 -1.33301 -0.666992 -3.33301 -2 -6l-15 -41l-34.5 -87l-35.5 -87
c38 34 74 70 108 108zM-69.002 -205.006c9.33301 12.667 17.832 25.834 25.499 39.501l22.5 41.5l27.5 57.5l26.5 57.5l-8 -7l-34 -30l-34 -31c-11.333 -10.667 -22 -22 -32 -34s-18.667 -24.667 -26 -38c-5.33301 -9.33301 -9.66602 -19 -12.999 -29
s-4.33301 -20.333 -3 -31c1.33301 -5.33301 3.5 -10 6.5 -14s7.16699 -5.33301 12.5 -4c6 1.33301 11.5 4.16602 16.5 8.49902s9.16699 8.83301 12.5 13.5zM229.997 468.994c5.33301 -2.66699 8.33301 -6.83398 9 -12.501s-0.333008 -11 -3 -16s-6.5 -8.83301 -11.5 -11.5
s-10.167 -2.66699 -15.5 0c-6 2.66699 -9.33301 6.83398 -10 12.501s0.333008 11 3 16s6.5 8.83301 11.5 11.5s10.5 2.66699 16.5 0z" />
    <glyph glyph-name="k" unicode="k" horiz-adv-x="314" 
d="M364 175c3.33301 3.33301 7.33496 4.33203 12.002 2.99902s7.33398 -4.66602 8.00098 -9.99902c0 -2.66699 -0.833008 -5 -2.5 -7s-3.16699 -4 -4.5 -6c-2 -2.66699 -4 -5.16699 -6 -7.5s-4.33301 -4.83301 -7 -7.5l-21.5 -24.5c-7 -8.33301 -14.5 -16.833 -22.5 -25.5
c-6.66699 -7.33301 -14 -14.833 -22 -22.5s-16.5 -14.5 -25.5 -20.5s-18.667 -10.5 -29 -13.5s-20.833 -3.5 -31.5 -1.5c-12 2.66699 -22 7.66699 -30 15s-14.833 16 -20.5 26s-10.5 20.667 -14.5 32l-11 32l-4.5 13c-1.66699 4.66699 -0.166992 8.66699 4.5 12
c1.33301 1.33301 3.16602 2 5.49902 2s4.5 0.333008 6.5 1c5.33301 1.33301 9.33301 2 12 2l22 6c11.333 3.33301 22.833 7.5 34.5 12.5s22.5 11.167 32.5 18.5c6.66699 4.66699 13 10 19 16s10.667 12.667 14 20c2.66699 4.66699 4.5 9.5 5.5 14.5s0.5 10.167 -1.5 15.5
c-2.66699 6.66699 -7.33398 10 -14.001 10s-13 -1 -19 -3c-8.66699 -3.33301 -16.667 -7.5 -24 -12.5l-22 -15.5c-9.33301 -8 -18.333 -16.667 -27 -26s-16.667 -18.666 -24 -27.999c-19.333 -24.667 -36.166 -50.667 -50.499 -78s-26.833 -56 -37.5 -86
c0 0.666992 -0.333008 0.666992 -1 0s-1 -1.66699 -1 -3l-3 -4c-2 -2 -4 -2.33301 -6 -1c-4.66699 1.33301 -7.66699 3.66602 -9 6.99902s-1.33301 7 0 11l23 58l45 115l-20 -22.5c-6.66699 -7.66699 -13.667 -15.167 -21 -22.5c-2 -2.66699 -4.33301 -5.33398 -7 -8.00098
s-6 -3.66699 -10 -3c-5.33301 0.666992 -8.33301 3.33398 -9 8.00098s0.666016 8.66699 3.99902 12c12.667 12.667 24.834 25.667 36.501 39l34.5 40l19 21c1.33301 4 2.83301 8 4.5 12s3.5 8 5.5 12l10 24l10 24l35 82l26.5 57c9 18.667 18.5 37 28.5 55
c4.66699 8.66699 9.66699 17 15 25s11.666 15.333 18.999 22c7.33301 6 15.666 10.667 24.999 14s18.666 2.33301 27.999 -3c11.333 -6.66699 17.5 -16.334 18.5 -29.001s-0.833008 -24.334 -5.5 -35.001c-3.33301 -8 -7.16602 -15.833 -11.499 -23.5
s-8.83301 -15.167 -13.5 -22.5c-15.333 -22.667 -31 -44.667 -47 -66l-50 -64c-18 -23.333 -37 -46.333 -57 -69c-2 -3.33301 -4.16699 -6.16602 -6.5 -8.49902s-4.83301 -5.16602 -7.5 -8.49902l-7 -8c-1.33301 -1.33301 -2.16602 -3 -2.49902 -5s-1.16602 -4 -2.49902 -6
l-20 -49c11.333 14.667 23.833 28.834 37.5 42.501s28.5 25.5 44.5 35.5c6 4 12.833 7.5 20.5 10.5s15.334 5 23.001 6s15 0.333008 22 -2s13.167 -7.5 18.5 -15.5c4 -6.66699 6.16699 -13.667 6.5 -21s-0.666992 -14.666 -3 -21.999s-5.83301 -14.333 -10.5 -21
s-9.33398 -12.334 -14.001 -17.001c-16.667 -17.333 -36.167 -30.333 -58.5 -39s-44.833 -15.667 -67.5 -21c2.66699 -6.66699 5 -13.334 7 -20.001s4.66699 -13.667 8 -21c4 -9.33301 8.83301 -18.666 14.5 -27.999s13.5 -15.666 23.5 -18.999
c14 -4.66699 28.667 -2.66699 44 6c9.33301 5.33301 17.666 11.666 24.999 18.999l22 22c11.333 11.333 22.166 23.166 32.499 35.499zM294.002 552.999c-8 -12.667 -15.332 -25.666 -21.999 -38.999l-20 -40l-31 -68.5l-30 -69.5c5.33301 6 10.5 12.167 15.5 18.5
s10.167 12.5 15.5 18.5l55.5 71c18.333 24 35.166 49 50.499 75c4.66699 7.33301 9.5 16.166 14.5 26.499s5.83301 20.166 2.5 29.499c-4 8.66699 -11.333 10.667 -22 6c-6 -2.66699 -11.333 -6.66699 -16 -12s-9 -10.666 -13 -15.999z" />
    <glyph glyph-name="l" unicode="l" horiz-adv-x="198" 
d="M328 603c11.333 -5.33301 17.334 -14.8311 18.001 -28.498s-1 -25.5 -5 -35.5c-3.33301 -8.66699 -7.16602 -17 -11.499 -25s-8.83301 -15.667 -13.5 -23c-11.333 -19.333 -23.5 -38 -36.5 -56l-39.5 -54l-50 -67l-51 -66c-2.66699 -2.66699 -5 -6 -7 -10l-4 -12l-9 -24
c-6 -16.667 -11 -32 -15 -46c-4 -13.333 -7 -26.333 -9 -39c-1.33301 -7.33301 -2 -14.833 -2 -22.5s1.66699 -15.167 5 -22.5c4.66699 -11.333 12.334 -15.5 23.001 -12.5s21.834 9.16699 33.501 18.5s22.5 19.333 32.5 30s16.667 18 20 22l31 34
c2 2 4.16699 4.66699 6.5 8s5 6.16602 8 8.49902s6 3.83301 9 4.5s5.83301 -0.666016 8.5 -3.99902s3.33398 -6.5 2.00098 -9.5s-3 -5.83301 -5 -8.5c-3.33301 -3.33301 -6.33301 -6.66602 -9 -9.99902l-8 -10l-33 -35l-26.5 -27.5c-9 -9 -18.5 -17.167 -28.5 -24.5
c-7.33301 -5.33301 -14.666 -10 -21.999 -14s-15.666 -5.66699 -24.999 -5c-15.333 0 -26.333 6 -33 18s-10.334 24.667 -11.001 38c-0.666992 16 1.16602 32 5.49902 48s9.16602 31.667 14.499 47c-3.33301 -4 -6.5 -8 -9.5 -12s-6.16699 -8 -9.5 -12
c-3.33301 -3.33301 -7.33301 -5 -12 -5s-7.66699 2.66699 -9 8c-1.33301 4.66699 0.333984 9.5 5.00098 14.5s8.33398 9.16699 11.001 12.5l24 31c3.33301 3.33301 6.16602 6.66602 8.49902 9.99902s5.16602 6.66602 8.49902 9.99902c1.33301 1.33301 2.66602 3 3.99902 5
s2.33301 4 3 6c1.33301 1.33301 2.16602 3 2.49902 5s1.16602 4 2.49902 6l13.5 35.5c4.33301 11.667 9.16602 23.167 14.499 34.5l21.5 54c7 18 14.5 35.667 22.5 53c5.33301 12 11 24 17 36l18 36c5.33301 10.667 11.166 21.167 17.499 31.5s13.5 20.166 21.5 29.499
c6.66699 8.66699 15.834 16.667 27.501 24s23.167 8 34.5 2zM317.001 539.002c2.66699 5.33301 4.99902 12.334 6.99902 21.001s0.666992 15.667 -4 21c-1.33301 2 -3.33301 3 -6 3s-5 -0.333008 -7 -1c-9.33301 -4 -17.333 -10.5 -24 -19.5s-12.667 -17.833 -18 -26.5
c-6 -9.33301 -11.5 -18.833 -16.5 -28.5s-9.83301 -19.5 -14.5 -29.5l-21 -43.5c-6.66699 -14.333 -13 -28.833 -19 -43.5l-30 -75l46 61.5l45 61.5l33 48.5c10.667 16.333 20.334 33.166 29.001 50.499z" />
    <glyph glyph-name="m" unicode="m" horiz-adv-x="590" 
d="M660 182c5.33301 -4.66699 6.34082 -9.49902 3.00781 -14.499s-6.66602 -9.16699 -9.99902 -12.5l-18 -22.5c-6 -7.66699 -12.333 -15.167 -19 -22.5c-10.667 -12 -21.834 -23.833 -33.501 -35.5s-24.5 -21.5 -38.5 -29.5c-4 -2.66699 -8.83301 -5 -14.5 -7
s-11.334 -3.33301 -17.001 -4s-11 -0.333984 -16 0.999023s-9.5 4.33301 -13.5 9c-8 8.66699 -10.667 19.5 -8 32.5s5.66699 24.167 9 33.5c5.33301 15.333 11.333 30.333 18 45s13 29.334 19 44.001l8 19.5c2.66699 6.33301 5 13.166 7 20.499l4 14.5
c1.33301 5 1.66602 10.167 0.999023 15.5s-2.66699 8.83301 -6 10.5s-7.16602 2.5 -11.499 2.5s-8.83301 -0.666992 -13.5 -2s-8.33398 -2.66602 -11.001 -3.99902c-11.333 -5.33301 -21.5 -11.666 -30.5 -18.999s-17.833 -15 -26.5 -23c-10 -10 -19.5 -20.5 -28.5 -31.5
l-26.5 -33.5c-4.66699 -5.33301 -9 -11 -13 -17l-12 -18l-11 -17c-2 -3.33301 -3.66699 -6.83301 -5 -10.5l-4 -11.5l-8 -21c-2.66699 -6.66699 -5.66699 -13.334 -9 -20.001c-2 -3.33301 -4 -7 -6 -11s-4.66699 -7.33301 -8 -10c-6 -5.33301 -11.667 -5.33301 -17 0
c-2.66699 2.66699 -4 5.5 -4 8.5s0.666992 6.16699 2 9.5c2.66699 9.33301 6.66699 18.666 12 27.999l11 21l6.5 10.5c2.33301 3.66699 4.16602 7.5 5.49902 11.5c2.66699 7.33301 5.16699 14.833 7.5 22.5s4.5 15.5 6.5 23.5c4 14 7.5 28.5 10.5 43.5
s3.83301 29.833 2.5 44.5c-0.666992 6 -2.16699 12.167 -4.5 18.5s-7.16602 9.5 -14.499 9.5c-4.66699 0 -10.334 -1.33301 -17.001 -4c-7.33301 -3.33301 -14.333 -7.66602 -21 -12.999s-12.667 -11 -18 -17c-16 -16 -30.5 -33.333 -43.5 -52s-25.5 -37.667 -37.5 -57
l-33 -57l-14 -26l-4.5 -11c-1.66699 -4 -3.83398 -7.66699 -6.50098 -11c-6 -6 -12 -6 -18 0c-2.66699 4 -2.66699 8.66699 0 14l13 27l20 41.5c6.66699 13.667 13 27.5 19 41.5c4.66699 10.667 9 21.334 13 32.001s7.33301 21.667 10 33c2 7.33301 3.83301 16 5.5 26
s-0.5 18 -6.5 24c-2.66699 2.66699 -5.33398 3.66699 -8.00098 3s-5.33398 -1.66699 -8.00098 -3c-5.33301 -2.66699 -10.333 -5.83398 -15 -9.50098l-14 -11.5c-5.33301 -5.33301 -10.333 -10.666 -15 -15.999s-9.66699 -10.666 -15 -15.999l-35 -40l-13 -15
c-1.33301 -2 -2.83301 -3.83301 -4.5 -5.5s-4.16699 -2.5 -7.5 -2.5c-5.33301 0.666992 -8.66602 3.33398 -9.99902 8.00098s-0.333008 8.66699 3 12l9 10l34 40l28 31.5c9.33301 10.333 20 19.166 32 26.499c8 6 16.833 10.333 26.5 13s18.834 0 27.501 -8
c5.33301 -5.33301 9 -11.333 11 -18s3 -13.667 3 -21s-0.833008 -14.833 -2.5 -22.5s-3.5 -14.5 -5.5 -20.5l26.5 35c9 11.333 19.167 21.666 30.5 30.999c8 7.33301 16.667 14 26 20s19.666 9.66699 30.999 11c12 0.666992 21.833 -2.83301 29.5 -10.5
s12.5 -17.167 14.5 -28.5c2.66699 -14.667 3 -29.334 1 -44.001s-4.66699 -29 -8 -43c11.333 15.333 23.5 30.5 36.5 45.5s27.167 28.833 42.5 41.5c10 8.66699 20.833 16.5 32.5 23.5s24.167 11.167 37.5 12.5c6 0.666992 12.167 0.5 18.5 -0.5s11.833 -3.5 16.5 -7.5
c4 -4 6.83301 -8.5 8.5 -13.5s2.5 -10.167 2.5 -15.5c0 -15.333 -3 -30.5 -9 -45.5l-17 -42.5l-18 -41.5c-6 -13.667 -11.333 -27.834 -16 -42.501c-1.33301 -4.66699 -2.83301 -9.5 -4.5 -14.5s-1.83398 -10.167 -0.500977 -15.5
c0.666992 -4.66699 2.66699 -7.33398 6 -8.00098s7 -0.666992 11 0c9.33301 2 18.166 6.33301 26.499 13s16.166 13.334 23.499 20.001l27 28l26 29l21 26c2.66699 3.33301 5.66699 6.5 9 9.5s7.33301 2.83301 12 -0.5z" />
    <glyph glyph-name="n" unicode="n" horiz-adv-x="424" 
d="M478 179c3.33301 3.33301 7.15625 4.66602 11.4893 3.99902s7.16602 -3.33398 8.49902 -8.00098c0.666992 -3.33301 0.333984 -5.83301 -0.999023 -7.5s-2.66602 -3.5 -3.99902 -5.5c-1.33301 -3.33301 -3.33301 -6.5 -6 -9.5s-5 -5.83301 -7 -8.5l-23 -29
c-8 -10 -16.333 -19.333 -25 -28c-9.33301 -9.33301 -19.5 -18.666 -30.5 -27.999s-23.167 -16.333 -36.5 -21c-10.667 -3.33301 -21.667 -4.16602 -33 -2.49902s-18.666 8.83398 -21.999 21.501c-1.33301 5.33301 -1.66602 10.833 -0.999023 16.5s1.66699 11.167 3 16.5
c1.33301 7.33301 3.33301 14.5 6 21.5s5.66699 14.167 9 21.5l18.5 43.5c6.33301 14.333 12.166 28.833 17.499 43.5c5.33301 13.333 9 25.333 11 36c0.666992 3.33301 1.16699 7 1.5 11s-0.833984 7.66699 -3.50098 11c-3.33301 3.33301 -7.5 4.83301 -12.5 4.5
s-9.16699 -1.16602 -12.5 -2.49902c-4 -0.666992 -8 -1.83398 -12 -3.50098s-7.66699 -3.5 -11 -5.5c-19.333 -10 -36.333 -23.167 -51 -39.5s-28.334 -33.166 -41.001 -50.499s-24.667 -34.833 -36 -52.5s-22.333 -35.834 -33 -54.501c-3.33301 -5.33301 -6.5 -11 -9.5 -17
s-6.5 -11.667 -10.5 -17c-1.33301 -2.66699 -3.66602 -4.66699 -6.99902 -6s-6.66602 -1.33301 -9.99902 0c-6.66699 2.66699 -8.33398 7.33398 -5.00098 14.001l8 18l25.5 51.5c8.33301 17 16.166 34.167 23.499 51.5l12 30.5c4 10.333 7.33301 21.166 10 32.499
c2 8 3 16.333 3 25c0.666992 3.33301 0.666992 6.83301 0 10.5s-2.66699 6.5 -6 8.5c-3.33301 1.33301 -6.66602 1.5 -9.99902 0.5s-6.66602 -2.16699 -9.99902 -3.5c-8.66699 -6 -17.334 -12.667 -26.001 -20c-11.333 -10 -22.166 -20.667 -32.499 -32
s-20.166 -22.666 -29.499 -33.999l-15 -20c-2 -2.66699 -4.16699 -4.83398 -6.5 -6.50098s-5.16602 -1.83398 -8.49902 -0.500977s-5.66602 3.5 -6.99902 6.5s-1 5.83301 1 8.5c0.666992 1.33301 1.33398 2.5 2.00098 3.5s1.33398 2.16699 2.00098 3.5l30 38l22 23.5
c7.33301 7.66699 15 15.167 23 22.5c7.33301 6.66699 14.666 12.667 21.999 18s15.666 9.66602 24.999 12.999s18.333 3 27 -1s14.667 -11.333 18 -22c1.33301 -6 2 -12.167 2 -18.5s-0.666992 -12.5 -2 -18.5c-1.33301 -8 -3.16602 -16 -5.49902 -24
s-5.16602 -16 -8.49902 -24c12 16 24 31 36 45c10 11.333 20.667 22 32 32s23.666 18.667 36.999 26c9.33301 5.33301 20.833 9.33301 34.5 12s25.5 0 35.5 -8c4.66699 -4 8 -8.83301 10 -14.5s2.83301 -11.667 2.5 -18s-1.33301 -12.666 -3 -18.999l-4.5 -16.5
c-5.33301 -16 -11.333 -31.5 -18 -46.5l-20 -45.5l-8 -19.5c-2.66699 -6.33301 -5 -13.166 -7 -20.499c-1.33301 -4.66699 -2.83301 -9.5 -4.5 -14.5s-2.16699 -10.167 -1.5 -15.5s2.83398 -8.33301 6.50098 -9s7.83398 -0.5 12.501 0.5s9.33398 2.5 14.001 4.5
s8 3.66699 10 5c10.667 6.66699 20.334 14.167 29.001 22.5s17.334 17.166 26.001 26.499c8 9.33301 16.333 19.833 25 31.5z" />
    <glyph glyph-name="o" unicode="o" horiz-adv-x="289" 
d="M356 178c5.33301 -5.33301 6.00488 -10.6641 2.00488 -15.9971s-7.66699 -9.66602 -11 -12.999l-27 -27c-7.33301 -6.66699 -15.333 -12.834 -24 -18.501s-17.667 -10.167 -27 -13.5c-5.33301 -1.33301 -11 -2.5 -17 -3.5s-12 -0.833008 -18 0.5
c-3.33301 0.666992 -6.33301 1.16699 -9 1.5s-5.66699 1.16602 -9 2.49902c-4 1.33301 -7 2.66602 -9 3.99902l-9 -9c-10.667 -11.333 -22.334 -21.5 -35.001 -30.5s-26.667 -15.167 -42 -18.5c-14 -3.33301 -27.5 -2.66602 -40.5 2.00098s-23.167 13.667 -30.5 27
c-5.33301 10.667 -8.33301 22.167 -9 34.5s0 24.166 2 35.499c4.66699 24.667 13.167 48.167 25.5 70.5s27.166 42.5 44.499 60.5c10 10 20.667 19.667 32 29c2.66699 1.33301 5.5 3.33301 8.5 6s6.16699 4 9.5 4c7.33301 -1.33301 11 -5.33301 11 -12
c-0.666992 -4 -2.33398 -7 -5.00098 -9l-8 -6c-6 -4 -11.333 -8.33301 -16 -13c-11.333 -9.33301 -21.333 -19.333 -30 -30c-8 -10.667 -15.333 -21.5 -22 -32.5s-12.334 -22.833 -17.001 -35.5c-4 -10 -7.33301 -20.167 -10 -30.5s-3.66699 -21.166 -3 -32.499
c0.666992 -13.333 4.66699 -25 12 -35s18.333 -14 33 -12c15.333 2 29.833 7.83301 43.5 17.5s25.5 20.167 35.5 31.5c-8.66699 8 -15 17.5 -19 28.5s-6.33301 22.5 -7 34.5s0 24 2 36s4.66699 23.333 8 34c3.33301 11.333 8 22.666 14 33.999s14 20.666 24 27.999
c10.667 7.33301 21.834 10.166 33.501 8.49902s20.5 -8.16699 26.5 -19.5c7.33301 -13.333 10.666 -28.5 9.99902 -45.5s-3.66699 -32.5 -9 -46.5c-5.33301 -15.333 -12.166 -30.333 -20.499 -45s-17.5 -28.334 -27.5 -41.001c10.667 -4 21.167 -5 31.5 -3
s20.166 6 29.499 12c12.667 8.66699 24 18.334 34 29.001l21 22c2 3.33301 4.66699 5.83301 8 7.5s6.66602 0.833984 9.99902 -2.49902zM202.005 124.002c10.667 14 19.667 27.332 27 39.999c8.66699 14 15.667 28.833 21 44.5s7.33301 32.167 6 49.5
c-0.666992 5.33301 -1.66699 10.833 -3 16.5s-4.66602 10.167 -9.99902 13.5c-4.66699 2 -9.33398 1.83301 -14.001 -0.5s-8.66699 -5.16602 -12 -8.49902c-9.33301 -10 -16.5 -21.833 -21.5 -35.5s-8.5 -27.167 -10.5 -40.5s-2.16699 -27.333 -0.5 -42s7.5 -27 17.5 -37z
" />
    <glyph glyph-name="p" unicode="p" horiz-adv-x="336" 
d="M388 177c4 4.66699 8.83301 5.00098 14.5 1.00098s6.83398 -8.66699 3.50098 -14c-2 -3.33301 -4.33301 -6.33301 -7 -9s-5.33398 -5.66699 -8.00098 -9l-7.5 -7.5c-2.33301 -2.33301 -4.5 -5.16602 -6.5 -8.49902c-15.333 -16 -32.666 -31.667 -51.999 -47
c-21.333 -16 -44.5 -29.5 -69.5 -40.5s-51.167 -17.833 -78.5 -20.5c-17.333 -2 -35.666 -1.33301 -54.999 2l-16 3c-7.33301 2.66699 -10 7.5 -8 14.5s6.66699 9.5 14 7.5c6.66699 -2 13.334 -3 20.001 -3c3.33301 0 6.16602 0.166992 8.49902 0.5
s4.83301 0.833008 7.5 1.5c10.667 2 21.334 5.66699 32.001 11c10 5.33301 19.5 11.5 28.5 18.5s17.5 14.833 25.5 23.5c14.667 16 27.5 34.167 38.5 54.5s19.167 41.166 24.5 62.499c2.66699 8 4.66699 16.667 6 26c0.666992 6 1.16699 12.333 1.5 19
s-0.833984 12.667 -3.50098 18s-7.16699 7.33301 -13.5 6s-11.5 -3 -15.5 -5c-8.66699 -3.33301 -16.834 -7.66602 -24.501 -12.999s-15.167 -11 -22.5 -17c-9.33301 -8 -18.5 -16.5 -27.5 -25.5l-26.5 -27.5c-9.33301 -11.333 -18.333 -22.833 -27 -34.5
s-17 -23.834 -25 -36.501c-8.66699 -13.333 -16 -26.333 -22 -39c-1.33301 -2 -2.5 -3.83301 -3.5 -5.5s-1.83301 -3.5 -2.5 -5.5l-5 -11l-9 -22l-38 -89.5l-39 -89.5l-15.5 -36c-5 -12 -10.167 -23.667 -15.5 -35c-1.33301 -3.33301 -2.83301 -6.16602 -4.5 -8.49902
s-4.16699 -3.5 -7.5 -3.5c-7.33301 1.33301 -11 5.33301 -11 12c0 2.66699 0.5 5.16699 1.5 7.5s2.16699 4.5 3.5 6.5l6 13l57 132l117 278l-28 -31.5l-28 -32.5c-2.66699 -3.33301 -5.83398 -5.66602 -9.50098 -6.99902s-7.16699 0 -10.5 4
c-4.66699 4.66699 -4.33398 10 0.999023 16l54 62l25 28l24 28c4 4.66699 8.83301 5.16699 14.5 1.5s7.16699 -8.16699 4.5 -13.5c-1.33301 -2.66699 -2.33301 -5 -3 -7l-2 -6l-16 -38.5l-16 -38.5c14 17.333 29 34.166 45 50.499s33.667 30.5 53 42.5l16 9
c6 3.33301 12.167 6 18.5 8s12.5 2.83301 18.5 2.5s11.667 -2.16602 17 -5.49902c8 -5.33301 13 -12.833 15 -22.5s2.66699 -18.834 2 -27.501c-0.666992 -12.667 -2.5 -25.334 -5.5 -38.001s-6.83301 -24.667 -11.5 -36c-10 -25.333 -23.167 -49.5 -39.5 -72.5
s-36.166 -42.167 -59.499 -57.5c36.667 9.33301 69.5 25.666 98.5 48.999s55.5 49.333 79.5 78z" />
    <glyph glyph-name="q" unicode="q" horiz-adv-x="294" 
d="M349 181c2.66699 2.66699 5.33301 3.8291 8 3.49609s5 -1.5 7 -3.5s3.33301 -4.5 4 -7.5s-0.333008 -5.83301 -3 -8.5c-2 -2 -4 -4.16699 -6 -6.5s-4.33301 -4.5 -7 -6.5l-49 -54.5c-16.667 -18.333 -35 -34.5 -55 -48.5c-5.33301 -4.66699 -11 -8.33398 -17 -11.001
l-9 -5c-1.33301 -0.666992 -3 -1.33398 -5 -2.00098s-2.66699 -1.66699 -2 -3c2 -7.33301 3.33301 -14.833 4 -22.5s1 -15.167 1 -22.5c0 -14 -0.666992 -28.167 -2 -42.5s-3.33301 -28.5 -6 -42.5c-2.66699 -13.333 -5.5 -26.666 -8.5 -39.999
s-7.16699 -26.666 -12.5 -39.999c-4.66699 -11.333 -10.167 -22.333 -16.5 -33s-15.166 -19.667 -26.499 -27c-8 -5.33301 -17 -8.16602 -27 -8.49902s-19 2.83398 -27 9.50098c-11.333 9.33301 -16.833 21.333 -16.5 36s2.16602 28.667 5.49902 42
c6.66699 25.333 15.334 50 26.001 74l33 72c9.33301 19.333 18.166 39 26.499 59l25.5 59c-6.66699 -8 -13.667 -15.833 -21 -23.5s-15.333 -14.834 -24 -21.501c-11.333 -8.66699 -23.666 -15.667 -36.999 -21s-27.333 -6.66602 -42 -3.99902
c-11.333 2 -20.833 7.16699 -28.5 15.5s-12.5 18.166 -14.5 29.499c-2 12 -1.83301 24 0.5 36s5.83301 23.667 10.5 35c6.66699 15.333 14.5 29.5 23.5 42.5s19.167 25.5 30.5 37.5c18 19.333 38 36.333 60 51s46 24.667 72 30c11.333 2.66699 23 4.33398 35 5.00098
s23.667 -0.666016 35 -3.99902c4.66699 -1.33301 7.5 -3.33301 8.5 -6s1.16699 -5.66699 0.5 -9s-1.83398 -6.83301 -3.50098 -10.5s-3.16699 -6.83398 -4.5 -9.50098l-31 -71l-35.5 -79.5l-34.5 -79.5c9.33301 4 18.166 8.33301 26.499 13s16.5 10.334 24.5 17.001
c8.66699 6.66699 16.834 13.834 24.501 21.501l22.5 23.5zM100.999 54.9951c7.33301 2.66699 15.3369 6.33105 24.0039 10.998c10 6 19 13 27 21s15.667 16.667 23 26c8.66699 10 16.5 20.167 23.5 30.5s13.833 21.166 20.5 32.499c11.333 18 21.666 36.5 30.999 55.5
l27 57.5c-15.333 2 -30.833 1.33301 -46.5 -2s-30.5 -8.66602 -44.5 -15.999c-12.667 -6 -24.667 -13.333 -36 -22s-22 -18 -32 -28c-11.333 -11.333 -22 -23.666 -32 -36.999s-18.667 -27.666 -26 -42.999c-4 -10 -7.33301 -20.5 -10 -31.5s-2.66699 -21.833 0 -32.5
c1.33301 -4.66699 3.16602 -9 5.49902 -13s5.83301 -7 10.5 -9c5.33301 -2.66699 11.166 -3.66699 17.499 -3s12.166 1.66699 17.499 3zM159.003 -197.008c4.66699 7.33301 8.49902 15.3311 11.499 23.998s5.83301 17.334 8.5 26.001c3.33301 10 6 20.167 8 30.5
s3.66699 20.833 5 31.5c3.33301 21.333 5.33301 41.666 6 60.999c0 9.33301 -0.333008 19 -1 29s-3.66699 19 -9 27l-11.5 -26l-11.5 -27l-26.5 -58c-9 -19.333 -17.167 -39.333 -24.5 -60c-2.66699 -7.33301 -5.16699 -14.666 -7.5 -21.999
s-4.16602 -14.666 -5.49902 -21.999c-1.33301 -6.66699 -2 -13.5 -2 -20.5s2.66699 -13.167 8 -18.5c4.66699 -4.66699 9.5 -6.66699 14.5 -6s10 2.66699 15 6s9.5 7.33301 13.5 12s7 9 9 13z" />
    <glyph glyph-name="r" unicode="r" horiz-adv-x="258" 
d="M312 180c2.66699 2.66699 5.34082 3.99609 8.00781 3.99609s5 -1 7 -3s3.33301 -4.5 4 -7.5s-0.333008 -5.83301 -3 -8.5l-10 -12l-35 -39c-9.33301 -11.333 -19 -22.333 -29 -33s-20.667 -20.667 -32 -30c-7.33301 -6 -14.833 -11.667 -22.5 -17
s-16.167 -8.66602 -25.5 -9.99902c-7.33301 -0.666992 -13.5 0.333008 -18.5 3s-9 6.5 -12 11.5s-5 10.5 -6 16.5s-1.16699 12 -0.5 18c2.66699 16 8.16699 31.333 16.5 46s16.833 28.667 25.5 42l13.5 22l13.5 23l9 18c3.33301 6.66699 4.66602 13 3.99902 19
c-0.666992 3.33301 -5 4.83301 -13 4.5s-13.333 -0.5 -16 -0.5c-6.66699 0.666992 -12.834 2 -18.501 4s-9.83398 6.66699 -12.501 14c-11.333 -14 -22.833 -27.5 -34.5 -40.5l-34.5 -39.5l-19 -20c-2.66699 -2.66699 -5.33398 -4.66699 -8.00098 -6s-5.66699 -1 -9 1
c-4 2 -6 4.66699 -6 8s1.33301 6.66602 4 9.99902s5.5 6.5 8.5 9.5l7.5 7.5l29.5 32l28.5 33l32 39l15 17c3.33301 4.66699 7.66602 5.83398 12.999 3.50098s7.66602 -6.16602 6.99902 -11.499c-0.666992 -3.33301 -2 -6.66602 -4 -9.99902s-3.66699 -6.66602 -5 -9.99902
c-0.666992 -2 -1.33398 -3.83301 -2.00098 -5.5s-1 -3.5 -1 -5.5c-0.666992 -2.66699 -0.833984 -4.33398 -0.500977 -5.00098s2.16602 -1.33398 5.49902 -2.00098c6.66699 -0.666992 13.167 -0.666992 19.5 0s12.5 -0.333008 18.5 -3c7.33301 -2.66699 12.333 -7 15 -13
s3.33398 -12.333 2.00098 -19c-2.66699 -13.333 -8 -26.666 -16 -39.999c-4 -8 -8.33301 -15.667 -13 -23l-14 -22l-22 -37c-7.33301 -12.667 -12.666 -26 -15.999 -40c-0.666992 -4 -0.833984 -9 -0.500977 -15s3.16602 -9.66699 8.49902 -11
c3.33301 -1.33301 6.83301 -1 10.5 1l9.5 5c10.667 6.66699 20.334 14.334 29.001 23.001l26 27l69 77v0z" />
    <glyph glyph-name="s" unicode="s" horiz-adv-x="243" 
d="M294 176c4.66699 6 10.0049 6.83301 16.0049 2.5s7 -9.5 3 -15.5l-11.5 -15c-3.66699 -4.66699 -7.83398 -9.66699 -12.501 -15c-9.33301 -10.667 -19 -20.834 -29 -30.501s-20.667 -18.834 -32 -27.501c-22 -17.333 -46.833 -31.166 -74.5 -41.499
s-55.834 -12.166 -84.501 -5.49902c-14 3.33301 -27.167 8.5 -39.5 15.5s-23.833 15.5 -34.5 25.5c-2.66699 2 -5.5 4.5 -8.5 7.5s-4.83301 6.16699 -5.5 9.5c0 3.33301 0.833008 6.16602 2.5 8.49902s4.16699 3.5 7.5 3.5c4 0.666992 7.33301 -0.5 10 -3.5
s5.33398 -5.83301 8.00098 -8.5c5.33301 -5.33301 11 -10 17 -14c12 -8.66699 24.333 -15 37 -19c3.33301 -1.33301 6.83301 -2.33301 10.5 -3l10.5 -2c3.33301 -0.666992 6.5 -1.16699 9.5 -1.5s6.16699 -0.166016 9.5 0.500977c9.33301 2 16.833 6.16699 22.5 12.5
s10.167 13.833 13.5 22.5c4 11.333 6.5 23 7.5 35s1.5 24 1.5 36c0 16 -0.666992 32.167 -2 48.5s-1.33301 32.833 0 49.5c-20 -24.667 -40.333 -48 -61 -70l-18 -19c-1.33301 -2 -3.5 -3.16699 -6.5 -3.5s-5.5 0.5 -7.5 2.5c-3.33301 2.66699 -4.83301 5.5 -4.5 8.5
s1.5 6 3.5 9s4.33301 5.66699 7 8s5 4.5 7 6.5l45 52.5l45 52.5l12 14c4.66699 5.33301 9.66699 6 15 2s6.66602 -8.66699 3.99902 -14c-1.33301 -3.33301 -3.33301 -6.16602 -6 -8.49902s-4.66699 -5.16602 -6 -8.49902c-2.66699 -6 -4.33398 -12.333 -5.00098 -19l-2 -21
c-0.666992 -16.667 -0.333984 -33.334 0.999023 -50.001s1.66602 -33.334 0.999023 -50.001c0 -14 -1 -28.5 -3 -43.5s-6.66699 -28.833 -14 -41.5c16 6 31 13.833 45 23.5s27.333 20.167 40 31.5c22 20 40.667 41 56 63z" />
    <glyph glyph-name="t" unicode="t" horiz-adv-x="217" 
d="M270 177c2.66699 3.33301 6.17188 4.50098 10.5049 3.50098s7.16602 -3.5 8.49902 -7.5c1.33301 -3.33301 0 -7.66602 -4 -12.999c-3.33301 -3.33301 -6.5 -7 -9.5 -11s-6.16699 -7.66699 -9.5 -11l-33.5 -40.5c-11 -13.667 -23.5 -26.167 -37.5 -37.5
c-10 -8 -21.333 -14.5 -34 -19.5s-25.667 -5.5 -39 -1.5c-10 2.66699 -17.667 7.83398 -23 15.501s-8.66602 16.167 -9.99902 25.5c-1.33301 10 -1.66602 20 -0.999023 30s2 19.667 4 29c3.33301 15.333 7 30.333 11 45s8.66699 29.334 14 44.001l-20 -28.5
c-6.66699 -9.66699 -13.667 -19.167 -21 -28.5c-2.66699 -3.33301 -5.83398 -6.83301 -9.50098 -10.5s-7.83398 -3.5 -12.501 0.5c-5.33301 3.33301 -6.66602 7.33301 -3.99902 12s5.66699 8.66699 9 12c13.333 18 26.166 36.167 38.499 54.5s24.166 37.166 35.499 56.499
h-45c-4.66699 0 -8.16699 1.66699 -10.5 5s-2.5 7 -0.5 11c1.33301 3.33301 3.5 5.16602 6.5 5.49902s6.16699 0.5 9.5 0.5h53l10 21c9.33301 18.667 18.166 37.667 26.499 57l24.5 58c2 5.33301 5.83301 7.66602 11.5 6.99902s8.83398 -4 9.50098 -10
c0.666992 -3.33301 0.166992 -6.66602 -1.5 -9.99902l-4.5 -9l-15 -38l-15.5 -37.5l-15.5 -38.5h69c4 0 9 0.166992 15 0.5s10 -1.83398 12 -6.50098c2 -4 1.66699 -7.66699 -1 -11s-6 -5 -10 -5h-94c-1.33301 0 -2.83301 -2.83301 -4.5 -8.5
s-2.83398 -9.16699 -3.50098 -10.5l-8 -21l-16 -44c-4.66699 -13.333 -8.83398 -26.833 -12.501 -40.5s-6.83398 -27.5 -9.50098 -41.5c-1.33301 -9.33301 -2.5 -19 -3.5 -29s0.5 -19.333 4.5 -28c2.66699 -6.66699 6.66699 -10.834 12 -12.501s11 -2 17 -1
s12 2.83301 18 5.5s11 5.66699 15 9c13.333 9.33301 25.333 20.333 36 33l32 39l26 31v0z" />
    <glyph glyph-name="u" unicode="u" horiz-adv-x="348" 
d="M399 177c3.33301 3.33301 6.83203 4.66406 10.499 3.99707s6.5 -2.66699 8.5 -6c2 -4.66699 1 -9.66699 -3 -15c-3.33301 -3.33301 -6.5 -7 -9.5 -11s-6.16699 -7.66699 -9.5 -11l-26.5 -28l-27.5 -28c-8 -8 -16.333 -15.667 -25 -23s-18 -13.666 -28 -18.999
c-4 -2 -8.66699 -4 -14 -6s-10.666 -3.16699 -15.999 -3.5s-10.5 0.333984 -15.5 2.00098s-8.83301 5.16699 -11.5 10.5c-4 7.33301 -5.5 15.5 -4.5 24.5s2.5 17.5 4.5 25.5c3.33301 14.667 7.83301 29 13.5 43l17.5 42c-14.667 -20.667 -30 -40.834 -46 -60.501
s-33.667 -37.834 -53 -54.501c-9.33301 -7.33301 -19.166 -14.166 -29.499 -20.499s-21.166 -10.166 -32.499 -11.499c-10 -1.33301 -19 0.5 -27 5.5s-13 12.833 -15 23.5c-1.33301 9.33301 -1 19 1 29s4.66699 19.667 8 29c4.66699 14.667 10 29.167 16 43.5l18 43.5
l-24 -31c-3.33301 -3.33301 -7 -7.33301 -11 -12s-8.66699 -5.33398 -14 -2.00098s-6.83301 7.33301 -4.5 12s5.16602 8.66699 8.49902 12l20 25l31.5 40.5l29.5 40.5c1.33301 1.33301 2.33301 3 3 5s1.66699 3.66699 3 5c4.66699 4.66699 10 4.66699 16 0
c2.66699 -2.66699 3.66699 -5.33398 3 -8.00098s-1.66699 -5.33398 -3 -8.00098l-16.5 -41c-5.66699 -14 -11.5 -27.667 -17.5 -41l-17.5 -40c-5.66699 -13.333 -10.834 -26.666 -15.501 -39.999c-2 -5.33301 -3.83301 -11 -5.5 -17s-3.16699 -12 -4.5 -18
c-2.66699 -9.33301 -3 -17.333 -1 -24c2 -8 7 -11.333 15 -10s14.667 3.33301 20 6c7.33301 3.33301 14.5 7.66602 21.5 12.999s13.5 11 19.5 17c16.667 15.333 32 32 46 50l41 55l33.5 51.5c11 17 21.5 34.167 31.5 51.5c3.33301 6 7.33301 9 12 9c6 0 9.66699 -3 11 -9
c0.666992 -2 0.5 -4.16699 -0.5 -6.5s-1.83301 -4.5 -2.5 -6.5c-3.33301 -7.33301 -6.5 -14.833 -9.5 -22.5s-6.16699 -15.167 -9.5 -22.5l-22 -53.5l-21 -52.5l-11.5 -31.5c-3.66699 -10.333 -6.16699 -21.166 -7.5 -32.499c-0.666992 -2 -1 -4.83301 -1 -8.5
s1 -6.16699 3 -7.5s4.5 -1.66602 7.5 -0.999023s5.16699 1.33398 6.5 2.00098l11 5c11.333 6 21.5 13.167 30.5 21.5l27.5 25.5l33 34.5c10.667 11.667 21 23.834 31 36.501z" />
    <glyph glyph-name="v" unicode="v" horiz-adv-x="403" 
d="M454 178c4.66699 4 9.3252 4.34277 13.9922 1.00977s6.33398 -7.66602 5.00098 -12.999c-1.33301 -2 -3 -4 -5 -6l-5 -5l-12 -11c-8 -7.33301 -16.5 -14.333 -25.5 -21s-18.833 -11.667 -29.5 -15c-9.33301 -3.33301 -19 -4.33301 -29 -3s-18.667 5.66602 -26 12.999
s-11.333 16.166 -12 26.499s0 20.166 2 29.499c-13.333 -16.667 -27.166 -33 -41.499 -49s-29.5 -31 -45.5 -45l-21.5 -17.5c-7 -5.66699 -14.5 -10.834 -22.5 -15.501c-6 -3.33301 -12.167 -6.33301 -18.5 -9s-12.833 -4.33398 -19.5 -5.00098
c-9.33301 -1.33301 -17.666 0.666992 -24.999 6s-11.666 12.666 -12.999 21.999c-1.33301 13.333 0.166992 26.666 4.5 39.999s9.16602 25.666 14.499 36.999c6 14 12.5 28 19.5 42s13.167 28.333 18.5 43c0.666992 2 2.16699 5.83301 4.5 11.5s4.33301 11.667 6 18
s2.33398 12 2.00098 17s-2.83301 7.5 -7.5 7.5c-3.33301 0 -6.5 -1 -9.5 -3s-5.5 -4 -7.5 -6c-8 -5.33301 -16.333 -12.333 -25 -21l-50 -55c-2 -3.33301 -4.16699 -6.16602 -6.5 -8.49902s-4.5 -4.83301 -6.5 -7.5l-6.5 -8.5c-2.33301 -3 -4.83301 -5.5 -7.5 -7.5
c-5.33301 -3.33301 -10.166 -2.5 -14.499 2.5s-4.16602 9.83301 0.500977 14.5l14 18l27.5 30.5l27.5 30.5l24 23c8.66699 8 18 14 28 18c9.33301 3.33301 18.333 2.66602 27 -2.00098s13.667 -12 15 -22c0.666992 -6 0.333984 -12 -0.999023 -18s-3 -11.667 -5 -17
c-2 -7.33301 -4.5 -14.833 -7.5 -22.5s-6.16699 -15.167 -9.5 -22.5l-18 -40c-6 -13.333 -11.667 -26.666 -17 -39.999c-5.33301 -12 -9 -23.333 -11 -34c-0.666992 -3.33301 -1.16699 -7 -1.5 -11s0.833984 -7.33301 3.50098 -10c3.33301 -4 8.16602 -5.16699 14.499 -3.5
s11.166 3.5 14.499 5.5c7.33301 3.33301 14.5 7.66602 21.5 12.999s13.5 10.666 19.5 15.999c17.333 15.333 33.833 31.333 49.5 48s30.834 34 45.501 52l21 25.5c6.66699 8.33301 13 17.166 19 26.499l16 23l9.5 17c3.66699 6.66699 8.83398 8.33398 15.501 5.00098
c3.33301 -1.33301 5.16602 -3.66602 5.49902 -6.99902s-0.166992 -6.33301 -1.5 -9l-12 -22c-8 -13.333 -15 -27.333 -21 -42c-4 -8.66699 -7.66699 -17.834 -11 -27.501s-4.66602 -19.5 -3.99902 -29.5c0.666992 -8 4 -13.833 10 -17.5s13 -4.83398 21 -3.50098
c6 1.33301 11.833 3.5 17.5 6.5s11.167 6.5 16.5 10.5c7.33301 5.33301 14 10.666 20 15.999s12 11 18 17z" />
    <glyph glyph-name="w" unicode="w" horiz-adv-x="485" 
d="M538 178c3.33301 3.33301 7.1709 4.16895 11.5039 2.50195s6.5 -4.83398 6.5 -9.50098c0.666992 -4.66699 -0.833008 -8.5 -4.5 -11.5s-6.83398 -5.83301 -9.50098 -8.5c-7.33301 -6.66699 -14.5 -12.834 -21.5 -18.501s-14.833 -10.834 -23.5 -15.501
c-7.33301 -4.66699 -15.166 -8.16699 -23.499 -10.5s-16.833 -2.5 -25.5 -0.5c-19.333 4 -31 15.333 -35 34c-8 -13.333 -16.5 -25.833 -25.5 -37.5s-19.167 -22.834 -30.5 -33.501c-8.66699 -8.66699 -18.334 -16.334 -29.001 -23.001s-22.334 -11 -35.001 -13
c-6 -1.33301 -12.167 -1.83301 -18.5 -1.5s-12.166 2.16602 -17.499 5.49902c-10.667 4.66699 -17.667 14.334 -21 29.001c-3.33301 15.333 -3 30.666 1 45.999s8.66699 30 14 44c-12.667 -17.333 -25.834 -34 -39.501 -50s-28.834 -30.667 -45.501 -44
c-9.33301 -7.33301 -19.333 -14.333 -30 -21s-22.334 -10 -35.001 -10c-10 0 -18.333 2.83301 -25 8.5s-10.667 13.5 -12 23.5s-0.833008 20 1.5 30s5.16602 19.667 8.49902 29c10 29.333 21.333 58 34 86l-23 -28l-13 -14c-1.33301 -2 -2.83301 -3.83301 -4.5 -5.5
s-4.16699 -2.5 -7.5 -2.5c-6 1.33301 -9.33301 4.33301 -10 9s1 9 5 13l24 28c11.333 13.333 22 26.5 32 39.5s19.667 26.5 29 40.5c2.66699 3.33301 5.33398 7 8.00098 11s6.66699 5.33301 12 4c7.33301 -3.33301 9.33301 -9 6 -17l-18 -42l-24.5 -57
c-8.33301 -18.667 -16.166 -37.667 -23.499 -57l-6 -18c-2 -6 -3.66699 -12 -5 -18c-1.33301 -4.66699 -2.33301 -9.16699 -3 -13.5s-0.666992 -8.83301 0 -13.5c1.33301 -8.66699 5 -13 11 -13c3.33301 -0.666992 6.83301 -0.666992 10.5 0s7.16699 1.66699 10.5 3
c7.33301 3.33301 14.333 7.5 21 12.5l20 15.5c8 7.33301 15.5 14.833 22.5 22.5l21.5 24.5c15.333 18 29.5 36.5 42.5 55.5l38.5 58.5l29 47c2.66699 5.33301 5 9 7 11c6 4 11.333 3 16 -3c2 -2.66699 2.5 -5.33398 1.5 -8.00098l-3.5 -9
c-3.33301 -4.66699 -6 -9.33398 -8 -14.001c-12.667 -23.333 -24.167 -46.666 -34.5 -69.999s-19.166 -47.666 -26.499 -72.999c-2.66699 -8.66699 -4.83398 -17.5 -6.50098 -26.5s-1.83398 -18.167 -0.500977 -27.5c0.666992 -3.33301 1.83398 -6.66602 3.50098 -9.99902
s4.5 -5.66602 8.5 -6.99902c5.33301 -1.33301 10.833 -1.66602 16.5 -0.999023s10.834 2 15.501 4c12 4.66699 23 11.334 33 20.001s19 18 27 28c9.33301 11.333 18.333 23.666 27 36.999s16.667 26.666 24 39.999l6 10.5c2 3.66699 3.66699 7.16699 5 10.5l10 23l22 42
l4.5 11c1.66699 4 3.5 7.66699 5.5 11c1.33301 4 3 7 5 9s4.66699 2.83301 8 2.5s6 -1.5 8 -3.5c3.33301 -3.33301 4 -7.16602 2 -11.499s-3.66699 -8.16602 -5 -11.499c-2 -4 -3.83301 -8.16699 -5.5 -12.5s-3.83398 -8.5 -6.50098 -12.5l-21 -44
c-3.33301 -7.33301 -6.5 -14.666 -9.5 -21.999s-5.16699 -15 -6.5 -23c-1.33301 -4.66699 -1.83301 -9.5 -1.5 -14.5s2.16602 -9.16699 5.49902 -12.5c3.33301 -4 7.33301 -6.66699 12 -8s9.33398 -1.33301 14.001 0c6.66699 1.33301 12.667 3.5 18 6.5
s10.666 6.5 15.999 10.5c7.33301 5.33301 14 10.666 20 15.999z" />
    <glyph glyph-name="x" unicode="x" horiz-adv-x="363" 
d="M418 177c2.66699 3.33301 6.00391 4.66504 10.0039 3.99805s7 -2.66699 9 -6c2 -4.66699 1 -9.33398 -3 -14.001l-17 -21l-28.5 -34c-9.66699 -11.333 -20.167 -22.333 -31.5 -33c-9.33301 -9.33301 -20 -17.833 -32 -25.5s-25 -11.834 -39 -12.501
c-14.667 -0.666992 -25.834 2.83301 -33.501 10.5s-13.334 17.334 -17.001 29.001s-5.66699 24.167 -6 37.5s-0.5 25 -0.5 35l-43.5 -34.5l-42.5 -35.5l-20.5 -18c-7 -6 -13.167 -12.667 -18.5 -20c-3.33301 -4.66699 -6.66602 -7.33398 -9.99902 -8.00098
s-6.16602 0 -8.49902 2s-3.83301 4.66699 -4.5 8s0.5 6.66602 3.5 9.99902s5.5 6.33301 7.5 9c9.33301 9.33301 18.666 18 27.999 26l28 24l40 33l22 18l10 8c1.33301 1.33301 3.16602 2.66602 5.49902 3.99902s3.5 3 3.5 5l-2 47c-0.666992 6 -1.5 12.333 -2.5 19
s-2.83301 12.667 -5.5 18c-2 4.66699 -4.33301 8.5 -7 11.5s-6.66699 5.16699 -12 6.5c-5.33301 0.666992 -10.5 0 -15.5 -2s-9.83301 -4.66699 -14.5 -8c-13.333 -9.33301 -25.166 -20 -35.499 -32l-30.5 -36l-14.5 -18c-4.33301 -5.33301 -10.166 -11.666 -17.499 -18.999
c-2.66699 -2.66699 -5.33398 -4.66699 -8.00098 -6s-5.66699 -1 -9 1c-2.66699 2 -4.33398 4.5 -5.00098 7.5s0 5.83301 2 8.5c4.66699 6 9.33398 11.667 14.001 17l15 17l33 39c9.33301 10.667 19.833 21.167 31.5 31.5s24.5 17.166 38.5 20.499
c15.333 4 27.5 2.5 36.5 -4.5s15.667 -16.5 20 -28.5s7.16602 -24.833 8.49902 -38.5s2 -25.5 2 -35.5l77 60l57 44c3.33301 2 6.66602 4.33301 9.99902 7s7 2.66699 11 0c2.66699 -1.33301 4.33398 -3.66602 5.00098 -6.99902s0 -6.66602 -2 -9.99902
c-2 -2.66699 -4.66699 -5 -8 -7s-6.33301 -4 -9 -6l-40 -30.5l-40 -31.5l-21 -16l-20 -16l-12 -9c-1.33301 -1.33301 -3 -2.66602 -5 -3.99902s-3 -2.66602 -3 -3.99902v-22c0.666992 -7.33301 1 -14.666 1 -21.999s0.666992 -14.666 2 -21.999
c1.33301 -5.33301 2.33301 -10.666 3 -15.999s2.66699 -10.333 6 -15c6.66699 -9.33301 15.667 -12.333 27 -9s20.666 7.66602 27.999 12.999c13.333 9.33301 25.666 20 36.999 32s22 24.333 32 37l31 37v0z" />
    <glyph glyph-name="y" unicode="y" horiz-adv-x="381" 
d="M434 177c2.66699 3.33301 5.82715 4.83301 9.49414 4.5s6.5 -2.16602 8.5 -5.49902c2.66699 -4 2.83398 -7.66699 0.500977 -11s-4.83301 -6.66602 -7.5 -9.99902l-37 -42l-40 -40c-13.333 -13.333 -27.333 -26.333 -42 -39l-20 -18
c-3.33301 -2.66699 -5.66602 -6 -6.99902 -10s-2.66602 -7.66699 -3.99902 -11l-4 -10l-4 -10c-2 -6 -4.16699 -12 -6.5 -18s-4.83301 -12 -7.5 -18l-18 -43.5c-6 -14.333 -12.333 -28.5 -19 -42.5c-5.33301 -11.333 -11.333 -22.5 -18 -33.5s-14.334 -21.167 -23.001 -30.5
c-7.33301 -8.66699 -16.166 -16.167 -26.499 -22.5s-21.5 -9.83301 -33.5 -10.5c-14 -1.33301 -25.333 2.83398 -34 12.501s-13 21.5 -13 35.5c0.666992 19.333 6.5 37.5 17.5 54.5s22.833 32.167 35.5 45.5c11.333 12 23.166 23.333 35.499 34s25.166 21 38.499 31l41 33
l20 18c1.33301 1.33301 2.83301 2.5 4.5 3.5s2.83398 2.16699 3.50098 3.5l3 7l30 75l31 75c-15.333 -20.667 -31.166 -40.834 -47.499 -60.501s-34.166 -37.834 -53.499 -54.501c-8 -7.33301 -16.833 -14 -26.5 -20s-20.167 -10 -31.5 -12
c-5.33301 -1.33301 -10.666 -1.33301 -15.999 0s-10 3.66602 -14 6.99902s-6.83301 7.16602 -8.5 11.499s-2.5 9.16602 -2.5 14.499c-0.666992 6.66699 -0.333984 13.167 0.999023 19.5l4 19.5l16 48l16 42.5c5.33301 14.333 9.33301 29.166 12 44.499
c1.33301 4.66699 2.16602 9.5 2.49902 14.5s-0.5 9.5 -2.5 13.5s-5 6 -9 6s-7.66699 -0.666992 -11 -2c-4.66699 -2 -8.83398 -4.66699 -12.501 -8l-11.5 -10c-4.66699 -5.33301 -9.33398 -10.166 -14.001 -14.499s-9 -9.16602 -13 -14.499l-40 -47l-15 -18
c-3.33301 -3.33301 -7.33301 -5 -12 -5s-7.66699 2.66699 -9 8c-1.33301 4 -0.666016 7.33301 2.00098 10s5 5.33398 7 8.00098l16 19l27 31.5c8.66699 10.333 17.667 20.166 27 29.499c7.33301 7.33301 15 14.5 23 21.5s17 11.5 27 13.5s19.333 0.333008 28 -5
c9.33301 -7.33301 14 -17.666 14 -30.999c1.33301 -15.333 -0.5 -30.666 -5.5 -45.999s-10.167 -30 -15.5 -44l-16 -42.5c-5.33301 -14.333 -9.66602 -28.833 -12.999 -43.5c-0.666992 -4 -1.16699 -8.5 -1.5 -13.5s0.5 -9.16699 2.5 -12.5
c2 -2.66699 5 -3.83398 9 -3.50098s7.33301 0.833008 10 1.5c8 2.66699 15.5 6.33398 22.5 11.001s13.5 9.66699 19.5 15c18.667 16.667 35.834 34.667 51.501 54l46.5 59l22 31.5l22 32.5c1.33301 2.66699 2.83301 5.16699 4.5 7.5l5.5 7.5
c1.33301 2.66699 2.83301 5 4.5 7s4.16699 3 7.5 3c4.66699 0.666992 7.83398 -1 9.50098 -5s1.83398 -8 0.500977 -12l-85 -211l57.5 56c19 19.333 37.167 39.666 54.5 60.999zM251.993 -53c2 6 4.16797 11.8301 6.50098 17.4971l7.5 17.5l-50.5 -40
c-17 -13.333 -33.167 -27.666 -48.5 -42.999c-9.33301 -9.33301 -18.333 -19.5 -27 -30.5s-15.667 -22.833 -21 -35.5c-3.33301 -6.66699 -6 -14.167 -8 -22.5s-1 -16.166 3 -23.499c3.33301 -6 8.5 -9 15.5 -9s13.167 1.33301 18.5 4c8.66699 2.66699 17 8 25 16
c9.33301 8.66699 17 18.167 23 28.5s11.667 20.833 17 31.5c7.33301 14.667 14.166 29.334 20.499 44.001s12.5 29.667 18.5 45z" />
    <glyph glyph-name="z" unicode="z" horiz-adv-x="305" 
d="M373 178c3.33301 -3.33301 4.50586 -6.49512 3.50586 -9.49512s-2.83301 -6.16699 -5.5 -9.5l-59.5 -65l-60.5 -64l-25 -25l-6 -5c-1.33301 -2.66699 -2 -4.66699 -2 -6l-5 -10c-1.33301 -4 -2.83301 -8 -4.5 -12s-3.5 -7.66699 -5.5 -11l-20.5 -46
c-7 -15.333 -14.5 -30.333 -22.5 -45l-20.5 -37.5c-7 -12.333 -14.833 -24.166 -23.5 -35.499c-6 -8.66699 -13 -16.834 -21 -24.501s-16.667 -14.167 -26 -19.5c-8.66699 -4.66699 -18 -7.66699 -28 -9s-19.667 0 -29 4c-13.333 6.66699 -21 16.667 -23 30s-1 26.333 3 39
c5.33301 15.333 13.166 29.333 23.499 42s21.166 24.667 32.499 36s23.333 21.833 36 31.5l39 28.5l21.5 15c7 4.66699 13.833 9.66699 20.5 15l11.5 8c3.66699 2.66699 7.16699 5.66699 10.5 9l10 8c2.66699 2 4.66699 5.66699 6 11c2 6 3.66699 12.5 5 19.5
s1 13.5 -1 19.5c-0.666992 3.33301 -2.33398 6.33301 -5.00098 9l-3 4c-1.33301 1.33301 -2 2.16602 -2 2.49902s-0.666992 -0.166992 -2 -1.5l-22 -14c-10.667 -6.66699 -23 -13 -37 -19s-27.333 -7 -40 -3c-10 3.33301 -16 9 -18 17
c-1.33301 5.33301 -0.5 10.666 2.5 15.999s6.16699 10 9.5 14c10 10.667 22.333 18.334 37 23.001s29.334 5.66699 44.001 3c8 -2 16 -5 24 -9l9.5 7.5c3 2.33301 6.16699 5.16602 9.5 8.49902c6 5.33301 12 11 18 17s11.667 12.333 17 19
c9.33301 11.333 18 24.166 26 38.499s11.333 29.166 10 44.499c-0.666992 16 -7.33398 27.333 -20.001 34s-26 9.66699 -40 9s-27.167 -4 -39.5 -10s-24 -13.5 -35 -22.5s-21.5 -18.833 -31.5 -29.5l-28 -31l-13 -14l-6.5 -8.5c-2.33301 -3 -5.16602 -4.83301 -8.49902 -5.5
c-6.66699 -1.33301 -10.834 0.666992 -12.501 6s-0.833984 10 2.49902 14l16 18l50 53c17.333 18 37.333 32 60 42c12.667 5.33301 25.834 8.66602 39.501 9.99902s27.167 0.333008 40.5 -3c13.333 -4 24.5 -11.167 33.5 -21.5s14.167 -22.5 15.5 -36.5
s-0.833984 -28 -6.50098 -42s-12.167 -26.667 -19.5 -38c-9.33301 -14 -19.833 -27 -31.5 -39s-23.834 -23 -36.501 -33c12.667 -13.333 18 -29.333 16 -48l54 57l45 48l23 26c3.33301 3.33301 6.66602 6 9.99902 8s7 1.33301 11 -2zM31.0059 -233.995
c8.66699 -0.666992 16.832 0.833984 24.499 4.50098s14.834 8.66699 21.501 15s12.667 13.166 18 20.499s10 14.333 14 21c15.333 22 28.666 45.167 39.999 69.5l34 73.5c-22 -16.667 -44.5 -32.667 -67.5 -48s-44.167 -33.333 -63.5 -54
c-8 -8.66699 -15.667 -17.834 -23 -27.501s-12.666 -20.167 -15.999 -31.5c-2.66699 -8.66699 -3.16699 -17.667 -1.5 -27s8.16699 -14.666 19.5 -15.999zM105.004 59.0059c5.33301 -0.666992 10.5 -0.168945 15.5 1.49805s9.83301 3.16699 14.5 4.5
c7.33301 3.33301 14.166 6.83301 20.499 10.5s12.833 7.83398 19.5 12.501c-16.667 4.66699 -33.667 2.66699 -51 -6c-7.33301 -2.66699 -14 -7.66699 -20 -15l-4 -5c-0.666992 -1.33301 -0.166992 -2.16602 1.5 -2.49902s2.83398 -0.5 3.50098 -0.5z" />
    <glyph glyph-name="braceleft" unicode="{" horiz-adv-x="297" 
d="M384 584c-2.66699 1.33301 -5.17188 1.99707 -7.50488 1.99707s-4.83301 0.333008 -7.5 1c-12.667 0.666992 -25.334 -1 -38.001 -5c-17.333 -5.33301 -33.666 -15.666 -48.999 -30.999c-12.667 -14 -24 -30.667 -34 -50s-19 -39.333 -27 -60l-11.5 -31.5
c-3.66699 -10.333 -7.16699 -21.166 -10.5 -32.499l-10 -33.5l-10 -33.5c-6.66699 -22 -13.667 -42.667 -21 -62c-6.66699 -16.667 -14.667 -31 -24 -43c-3.33301 -4 -8.33301 -8.33301 -15 -13c-10 -6 -19.667 -10.667 -29 -14c6.66699 -4.66699 12 -9.33398 16 -14.001
c0.666992 -1.33301 1.33398 -2.5 2.00098 -3.5s1 -2.16699 1 -3.5c2 -4.66699 2.83301 -9.5 2.5 -14.5s-1.16602 -9.83301 -2.49902 -14.5c-4 -14 -9 -28.333 -15 -43l-13.5 -30c-4.33301 -10 -9.16602 -20 -14.499 -30s-10.333 -20.167 -15 -30.5l-14 -31.5
c-9.33301 -18.667 -18.333 -39.334 -27 -62.001l-10 -28c-3.33301 -9.33301 -6 -18.666 -8 -27.999c-2 -8 -3 -16.333 -3 -25c-0.666992 -4 -0.833984 -8.16699 -0.500977 -12.5s1.16602 -8.5 2.49902 -12.5c3.33301 -9.33301 9.33301 -15.333 18 -18
c7.33301 -2.66699 16 -4 26 -4c3.33301 0 7 0.166992 11 0.5s7.66699 0.833008 11 1.5c1.33301 0.666992 3 1 5 1c2.66699 0 4.66699 -0.666992 6 -2c4.66699 -2 6.33398 -5.66699 5.00098 -11c-0.666992 -4.66699 -3.33398 -7.66699 -8.00098 -9
c-0.666992 0 -1.16699 -0.166992 -1.5 -0.5s-0.833008 -0.5 -1.5 -0.5c-3.33301 -0.666992 -6.16602 -1.16699 -8.49902 -1.5s-5.16602 -0.5 -8.49902 -0.5c-18.667 -2 -35.667 0.666992 -51 8c-8.66699 4 -15 10.333 -19 19c-3.33301 4 -5.5 8.33301 -6.5 13
s-1.83301 9.33398 -2.5 14.001c-0.666992 9.33301 -0.333984 18.333 0.999023 27s3 17.334 5 26.001c5.33301 20 12.333 40.333 21 61l14 33l15 33l28 58c4 9.33301 8.16699 18.333 12.5 27s8.16602 17.667 11.499 27c2 4 3.83301 8 5.5 12s3.16699 8 4.5 12
c1.33301 3.33301 2.33301 6.5 3 9.5s1.33398 6.16699 2.00098 9.5c0 1.33301 0.166992 3 0.5 5s-0.166992 3.66699 -1.5 5c-6.66699 8 -14.334 13 -23.001 15c-1.33301 0 -2.5 0.166992 -3.5 0.5s-2.16699 0.5 -3.5 0.5s-2.33301 -0.166992 -3 -0.5
s-1.66699 -0.166016 -3 0.500977c-5.33301 1.33301 -8 4.66602 -8 9.99902c-0.666992 2.66699 0 5 2 7v3c0.666992 0 1 0.333008 1 1s0.166992 1.16699 0.5 1.5s0.5 0.833008 0.5 1.5c3.33301 3.33301 7 4.66602 11 3.99902h2c5.33301 0 10 1 14 3
c8.66699 2 17.334 5.66699 26.001 11c5.33301 2.66699 9 5 11 7c3.33301 3.33301 5.33301 5.66602 6 6.99902c4 4.66699 8.33301 11.667 13 21l6 13.5c2 4.33301 3.66699 9.16602 5 14.499c4.66699 11.333 8.83398 23 12.501 35l10.5 35l10 32.5l10 32.5
c3.33301 10.667 6.83301 21.167 10.5 31.5s7.83398 20.833 12.501 31.5c8.66699 21.333 18 40.333 28 57c11.333 18.667 24.333 35.334 39 50.001c14.667 12.667 31 22 49 28c12.667 4 26 6 40 6c4 -0.666992 8 -1.16699 12 -1.5s8 -1.16602 12 -2.49902
c4.66699 -1.33301 7.66699 -3 9 -5c2.66699 -5.33301 2.33398 -9.66602 -0.999023 -12.999c-2.66699 -4 -6.66699 -5.33301 -12 -4z" />
    <glyph glyph-name="bar" unicode="|" horiz-adv-x="376" 
d="M363 583c3.33301 -1.33301 5.50391 -3.3291 6.50391 -5.99609s0.833008 -5.33398 -0.5 -8.00098v-1c-1.33301 -2.66699 -2 -4.33398 -2 -5.00098c-1.33301 -2 -2.66602 -5 -3.99902 -9l-6 -13l-7 -17l-8 -20l-10 -23l-10 -26l-12 -28
c-2 -5.33301 -4.16699 -10.5 -6.5 -15.5s-4.5 -10.167 -6.5 -15.5l-13 -32l-15 -34c-2 -6 -4.16699 -12 -6.5 -18s-4.83301 -12 -7.5 -18l-30 -72c-2.66699 -6.66699 -5.33398 -13 -8.00098 -19l-8 -18l-30 -74l-30 -70l-14 -34l-13 -32l-12 -30l-12 -28
c-1.33301 -4 -3 -8 -5 -12s-3.66699 -8.33301 -5 -13c-2 -3.33301 -3.83301 -7 -5.5 -11l-4.5 -11l-4 -10l-4 -10l-6 -15c-2.66699 -5.33301 -4.33398 -9.33301 -5.00098 -12l-4 -8c0 -0.666992 -0.166992 -1.33398 -0.5 -2.00098s-0.5 -1.33398 -0.5 -2.00098
c-2.66699 -4.66699 -6.33398 -7 -11.001 -7c-4 0 -7 1.83301 -9 5.5s-2.33301 7.16699 -1 10.5c0.666992 0.666992 1 1.66699 1 3l3 7l5 11l6 15l8 19l9 22l11 25l11 28l12 29l14 32l13 33l15 35l30 72l15 37c2.66699 6 5.16699 12.167 7.5 18.5s5.16602 12.5 8.49902 18.5
l15 37l15 36l15 35l14 34l13 33c4 8.66699 8.33301 19 13 31l12 29c2 4 3.83301 8.16699 5.5 12.5s3.5 8.83301 5.5 13.5l10 24l9 20l3.5 9l3.5 9c2 4.66699 3.66699 9 5 13c1.33301 1.33301 2.16602 3 2.49902 5s0.833008 3.66699 1.5 5l3 5v1
c1.33301 3.33301 3.33301 5.5 6 6.5s5.66699 0.833008 9 -0.5z" />
    <glyph glyph-name="braceright" unicode="}" horiz-adv-x="449" 
d="M366 553c0.666992 -7.33301 0.338867 -14.832 -0.994141 -22.499l-4 -22.5c-5.33301 -20.667 -12 -40.667 -20 -60c-4 -11.333 -8.33301 -22.333 -13 -33l-15 -33l-14 -30c-4.66699 -10 -9.66699 -20 -15 -30c-4 -9.33301 -8.16699 -18.333 -12.5 -27
s-8.16602 -17.667 -11.499 -27c-2 -4 -3.83301 -8 -5.5 -12s-3.16699 -8 -4.5 -12c-3.33301 -7.33301 -5.33301 -14 -6 -20c-0.666992 -2 -1.16699 -4.16699 -1.5 -6.5s-0.166016 -4.5 0.500977 -6.5c0 -0.666992 0.166992 -1 0.5 -1s0.5 -0.333008 0.5 -1l6 -6
c4 -3.33301 8 -5.66602 12 -6.99902c5.33301 -1.33301 9.66602 -2 12.999 -2c4.66699 1.33301 8.33398 0 11.001 -4c1.33301 -1.33301 2.33301 -3.16602 3 -5.49902s0.333984 -5.5 -0.999023 -9.5c-0.666992 -2 -1.66699 -3.66699 -3 -5s-3 -2.5 -5 -3.5
s-4.66699 -1.16699 -8 -0.5c-3.33301 0 -7 -0.666992 -11 -2c-4.66699 -1.33301 -8.83398 -2.66602 -12.501 -3.99902l-11.5 -4l-15 -9l-6 -6c-4.66699 -4.66699 -8.66699 -11 -12 -19c-4.66699 -7.33301 -8.66699 -16 -12 -26
c-4.66699 -11.333 -8.83398 -22.833 -12.501 -34.5l-10.5 -34.5l-20 -66c-3.33301 -10.667 -6.83301 -21.167 -10.5 -31.5s-7.83398 -20.833 -12.501 -31.5c-8.66699 -21.333 -17.667 -41 -27 -59c-5.33301 -9.33301 -11 -18.166 -17 -26.499s-12.667 -16.166 -20 -23.499
c-7.33301 -6.66699 -15 -12.667 -23 -18s-16.667 -9.66602 -26 -12.999c-14 -5.33301 -28 -8 -42 -8c-8.66699 0 -17.334 1 -26.001 3l-6 2c-4 2 -6 6 -6 12c1.33301 4.66699 4.33301 7.66699 9 9c1.33301 0.666992 2.83301 0.666992 4.5 0s3.5 -1 5.5 -1
c4 -1.33301 7.66699 -2 11 -2c14 -1.33301 26.667 0 38 4c9.33301 3.33301 18 7.66602 26 12.999s15.333 11.666 22 18.999c7.33301 7.33301 13.666 15.166 18.999 23.499s10.666 17.166 15.999 26.499s10 19 14 29l12 30l11.5 32.5
c3.66699 10.333 7.16699 21.166 10.5 32.499l21 67l10 31c3.33301 10 7 20.333 11 31l10.5 22c3.66699 7.33301 8.16699 14 13.5 20c3.33301 5.33301 8 9.66602 14 12.999c5.33301 3.33301 10.166 6.16602 14.499 8.49902s9.16602 4.5 14.499 6.5
c-5.33301 3.33301 -10.666 8.33301 -15.999 15l-3 6c-1.33301 5.33301 -1.83301 10.333 -1.5 15s1.16602 9.33398 2.49902 14.001c1.33301 7.33301 3.33301 14.666 6 21.999s5.66699 14.666 9 21.999l13.5 30c4.33301 10 9.16602 20 14.499 30s10.333 20.167 15 30.5
l14 31.5c9.33301 18.667 18.333 39.334 27 62.001c6.66699 17.333 12.667 36 18 56l2 12c0.666992 4 1 8.33301 1 13c1.33301 8.66699 0.333008 17 -3 25c-2.66699 8 -8.66699 13.667 -18 17c-4 2 -8.33301 3.16699 -13 3.5s-9.33398 0.5 -14.001 0.5
c-7.33301 0 -14.333 -1 -21 -3h-5c-2 0 -4.33301 0.666992 -7 2c-4 4 -5 8 -3 12c1.33301 4 4 6.66699 8 8c1.33301 0 2.33301 0.333008 3 1c3.33301 0.666992 6.33301 1.16699 9 1.5s5.33398 0.5 8.00098 0.5c8.66699 1.33301 17.5 1.33301 26.5 0s17.167 -4.33301 24.5 -9
c8 -4 14.667 -10.333 20 -19c2.66699 -4 4.5 -8.33301 5.5 -13s1.83301 -9.66699 2.5 -15z" />
    <glyph glyph-name="asciitilde" unicode="~" horiz-adv-x="44" 
d="M112 182c2.66699 -2.66699 4.16602 -5.33301 4.49902 -8s-1.5 -6.33398 -5.5 -11.001l-19 -23l-67 -79l-18 -22c-3.33301 -3.33301 -7.16602 -4.66602 -11.499 -3.99902s-7.16602 3.66699 -8.49902 9c-0.666992 3.33301 0.666016 7.33301 3.99902 12l51.5 60.5l51.5 60.5
c7.33301 8 13.333 9.66699 18 5z" />
    <glyph glyph-name="uni00A0" unicode="&#xa0;" horiz-adv-x="0" 
 />
    <glyph glyph-name="exclamdown" unicode="&#xa1;" horiz-adv-x="378" 
d="M77 -139c-6 2.66699 -8.16504 6.66797 -6.49805 12.001s3.5 10 5.5 14l8 19.5c2.66699 6.33301 5.66699 12.833 9 19.5l81 191l57 131c1.33301 4 3.66602 6.33301 6.99902 7c4.66699 2 8.66699 1.16699 12 -2.5s4 -7.83398 2 -12.501l-5 -11l-27 -64l-84 -196l-33 -76
l-9 -21c-1.33301 -3.33301 -3.33301 -6.5 -6 -9.5s-6.33398 -3.5 -11.001 -1.5zM282.002 397.001c0 5.33301 1.66699 9.66602 5 12.999s7.66602 5 12.999 5s9.83301 -1.66699 13.5 -5s5.5 -7.66602 5.5 -12.999c0 -12.667 -6.33301 -19 -19 -19
c-5.33301 0 -9.66602 1.83301 -12.999 5.5s-5 8.16699 -5 13.5z" />
    <glyph glyph-name="cent" unicode="&#xa2;" horiz-adv-x="309" 
d="M229 505c15.333 -2 28.0049 -6.66797 38.0049 -14.001c7.33301 -5.33301 13.666 -12.333 18.999 -21c3.33301 -4.66699 4.66602 -9.33398 3.99902 -14.001c-1.33301 -4 -4.33301 -6.66699 -9 -8c-5.33301 -1.33301 -9 0.333984 -11 5.00098l-8 12
c-6 6.66699 -13.333 11.667 -22 15c-5.33301 1.33301 -9.66602 2 -12.999 2c-2 0 -3.33301 0.333008 -4 1h-3v-1l-1 -2c-0.666992 -2.66699 -2.33398 -6.66699 -5.00098 -12l-8 -21l-12 -27l-13 -33l-15 -35l-15 -37l-15 -36l-14 -34l-13 -29l-9 -24
c-1.33301 -2.66699 -2.5 -5.16699 -3.5 -7.5s-2.16699 -4.83301 -3.5 -7.5l-2 -6c8.66699 -1.33301 17.167 -0.833008 25.5 1.5s16.5 5.16602 24.5 8.49902c10 4.66699 19.5 10.334 28.5 17.001s17.167 13.667 24.5 21l3.5 3.5l3.5 3.5l6 6c3.33301 4 7.66602 5 12.999 3
c5.33301 -2.66699 7.33301 -6.66699 6 -12c0 -1.33301 -0.666992 -3.33301 -2 -6l-3.5 -3.5l-3.5 -3.5c-16 -17.333 -33.667 -31.666 -53 -42.999c-18 -10.667 -37 -17 -57 -19h-9c-2.66699 0 -5.66699 0.333008 -9 1h-4c-1.33301 0 -2.33301 0.333008 -3 1l-3 -7l-12 -30
l-15 -36l-9 -22c-0.666992 0 -1 -0.333008 -1 -1c-2.66699 -4.66699 -6.33398 -6.66699 -11.001 -6c-4 0 -6.83301 1.66699 -8.5 5s-1.83398 6.66602 -0.500977 9.99902l7 19l15 35l13 32l4 8v1c-1.33301 0.666992 -2.33301 1.33398 -3 2.00098l-2 2
c-1.33301 0.666992 -3.33301 2.33398 -6 5.00098c-8 6.66699 -14.167 14.5 -18.5 23.5s-7.5 18.5 -9.5 28.5c-2.66699 11.333 -3.83398 22.333 -3.50098 33s1.5 21.667 3.5 33c2.66699 11.333 5.66699 22.666 9 33.999s7.66602 22.666 12.999 33.999
c8.66699 20 20.334 40 35.001 60c7.33301 9.33301 15 18.5 23 27.5s16.667 17.167 26 24.5c8 6.66699 16.5 12.834 25.5 18.501s18.5 10.167 28.5 13.5l13 5c1.33301 0 2.5 0.166992 3.5 0.5s2.16699 0.5 3.5 0.5h1c1.33301 0 2 0.333008 2 1c0 2 0.666992 3.66699 2 5
l12 30l15 36l8 18c1.33301 4 4 6.5 8 7.5s7.66699 -0.166992 11 -3.5c2.66699 -2.66699 3.33398 -6.66699 2.00098 -12c0 -0.666992 -0.166992 -1 -0.5 -1s-0.5 -0.333008 -0.5 -1c-1.33301 -4 -3 -8 -5 -12s-3.66699 -8.33301 -5 -13l-15 -35zM73.0049 185.999
l3.49902 8.99805c1 2.66699 2.16699 5.33398 3.5 8.00098c1.33301 4.66699 3 9 5 13s3.66699 8 5 12l13 31l15 35l15 37l15 36l14 35l13 30l10 24l6 16l3 6c-10 -3.33301 -18.667 -7.33301 -26 -12c-10 -6 -19.5 -12.833 -28.5 -20.5s-17.167 -15.834 -24.5 -24.501
c-15.333 -16.667 -29 -35.667 -41 -57c-5.33301 -10.667 -10.166 -21.167 -14.499 -31.5s-7.83301 -21.166 -10.5 -32.499c-3.33301 -11.333 -5.5 -23 -6.5 -35s-0.833008 -23.667 0.5 -35c1.33301 -9.33301 4 -18.666 8 -27.999s10.333 -17 19 -23z" />
    <glyph glyph-name="sterling" unicode="&#xa3;" horiz-adv-x="473" 
d="M349 576c18 -1.33301 34.999 -5.32812 50.999 -11.9951c16 -7.33301 29.667 -18 41 -32c12 -17.333 18 -35 18 -53c0.666992 -10.667 -0.333008 -21 -3 -31s-6.66699 -19.667 -12 -29l-9 -13l-3 -3l-3 -3c-1.33301 -0.666992 -3.33301 -1 -6 -1
c-5.33301 0 -8.66602 2.66699 -9.99902 8c-1.33301 2 -1.33301 4 0 6c1.33301 3.33301 2.66602 5.33301 3.99902 6c6.66699 8.66699 11.834 18 15.501 28s5.16699 20.333 4.5 31c-1.33301 19.333 -8.66602 35.666 -21.999 48.999c-12.667 12 -28.667 20 -48 24
c-16 3.33301 -31 4 -45 2c-6 -1.33301 -12 -3 -18 -5s-11.667 -4.66699 -17 -8c-13.333 -8 -24 -16.333 -32 -25c-5.33301 -5.33301 -10.333 -11.166 -15 -17.499l-14 -19.5c-9.33301 -16.667 -17.333 -33 -24 -49c-8 -20 -15 -40 -21 -60l-8 -33
c-1.33301 -6 -2.83301 -11.833 -4.5 -17.5s-3.5 -11.5 -5.5 -17.5h102c3.33301 0 6 -1.33301 8 -4c3.33301 -4.66699 3.66602 -9 0.999023 -13c-2 -3.33301 -5 -5 -9 -5h-109l-1 -5l-3 -8l-5 -15l-24 -62l-14 -31c-4.66699 -10 -9.66699 -20 -15 -30l-15.5 -27
c-5 -8.66699 -10.5 -17.334 -16.5 -26.001l10 3c5.33301 1.33301 10.833 2.33301 16.5 3l17.5 2c12.667 0 25 -1 37 -3c12.667 -2.66699 25.167 -5.66699 37.5 -9s24.5 -7 36.5 -11c6.66699 -1.33301 13 -3 19 -5l18 -6l34 -7c5.33301 -0.666992 10.333 -1.16699 15 -1.5
s9.33398 0.166992 14.001 1.5l12 3c4.66699 2 8.66699 1.33301 12 -2c4.66699 -3.33301 5.66699 -7.33301 3 -12c-1.33301 -2.66699 -2.66602 -4.33398 -3.99902 -5.00098c-1.33301 -1.33301 -2.33301 -2 -3 -2s-1.66699 -0.333008 -3 -1
c-8.66699 -2.66699 -18.334 -4 -29.001 -4c-11.333 0 -22.333 1 -33 3l-36 9c-12.667 3.33301 -25.167 7 -37.5 11s-24.833 7.66699 -37.5 11c-12 2.66699 -24 4.66699 -36 6c-10 1.33301 -20.667 1.33301 -32 0c-16.667 -2 -33.667 -7.33301 -51 -16
c-10 -4.66699 -18.667 -9.66699 -26 -15l-2 -2c-1.33301 -1.33301 -2.66602 -2 -3.99902 -2h-8c-5.33301 0 -9 2 -11 6c-1.33301 5.33301 -0.333008 9.66602 3 12.999c1.33301 1.33301 4 2.66602 8 3.99902c1.33301 0.666992 2.5 1.33398 3.5 2.00098
s2.16699 1.33398 3.5 2.00098c5.33301 3.33301 10 7.33301 14 12c5.33301 5.33301 10.5 11.333 15.5 18s9.5 13.334 13.5 20.001c10 16 20 33.667 30 53c10.667 21.333 19.667 41.666 27 60.999c9.33301 22 17.333 43.333 24 64h-72c-4.66699 0 -7.66699 2.66699 -9 8
s0 9.33301 4 12c1.33301 1.33301 3.66602 2 6.99902 2h77l1 2c0 1.33301 0.166992 2.16602 0.5 2.49902s0.5 1.16602 0.5 2.49902l3 9c3.33301 11.333 6.33301 23 9 35s5.66699 23.667 9 35l10 28.5c3.33301 9.66699 7 19.167 11 28.5c5.33301 14.667 13 29.667 23 45
c3.33301 6 7 11.833 11 17.5s8.66699 11.167 14 16.5c3.33301 4.66699 7.16602 9 11.499 13s8.83301 7.66699 13.5 11c4 3.33301 8 6.33301 12 9s8.33301 5 13 7c8 4 16.333 7 25 9c3.33301 1.33301 7 2.16602 11 2.49902s7.66699 0.833008 11 1.5
c7.33301 1.33301 14 1.33301 20 0z" />
    </font>
</defs>
</svg>
